<svg width="10" height="15" viewBox="0 0 10 15" fill="none" xmlns="http://www.w3.org/2000/svg">
<path d="M0.755682 15V13.7216L5.55682 8.46591C6.12027 7.85038 6.58428 7.31534 6.94886 6.8608C7.31345 6.40152 7.58333 5.97064 7.75852 5.56818C7.93845 5.16098 8.02841 4.73485 8.02841 4.28977C8.02841 3.77841 7.9053 3.3357 7.65909 2.96165C7.41761 2.58759 7.08617 2.29877 6.66477 2.09517C6.24337 1.89157 5.76989 1.78977 5.24432 1.78977C4.68561 1.78977 4.19792 1.90578 3.78125 2.13778C3.36932 2.36506 3.04972 2.68466 2.82244 3.09659C2.59991 3.50852 2.48864 3.99148 2.48864 4.54545H0.8125C0.8125 3.69318 1.009 2.94508 1.40199 2.30114C1.79498 1.6572 2.33002 1.1553 3.0071 0.795454C3.68892 0.435605 4.4536 0.255681 5.30114 0.255681C6.15341 0.255681 6.90862 0.435605 7.56676 0.795454C8.22491 1.1553 8.741 1.64062 9.11506 2.25142C9.48911 2.86222 9.67614 3.54167 9.67614 4.28977C9.67614 4.82481 9.57907 5.34801 9.38494 5.85938C9.19555 6.366 8.86411 6.93182 8.39062 7.55682C7.92188 8.17708 7.27083 8.93466 6.4375 9.82955L3.17045 13.3239V13.4375H9.93182V15H0.755682Z" fill="#020202"/>
</svg>
