<svg width="11" height="16" viewBox="0 0 11 16" fill="none" xmlns="http://www.w3.org/2000/svg">
<path d="M5.67045 15.1989C4.73295 15.1989 3.89725 15.0379 3.16335 14.7159C2.43419 14.3939 1.85417 13.9465 1.4233 13.3736C0.997159 12.7959 0.765152 12.1259 0.727273 11.3636H2.51705C2.55492 11.8324 2.71591 12.2372 3 12.5781C3.28409 12.9143 3.65578 13.1747 4.11506 13.3594C4.57434 13.544 5.08333 13.6364 5.64205 13.6364C6.26705 13.6364 6.82102 13.5275 7.30398 13.3097C7.78693 13.0919 8.16572 12.7888 8.44034 12.4006C8.71496 12.0123 8.85227 11.5625 8.85227 11.0511C8.85227 10.5161 8.7197 10.045 8.45455 9.63778C8.18939 9.22585 7.80114 8.90388 7.28977 8.67188C6.77841 8.43987 6.15341 8.32386 5.41477 8.32386H4.25V6.76136H5.41477C5.99242 6.76136 6.49905 6.6572 6.93466 6.44886C7.375 6.24053 7.71828 5.94697 7.96449 5.56818C8.21544 5.18939 8.34091 4.74432 8.34091 4.23295C8.34091 3.74053 8.23201 3.31203 8.0142 2.94744C7.7964 2.58286 7.48864 2.29877 7.09091 2.09517C6.69792 1.89157 6.2339 1.78977 5.69886 1.78977C5.19697 1.78977 4.72349 1.8821 4.27841 2.06676C3.83807 2.24669 3.47822 2.50947 3.19886 2.85511C2.91951 3.19602 2.76799 3.60795 2.74432 4.09091H1.03977C1.06818 3.3286 1.29782 2.66098 1.72869 2.08807C2.15956 1.51042 2.72301 1.06061 3.41903 0.738636C4.11979 0.416666 4.8892 0.255681 5.72727 0.255681C6.62689 0.255681 7.39867 0.437973 8.04261 0.802556C8.68655 1.1624 9.18134 1.63826 9.52699 2.23011C9.87263 2.82197 10.0455 3.46117 10.0455 4.14773C10.0455 4.96686 9.83002 5.66525 9.39915 6.2429C8.97301 6.82055 8.39299 7.22064 7.65909 7.44318V7.55682C8.57765 7.70833 9.29498 8.09896 9.81108 8.72869C10.3272 9.35369 10.5852 10.1278 10.5852 11.0511C10.5852 11.8419 10.3698 12.5521 9.93892 13.1818C9.51278 13.8068 8.9304 14.2992 8.19176 14.6591C7.45313 15.0189 6.61269 15.1989 5.67045 15.1989Z" fill="#020202"/>
</svg>
