<svg width="11" height="16" viewBox="0 0 11 16" fill="none" xmlns="http://www.w3.org/2000/svg">
<path d="M5.30114 15.1989C4.4678 15.1989 3.71733 15.0331 3.04972 14.7017C2.3821 14.3703 1.84706 13.9157 1.4446 13.3381C1.04214 12.7604 0.82197 12.1023 0.784091 11.3636H2.48864C2.55492 12.0218 2.85322 12.5663 3.38352 12.9972C3.91856 13.4233 4.55777 13.6364 5.30114 13.6364C5.89773 13.6364 6.42803 13.4967 6.89205 13.2173C7.3608 12.938 7.72775 12.5545 7.9929 12.0668C8.26278 11.5743 8.39773 11.018 8.39773 10.3977C8.39773 9.76326 8.25805 9.19744 7.97869 8.70028C7.70407 8.19839 7.32528 7.80303 6.84233 7.5142C6.35938 7.22538 5.80777 7.0786 5.1875 7.07386C4.74242 7.06913 4.28551 7.13778 3.81676 7.27983C3.34801 7.41714 2.96212 7.5947 2.65909 7.8125L1.01136 7.61364L1.89205 0.454545H9.44886V2.01705H3.36932L2.85795 6.30682H2.94318C3.24148 6.07008 3.61553 5.87358 4.06534 5.71733C4.51515 5.56108 4.9839 5.48295 5.47159 5.48295C6.36174 5.48295 7.15483 5.69602 7.85085 6.12216C8.55161 6.54356 9.10085 7.12121 9.49858 7.85511C9.90104 8.58901 10.1023 9.42708 10.1023 10.3693C10.1023 11.2973 9.89394 12.1259 9.47727 12.8551C9.06534 13.5795 8.49716 14.1525 7.77273 14.5739C7.0483 14.9905 6.22443 15.1989 5.30114 15.1989Z" fill="#020202"/>
</svg>
