<svg width="11" height="16" viewBox="0 0 11 16" fill="none" xmlns="http://www.w3.org/2000/svg">
<path d="M5.58523 15.1989C4.98864 15.1894 4.39205 15.0758 3.79545 14.858C3.19886 14.6402 2.65436 14.2732 2.16193 13.7571C1.66951 13.2363 1.27415 12.5331 0.975852 11.6477C0.677557 10.7576 0.528409 9.64015 0.528409 8.29545C0.528409 7.00758 0.649148 5.86648 0.890625 4.87216C1.1321 3.87311 1.48248 3.03267 1.94176 2.35085C2.40104 1.6643 2.95502 1.14347 3.60369 0.788351C4.2571 0.433238 4.99337 0.255681 5.8125 0.255681C6.62689 0.255681 7.35133 0.419034 7.9858 0.745739C8.625 1.06771 9.14583 1.51752 9.5483 2.09517C9.95076 2.67282 10.2112 3.33807 10.3295 4.09091H8.59659C8.43561 3.4375 8.12311 2.89536 7.65909 2.46449C7.19508 2.03362 6.57955 1.81818 5.8125 1.81818C4.68561 1.81818 3.79782 2.30824 3.14915 3.28835C2.50521 4.26847 2.18087 5.64394 2.17614 7.41477H2.28977C2.55492 7.01231 2.86979 6.66903 3.23438 6.38494C3.60369 6.09612 4.01089 5.87358 4.45597 5.71733C4.90104 5.56108 5.37216 5.48295 5.86932 5.48295C6.70265 5.48295 7.46496 5.69129 8.15625 6.10795C8.84754 6.51989 9.40152 7.09044 9.81818 7.8196C10.2348 8.54403 10.4432 9.375 10.4432 10.3125C10.4432 11.2121 10.242 12.036 9.83949 12.7841C9.43703 13.5275 8.87121 14.1193 8.14205 14.5597C7.41761 14.9953 6.56534 15.2083 5.58523 15.1989ZM5.58523 13.6364C6.18182 13.6364 6.71686 13.4872 7.19034 13.1889C7.66856 12.8906 8.04498 12.4905 8.3196 11.9886C8.59896 11.4867 8.73864 10.928 8.73864 10.3125C8.73864 9.71117 8.60369 9.1643 8.33381 8.67188C8.06866 8.17472 7.7017 7.77936 7.23295 7.4858C6.76894 7.19223 6.23864 7.04545 5.64205 7.04545C5.19224 7.04545 4.7732 7.13542 4.38494 7.31534C3.99669 7.49053 3.65578 7.73201 3.36222 8.03977C3.07339 8.34754 2.84612 8.70028 2.6804 9.09801C2.51468 9.491 2.43182 9.9053 2.43182 10.3409C2.43182 10.9186 2.56676 11.4583 2.83665 11.9602C3.11127 12.4621 3.48532 12.867 3.95881 13.1747C4.43703 13.4825 4.97917 13.6364 5.58523 13.6364Z" fill="#020202"/>
</svg>
