<svg width="11" height="16" viewBox="0 0 11 16" fill="none" xmlns="http://www.w3.org/2000/svg">
<path d="M5.41477 15.1989C4.43939 15.1989 3.57765 15.026 2.82955 14.6804C2.08617 14.33 1.50616 13.8494 1.08949 13.2386C0.672822 12.6231 0.466856 11.9223 0.471591 11.1364C0.466856 10.5208 0.587595 9.95265 0.833807 9.43182C1.08002 8.90625 1.41619 8.46828 1.84233 8.1179C2.2732 7.76278 2.75379 7.53788 3.28409 7.44318V7.35795C2.58807 7.17803 2.03409 6.78741 1.62216 6.18608C1.21023 5.58002 1.00663 4.8911 1.01136 4.11932C1.00663 3.38068 1.19366 2.72017 1.57244 2.13778C1.95123 1.5554 2.47206 1.09612 3.13494 0.759943C3.80256 0.423768 4.5625 0.255681 5.41477 0.255681C6.25758 0.255681 7.01042 0.423768 7.6733 0.759943C8.33617 1.09612 8.85701 1.5554 9.2358 2.13778C9.61932 2.72017 9.81345 3.38068 9.81818 4.11932C9.81345 4.8911 9.60275 5.58002 9.18608 6.18608C8.77415 6.78741 8.22727 7.17803 7.54545 7.35795V7.44318C8.07102 7.53788 8.54451 7.76278 8.96591 8.1179C9.38731 8.46828 9.72348 8.90625 9.97443 9.43182C10.2254 9.95265 10.3532 10.5208 10.358 11.1364C10.3532 11.9223 10.1402 12.6231 9.71875 13.2386C9.30208 13.8494 8.72206 14.33 7.97869 14.6804C7.24006 15.026 6.38542 15.1989 5.41477 15.1989ZM5.41477 13.6364C6.07292 13.6364 6.6411 13.5298 7.11932 13.3168C7.59754 13.1037 7.96686 12.803 8.22727 12.4148C8.48769 12.0265 8.62027 11.572 8.625 11.0511C8.62027 10.5019 8.47822 10.0166 8.19886 9.59517C7.91951 9.17377 7.53835 8.84233 7.0554 8.60085C6.57718 8.35937 6.0303 8.23864 5.41477 8.23864C4.79451 8.23864 4.24053 8.35937 3.75284 8.60085C3.26989 8.84233 2.88873 9.17377 2.60938 9.59517C2.33475 10.0166 2.19981 10.5019 2.20455 11.0511C2.19981 11.572 2.32528 12.0265 2.58097 12.4148C2.84138 12.803 3.21307 13.1037 3.69602 13.3168C4.17898 13.5298 4.75189 13.6364 5.41477 13.6364ZM5.41477 6.73295C5.93561 6.73295 6.39725 6.62879 6.79972 6.42045C7.20691 6.21212 7.52652 5.92093 7.75852 5.54688C7.99053 5.17282 8.1089 4.73485 8.11364 4.23295C8.1089 3.74053 7.9929 3.31203 7.76562 2.94744C7.53835 2.57812 7.22349 2.29403 6.82102 2.09517C6.41856 1.89157 5.94981 1.78977 5.41477 1.78977C4.87027 1.78977 4.39441 1.89157 3.98722 2.09517C3.58002 2.29403 3.26515 2.57812 3.04261 2.94744C2.82008 3.31203 2.71117 3.74053 2.71591 4.23295C2.71117 4.73485 2.82244 5.17282 3.04972 5.54688C3.28172 5.92093 3.60133 6.21212 4.00852 6.42045C4.41572 6.62879 4.88447 6.73295 5.41477 6.73295Z" fill="#020202"/>
</svg>
