<svg width="11" height="16" viewBox="0 0 11 16" fill="none" xmlns="http://www.w3.org/2000/svg">
<path d="M5.38636 0.255681C5.98295 0.260416 6.57955 0.374053 7.17614 0.59659C7.77273 0.819128 8.31724 1.18845 8.80966 1.70455C9.30208 2.21591 9.69744 2.9143 9.99574 3.79972C10.294 4.68513 10.4432 5.79545 10.4432 7.13068C10.4432 8.4233 10.3201 9.5715 10.0739 10.5753C9.83239 11.5743 9.48201 12.4171 9.02273 13.1037C8.56818 13.7902 8.0142 14.3111 7.3608 14.6662C6.71212 15.0213 5.97822 15.1989 5.15909 15.1989C4.3447 15.1989 3.6179 15.0379 2.97869 14.7159C2.34422 14.3892 1.82339 13.937 1.41619 13.3594C1.01373 12.777 0.755682 12.1023 0.642045 11.3352H2.375C2.53125 12.0028 2.84138 12.5545 3.3054 12.9901C3.77415 13.4209 4.39205 13.6364 5.15909 13.6364C6.28125 13.6364 7.16667 13.1463 7.81534 12.1662C8.46875 11.1861 8.79545 9.80114 8.79545 8.01136H8.68182C8.41667 8.40909 8.1018 8.75237 7.73722 9.04119C7.37263 9.33002 6.9678 9.55256 6.52273 9.70881C6.07765 9.86506 5.60417 9.94318 5.10227 9.94318C4.26894 9.94318 3.50426 9.73722 2.80824 9.32528C2.11695 8.90862 1.56297 8.33807 1.14631 7.61364C0.734375 6.88447 0.528409 6.05114 0.528409 5.11364C0.528409 4.22348 0.727273 3.40909 1.125 2.67045C1.52746 1.92708 2.09091 1.33523 2.81534 0.894886C3.54451 0.454545 4.40152 0.241477 5.38636 0.255681ZM5.38636 1.81818C4.78977 1.81818 4.25237 1.96733 3.77415 2.26562C3.30066 2.55919 2.92424 2.95691 2.64489 3.45881C2.37027 3.95597 2.23295 4.50758 2.23295 5.11364C2.23295 5.7197 2.36553 6.27131 2.63068 6.76847C2.90057 7.26089 3.26752 7.65388 3.73153 7.94744C4.20028 8.23627 4.73295 8.38068 5.32955 8.38068C5.77936 8.38068 6.19839 8.29309 6.58665 8.1179C6.97491 7.93797 7.31345 7.69413 7.60227 7.38636C7.89583 7.07386 8.12547 6.72112 8.29119 6.32812C8.45691 5.9304 8.53977 5.5161 8.53977 5.08523C8.53977 4.51704 8.40246 3.98437 8.12784 3.48722C7.85795 2.99006 7.4839 2.58759 7.00568 2.27983C6.5322 1.97206 5.99242 1.81818 5.38636 1.81818Z" fill="#020202"/>
</svg>
