<svg width="637" height="495" viewBox="0 0 637 495" fill="none" xmlns="http://www.w3.org/2000/svg">
<mask id="path-1-inside-1_3_48" fill="white">
<path d="M340 85H637V489H340V85Z"/>
</mask>
<path d="M340 85H637V489H340V85Z" fill="#ED1D21"/>
<path d="M340 489H340.5V85H340H339.5V489H340Z" fill="black" mask="url(#path-1-inside-1_3_48)"/>
<rect width="340" height="495" rx="15" fill="#ED1D21"/>
<path d="M331 446V456" stroke="black" stroke-width="0.5"/>
<path d="M336 447V457" stroke="black" stroke-width="0.5"/>
<path d="M314 459C314.51 458 316.345 456 319.608 456C322.871 456 326.065 456 327.255 456H331.843C333.542 456 337.553 456.6 340 459" stroke="black" stroke-width="0.5"/>
<path d="M314 449C314.51 448 316.345 446 319.608 446C322.871 446 326.065 446 327.255 446H331.843C333.542 446 337.553 446.6 340 449" stroke="black" stroke-width="0.5"/>
<rect x="53" y="392" width="122" height="62" rx="7" fill="#55AB62"/>
<path d="M163 295C163 292.239 165.239 290 168 290H206C208.761 290 211 292.239 211 295C211 297.761 208.761 300 206 300H168C165.239 300 163 297.761 163 295Z" fill="#075375"/>
<path d="M98 295C98 292.239 100.239 290 103 290H141C143.761 290 146 292.239 146 295C146 297.761 143.761 300 141 300H103C100.239 300 98 297.761 98 295Z" fill="#C70D0F"/>
<path d="M67 17C83.5535 17 97 30.6402 97 47.5C97 64.3598 83.5535 78 67 78C50.4465 78 37 64.3598 37 47.5C37 30.6402 50.4465 17 67 17Z" fill="#D9D9D9" stroke="black" stroke-width="2"/>
<path d="M15.1042 16.5C15.1042 7.3 21.7014 1.66667 25 0H14.0625C4.0625 0 0.520834 9.33333 0 14L0.520834 145V322.5V482C0.520834 490.8 9.89584 494.333 14.5833 495H23.9583C16.4583 495 14.9306 486 15.1042 481.5V460V338V238V92.5V16.5Z" fill="#A71B1B"/>
<path d="M229.886 34.4251H314V22H306.906H231.406C223.704 22 220.765 23.6567 220.258 24.485L194.416 43.3713L164.52 65.2395L138.171 82.6347C130.469 88.5988 117.396 91.7465 111.822 92.5749H12V105H111.315C126.314 105 140.536 97.3792 145.772 93.5689L220.765 36.4132C222.387 34.8228 227.521 34.4251 229.886 34.4251Z" fill="#A71B1B"/>
<path d="M173.46 123H46.8257C41.7034 123 39.4743 125.734 39 127.101V236.259L78.1286 262H279.463C284.585 262 287.289 258.724 288 257.086V128.148C288 125.153 283.731 123.468 281.597 123H173.46Z" fill="#DEDEDE"/>
<path d="M35 123H46C41.2 123 39.3333 125.667 39 127V197.5V236L54.5 246.5L78 262H280C284 262 287 258.667 288 257V262C288 266 285.667 267 284.5 267H256H183.5H124H78L32 237V236V234V127C32 124.6 34 123.333 35 123Z" fill="#696A72"/>
<path d="M263.222 141H66.7778C62.7333 141 61.2407 143.681 61 145.021V232.476L67.5 237H263.222C267.267 237 268.759 235.325 269 234.487V145.524C269 143.111 265.148 141.503 263.222 141Z" fill="#F1F2D3"/>
<path d="M67 26C78.5769 26 88 35.6046 88 47.5C88 59.3954 78.5769 69 67 69C55.4231 69 46 59.3954 46 47.5C46 35.6046 55.4231 26 67 26Z" fill="#D9D9D9" stroke="black" stroke-width="2"/>
<ellipse cx="67" cy="47.5" rx="20" ry="20.5" fill="#2D449A"/>
<ellipse cx="63.4966" cy="43.5898" rx="18.5235" ry="14.7767" transform="rotate(-46.0077 63.4966 43.5898)" fill="#4E65AC"/>
<circle cx="59" cy="44" r="8" fill="#C9C9E1"/>
<path d="M314 22C314.549 21 316.525 19 320.039 19C323.553 19 326.993 19 328.275 19H333.216C335.046 19 339.365 19.6 342 22" stroke="black" stroke-width="0.5"/>
<path d="M314 93V22" stroke="black" stroke-width="0.5"/>
<circle cx="57" cy="298" r="21" fill="#050305"/>
<ellipse cx="59.5" cy="295" rx="17.5" ry="18" fill="#222222"/>
<path d="M23.0515 495C15.8514 495 14.7181 486.333 15.0514 482H305.053H314.053C312.853 484 312.887 486.5 313.053 487.5C315.453 492.7 322.684 494.667 326 495H23.0515Z" fill="#A71B1B"/>
<path d="M231 332C231 330.4 236.333 327.333 239 326H255.5C257.9 326 258.5 329 258.5 330.5L257.5 351.5C257.1 354.7 259.333 354.833 260.5 354.5L280 353.5C284.4 352.7 285.833 354.833 286 356V372.5L282 379L259.5 379.5L258.5 400L253.5 406.5H232.5L230 404V387C230 383 228.333 381.667 227.5 381.5H208.5C206.5 381.5 205.333 379.5 205 378.5V359C205 355.8 207.667 354 209 353.5L231 353V332Z" fill="#070E0F"/>
<path d="M240 326H256C257.167 326.166 259.4 327.396 259 330.987L258 351.432C257.833 352.429 258.2 354.424 261 354.424L236.377 355.789C235.537 356.047 234.657 356.039 234 355.92L236.377 355.789C237.88 355.325 239.257 354.005 239 350.933L237 329.989C237 328.66 237.6 326 240 326Z" fill="#262626"/>
<path d="M260.5 354.5L282 353.5C283.5 353.5 286.5 354.2 286.5 357V372C286.5 373.167 285.6 375.5 282 375.5L262 374C260.797 374 258.508 374.489 258.072 376.348L258 377C258 376.766 258.025 376.549 258.072 376.348L260.5 354.5Z" fill="#262626"/>
<path d="M259 397C259.5 398.667 259.2 402 254 402H241.5C239.833 402 236.6 401 237 397L239 376.5C238.865 375.557 238.099 373.918 236.122 373.535L234.5 373.5C235.114 373.423 235.652 373.443 236.122 373.535L258 374L259 397Z" fill="#262626"/>
<path d="M214 375L237.5 373.5L234 356L216 354C211.6 353.6 210.167 356.5 210 358V370.5C210 374.1 212.667 375 214 375Z" fill="#262626"/>
<path d="M246.925 355.85C246.925 356.073 247.221 356.889 247.559 358.085C247.651 358.412 247.634 358.685 247.69 359.186C247.791 360.088 247.894 361.292 248.155 364.165C248.359 366.402 248.195 370.253 248.084 372.472C247.947 375.185 247.597 375.889 247.486 376.243C247.435 376.408 247.154 376.413 246.966 376.284C246.057 375.662 246.404 374.402 246.384 373.246C246.375 372.684 246.81 371.829 247.72 370.453C248.952 368.592 250.059 367.459 250.282 366.975C250.388 366.746 250.506 366.565 250.563 364.844C250.62 363.123 250.62 359.872 250.565 358.123C250.504 356.22 250.284 355.963 250.45 355.758C251.183 354.855 252.409 355.588 252.876 355.682C253.742 355.855 254.76 356.036 255.58 356.129C255.769 356.185 255.88 356.296 256.029 356.353C256.179 356.41 256.364 356.41 256.554 356.41" stroke="#262626" stroke-width="5" stroke-linecap="round"/>
<path d="M256.43 356.804C256.508 356.833 256.664 356.814 256.795 356.751C256.89 356.705 256.986 356.707 257.054 356.687C257.14 356.663 257.702 356.658 258.492 356.668C258.891 356.672 259.062 356.746 259.16 356.818C259.287 356.913 259.491 356.882 259.686 356.916C260.138 356.996 260.262 356.989 260.432 357.096C260.582 357.19 260.613 357.291 260.657 357.374C260.841 357.719 260.273 358.1 259.929 358.473C259.708 358.712 259.439 359.088 259.227 359.427C259.016 359.765 258.88 360.064 258.782 360.363C258.683 360.662 258.625 360.952 258.567 361.183C258.508 361.414 258.45 361.579 258.377 361.9C258.303 362.221 258.216 362.694 258.167 363.029C258.09 363.545 258.059 363.872 257.996 364.313C257.952 364.617 257.961 365.092 257.937 365.442C257.913 365.792 257.874 366.004 257.854 366.34C257.834 366.677 257.834 367.13 257.854 367.427C257.873 367.723 257.912 367.849 257.931 368.15C257.951 368.451 257.951 368.924 257.947 369.201C257.938 369.694 257.864 369.985 257.83 370.259C257.799 370.502 257.747 370.659 257.713 370.912C257.682 371.136 257.63 371.351 257.596 371.604C257.564 371.837 257.533 372.131 257.508 372.326C257.488 372.483 257.445 372.599 257.376 372.794C257.324 372.944 257.289 373.086 257.177 373.248C257.148 373.289 257.075 373.272 256.997 373.239C256.812 373.159 256.655 372.952 256.505 372.714C256.193 372.221 255.818 372.035 255.502 371.918C255.335 371.856 255.137 371.84 253.884 371.825C252.632 371.81 250.324 371.81 249.068 371.795C247.812 371.781 247.677 371.752 247.574 371.713C247.47 371.674 247.403 371.626 247.358 371.572C247.276 371.473 247.275 371.13 247.294 370.547C247.304 370.233 247.352 369.886 247.507 369.413C247.662 368.94 247.932 368.351 248.197 367.869C248.462 367.387 248.713 367.03 248.977 366.691C249.242 366.353 249.512 366.044 249.81 365.759C250.109 365.475 250.427 365.224 250.717 365.037C251.007 364.849 251.258 364.734 251.479 364.587C251.909 364.302 252.255 364.001 252.63 363.835C252.819 363.752 253.014 363.689 253.321 363.534C253.628 363.378 254.043 363.137 254.358 362.926C254.673 362.715 254.876 362.541 255.038 362.36C255.201 362.178 255.316 361.995 255.429 361.746C255.542 361.497 255.648 361.188 255.698 360.609C255.748 360.03 255.738 359.19 255.69 358.642C255.62 357.853 255.388 357.517 255.247 357.443C255.183 357.41 255.135 357.649 255.061 360.205C254.988 362.761 254.892 367.693 254.818 370.321C254.744 372.949 254.696 373.123 254.661 373.28C254.627 373.437 254.607 373.572 254.583 373.675C254.559 373.779 254.53 373.846 254.51 372.959C254.49 372.072 254.48 370.229 254.437 369.144C254.393 368.059 254.316 367.788 254.243 367.591C254.122 367.27 254.012 367.111 253.94 367.038C253.898 366.996 253.799 367.013 253.673 367.042C253.546 367.071 253.382 367.129 253.08 367.458C252.778 367.787 252.344 368.385 252.038 368.843C251.732 369.301 251.568 369.6 251.402 370.073C251.235 370.546 251.071 371.183 250.986 371.622C250.86 372.277 250.921 372.541 250.97 372.594C251.1 372.738 251.379 372.755 251.637 372.892C251.825 372.991 251.944 373.406 252.062 373.793C252.158 374.108 252.179 374.412 252.33 374.758C252.491 374.92 252.627 374.998 252.885 375.052C252.997 375.057 253.161 375.057 253.33 375.057" stroke="#262626" stroke-width="5" stroke-linecap="round"/>
<path d="M232.708 361.426C232.727 361.174 232.824 360.764 232.878 360.525C232.946 360.224 232.942 359.907 232.966 359.696C232.983 359.551 233.078 359.418 233.098 359.291C233.121 359.14 233.224 358.96 233.297 358.828C233.331 358.767 233.4 358.735 233.448 358.681C233.592 358.523 233.926 358.598 234.058 358.574C234.141 358.559 234.663 358.501 235.428 358.496C235.838 358.493 236.013 358.433 236.197 358.389C236.532 358.309 236.772 358.296 236.949 358.272C237.075 358.254 237.212 358.199 237.353 358.155C237.472 358.118 237.631 358.091 237.913 358.009C238.217 357.92 238.527 357.857 238.772 357.809C238.896 357.784 239.064 357.77 239.263 357.726C239.468 357.681 239.717 357.692 240.404 357.662C240.956 357.639 241.922 357.652 242.477 357.638C243.149 357.62 243.354 357.555 243.529 357.54C243.862 357.513 244.192 357.409 244.505 357.38C244.671 357.364 244.914 357.331 245.056 357.418C245.131 357.463 244.86 357.678 244.578 357.898C244.295 358.118 243.919 358.378 243.507 358.619C243.096 358.859 242.662 359.072 241.816 359.379C240.969 359.686 239.724 360.082 238.764 360.436C237.804 360.789 237.167 361.088 236.814 361.247C236.418 361.426 236.21 361.513 235.913 361.693C235.632 361.863 235.487 362.03 235.443 362.171C235.375 362.388 235.457 362.595 235.578 362.731C235.779 362.957 236.158 363.083 236.643 363.262C236.95 363.376 237.398 363.49 237.666 363.56C238.008 363.649 238.119 363.678 238.168 363.736C238.209 363.786 238.207 364.046 238.183 364.455C238.163 364.794 237.906 365.168 237.537 365.668C237.094 366.269 236.735 366.632 236.672 366.787C236.583 367.006 236.501 367.284 236.467 367.519C236.394 368.014 236.413 368.679 236.432 368.826C236.455 368.997 236.52 369.147 236.608 369.347C236.696 369.547 236.734 369.674 236.754 369.796C236.784 369.98 236.842 370.191 236.871 370.342C236.897 370.475 236.988 370.581 237.09 370.776C237.171 370.929 237.242 371.02 237.285 371.156C237.342 371.333 237.592 371.342 237.917 371.39C238.457 371.471 238.86 371.381 239.203 371.352C239.507 371.326 240.077 371.342 240.414 371.356C240.84 371.375 241.014 371.43 241.189 371.439C241.366 371.449 241.531 371.517 242.034 371.561C242.459 371.598 243.232 371.576 243.674 371.547C244.115 371.518 244.202 371.46 244.266 371.411C244.532 371.207 244.681 370.758 244.788 370.153C244.868 369.694 244.952 368.92 245.002 367.335C245.052 365.75 245.052 363.375 245.032 362.137C245.013 360.9 244.974 360.871 244.945 360.841C244.891 360.788 244.558 360.753 243.925 360.821C243.606 360.855 243.312 361.023 243.038 361.214C242.763 361.404 242.521 361.645 242.334 361.861C242.147 362.077 242.022 362.261 241.846 362.688C241.671 363.116 241.449 363.782 241.329 364.173C241.182 364.656 241.104 365.021 240.967 365.455C240.89 365.7 240.869 365.861 240.825 366.123C240.747 366.591 240.888 366.983 241.072 367.216C241.336 367.549 241.56 367.87 241.798 368.059C242.063 368.27 242.485 368.339 242.889 368.334C243.053 368.332 243.129 368.281 243.208 368.121C243.286 367.961 243.363 367.681 243.403 367.402C243.481 366.857 243.366 366.381 243.229 366.059C243.174 365.929 243.132 365.873 243.092 365.824C243.019 365.732 242.589 365.725 241.864 365.818C241.23 365.898 240.821 366.173 240.597 366.344C240.378 366.51 240.343 366.768 240.303 366.929C240.266 367.084 240.274 367.217 240.347 367.46C240.441 367.773 240.605 367.996 240.674 368.289C240.8 368.679 240.927 368.904 241.005 368.977C241.053 369.002 241.121 369.002 241.191 369.002" stroke="#262626" stroke-width="5" stroke-linecap="round"/>
<path d="M248 359.25C251.746 359.25 254.75 362.065 254.75 365.5C254.75 368.935 251.746 371.75 248 371.75C244.254 371.75 241.25 368.935 241.25 365.5C241.25 362.065 244.254 359.25 248 359.25Z" fill="#232323" stroke="#070E0F" stroke-width="0.5"/>
<path d="M314 93V482.5" stroke="black" stroke-width="0.5"/>
<path d="M500 335C500 333.895 500.895 333 502 333H536C537.105 333 538 333.895 538 335V338C538 339.105 537.105 340 536 340H502C500.895 340 500 339.105 500 338V335Z" fill="#323130"/>
<path d="M544 335C544 333.895 544.895 333 546 333H580C581.105 333 582 333.895 582 335V338C582 339.105 581.105 340 580 340H546C544.895 340 544 339.105 544 338V335Z" fill="#323130"/>
<mask id="path-38-inside-2_3_48" fill="white">
<path d="M416.091 318.053L376 318.027C374.895 318.027 374 317.131 374.001 316.026L374.02 289.675L416.111 289.702L416.091 318.053Z"/>
</mask>
<path d="M416.091 318.053L376 318.027C374.895 318.027 374 317.131 374.001 316.026L374.02 289.675L416.111 289.702L416.091 318.053Z" fill="#31A7F1"/>
<path d="M416.091 318.053L374 318.026L416.091 318.053ZM374.02 289.675L416.111 289.702L374.02 289.675ZM416.611 289.703L416.591 318.053L415.591 318.053L415.611 289.702L416.611 289.703ZM374 318.026L374.02 289.675L374 318.026Z" fill="black" mask="url(#path-38-inside-2_3_48)"/>
<mask id="path-40-inside-3_3_48" fill="white">
<path d="M374 264C374 262.895 374.895 262 376 262H416V290H374V264Z"/>
</mask>
<path d="M374 264C374 262.895 374.895 262 376 262H416V290H374V264Z" fill="#31A7F1"/>
<path d="M374 262H416H374ZM416.5 290.5H374V289.5H415.5L416.5 290.5ZM374 290V262V290ZM416.5 262V290.5L415.5 289.5V262H416.5Z" fill="black" mask="url(#path-40-inside-3_3_48)"/>
<mask id="path-42-inside-4_3_48" fill="white">
<path d="M416 262H458V290H416V262Z"/>
</mask>
<path d="M416 262H458V290H416V262Z" fill="#31A7F1"/>
<path d="M458 290V290.5H458.5V290H458ZM458 262H457.5V290H458H458.5V262H458ZM458 290V289.5H416V290V290.5H458V290Z" fill="black" mask="url(#path-42-inside-4_3_48)"/>
<mask id="path-44-inside-5_3_48" fill="white">
<path d="M458 262H500V290H458V262Z"/>
</mask>
<path d="M458 262H500V290H458V262Z" fill="#31A7F1"/>
<path d="M500 290V290.5H500.5V290H500ZM500 262H499.5V290H500H500.5V262H500ZM500 290V289.5H458V290V290.5H500V290Z" fill="black" mask="url(#path-44-inside-5_3_48)"/>
<mask id="path-46-inside-6_3_48" fill="white">
<path d="M500 262H542V290H500V262Z"/>
</mask>
<path d="M500 262H542V290H500V262Z" fill="#31A7F1"/>
<path d="M542 290V290.5H542.5V290H542ZM542 262H541.5V290H542H542.5V262H542ZM542 290V289.5H500V290V290.5H542V290Z" fill="black" mask="url(#path-46-inside-6_3_48)"/>
<mask id="path-48-inside-7_3_48" fill="white">
<path d="M542 262H582C583.105 262 584 262.895 584 264V290H542V262Z"/>
</mask>
<path d="M542 262H582C583.105 262 584 262.895 584 264V290H542V262Z" fill="#31A7F1"/>
<path d="M542 262H584H542ZM584 290.5H542V289.5H584V290.5ZM542 290V262V290ZM584 262V290V262Z" fill="black" mask="url(#path-48-inside-7_3_48)"/>
<mask id="path-50-inside-8_3_48" fill="white">
<path d="M458 290H500V318H458V290Z"/>
</mask>
<path d="M458 290H500V318H458V290Z" fill="#31A7F1"/>
<path d="M500 318V318.5H500.5V318H500ZM500 290H499.5V318H500H500.5V290H500ZM500 318V317.5H458V318V318.5H500V318Z" fill="black" mask="url(#path-50-inside-8_3_48)"/>
<mask id="path-52-inside-9_3_48" fill="white">
<path d="M500 290H542V318H500V290Z"/>
</mask>
<path d="M500 290H542V318H500V290Z" fill="#31A7F1"/>
<path d="M542 318V318.5H542.5V318H542ZM542 290H541.5V318H542H542.5V290H542ZM542 318V317.5H500V318V318.5H542V318Z" fill="black" mask="url(#path-52-inside-9_3_48)"/>
<mask id="path-54-inside-10_3_48" fill="white">
<path d="M542 290H584V316C584 317.105 583.105 318 582 318H542V290Z"/>
</mask>
<path d="M542 290H584V316C584 317.105 583.105 318 582 318H542V290Z" fill="#31A7F1"/>
<path d="M542 290H584H542ZM584 316C584 317.381 582.881 318.5 581.5 318.5H542V317.5H582C583.105 317.5 584 316.828 584 316ZM542 318V290V318ZM584 290V318V290Z" fill="black" mask="url(#path-54-inside-10_3_48)"/>
<mask id="path-56-inside-11_3_48" fill="white">
<path d="M416 290H458V318H416V290Z"/>
</mask>
<path d="M416 290H458V318H416V290Z" fill="#31A7F1"/>
<path d="M458 290H457.5V318H458H458.5V290H458Z" fill="black" mask="url(#path-56-inside-11_3_48)"/>
<path d="M372.655 262H376.903C375.204 262 374.779 263.467 374.779 264.201V312.642C374.779 316.575 376.794 317.231 377.802 317.067H580.814C582.938 317.067 583.823 315.756 584 315.1C584 319.82 581.876 321 580.814 321H376.372C372.124 321 370.354 318.378 370 317.067V267.408C370 263.475 371.77 262.164 372.655 262Z" fill="#1B67E9"/>
<circle cx="558.5" cy="387.5" r="8.5" fill="#908337"/>
<mask id="path-60-inside-12_3_48" fill="white">
<path d="M414 361H454C455.105 361 456 361.895 456 363V389C456 390.105 455.105 391 454 391H414V361Z"/>
</mask>
<path d="M414 361H454C455.105 361 456 361.895 456 363V389C456 390.105 455.105 391 454 391H414V361Z" fill="#D9D9D9"/>
<path d="M414 361H456H414ZM456 391H414H456ZM413.5 391V361H414.5V391H413.5ZM456 361V391V361Z" fill="black" mask="url(#path-60-inside-12_3_48)"/>
<path d="M414 361H376C374.895 361 374 361.895 374 363V389C374 390.105 374.895 391 376 391H414V361Z" fill="#D9D9D9"/>
<path d="M372 364.529C372 361.329 374.667 360.863 376 361.029C374.8 361.029 374.5 362.363 374.5 363.029V388.029C374.5 390.829 375.833 391.196 376.5 391.029H452C454.466 391.029 455.309 390.237 455.489 389.569C455.496 389.396 455.5 389.216 455.5 389.029C455.538 389.182 455.543 389.37 455.489 389.569C455.363 392.72 454.132 393.529 453.5 393.529H376.5C372.9 393.529 372 392.529 372 392.029V364.529Z" fill="#676A71"/>
<rect x="605" y="107" width="11" height="365" fill="#A71B1B"/>
<ellipse cx="15.5" cy="8.5" rx="15.5" ry="8.5" transform="matrix(1 0 0 -1 312 495)" fill="#721212"/>
<path d="M314 46C314.549 45 316.525 43 320.039 43C323.553 43 326.993 43 328.275 43H333.216C335.046 43 339.365 43.6 342 46" stroke="black" stroke-width="0.5"/>
<path d="M314 55C314.549 54 316.525 52 320.039 52C323.553 52 326.993 52 328.275 52H333.216C335.046 52 339.365 52.6 342 55" stroke="black" stroke-width="0.5"/>
<path d="M332 43V52" stroke="black" stroke-width="0.5"/>
<path d="M336 43V52" stroke="black" stroke-width="0.5"/>
<path d="M442 40C442 29.5066 433.493 21 423 21H340V85H442V40Z" fill="#ED1D21"/>
<path d="M442 21H340H442ZM340 85H442H340ZM442 85V21V85ZM339.75 21V85H340.25V21H339.75Z" fill="black"/>
<path d="M609.84 470.992C609.84 471.083 609.84 471.216 609.823 471.402C609.804 471.615 609.728 471.736 609.702 471.766C609.641 471.838 609.443 471.912 609.315 471.953C609.296 471.959 609.282 471.973 609.172 471.979C609.062 471.985 608.857 471.985 608.746 471.99C608.635 471.994 608.623 472.003 608.166 472.008C607.709 472.012 606.807 472.012 606.331 472.014C605.854 472.015 605.83 472.018 605.81 472.02C605.732 472.026 605.636 472.049 605.543 472.064C605.417 472.085 605.32 472.073 605.296 472.084C605.283 472.088 605.271 472.091 605.265 472.115C605.259 472.14 605.259 472.185 605.259 472.231" stroke="#A71B1B" stroke-width="0.5" stroke-linecap="round"/>
<path d="M605.441 472.231C605.531 472.231 605.596 472.231 605.733 472.213C605.852 472.197 606.071 472.159 606.204 472.133C606.336 472.107 606.375 472.092 606.929 472.076C607.482 472.061 608.549 472.046 609.112 472.04C609.676 472.034 609.703 472.037 609.751 472.04C609.8 472.043 609.869 472.046 609.933 472.053C609.997 472.061 610.054 472.073 610.25 472.079C610.447 472.085 610.78 472.085 610.981 472.088C611.181 472.091 611.238 472.097 611.301 472.1C611.429 472.107 611.548 472.119 611.675 472.141C611.75 472.155 611.85 472.149 611.926 472.155C612.001 472.161 612.049 472.173 612.225 472.181C612.402 472.189 612.705 472.192 612.899 472.186C613.093 472.18 613.168 472.165 613.221 472.157C613.273 472.149 613.3 472.149 613.377 472.139C613.454 472.128 613.58 472.107 613.686 472.096C613.872 472.077 613.974 472.079 614.009 472.069C614.086 472.049 614.193 472.031 614.265 472.029C614.293 472.028 614.302 472.025 614.33 472.003" stroke="#A71B1B" stroke-width="0.5" stroke-linecap="round"/>
<path d="M614.147 472.076C614.196 472.076 614.293 472.046 614.605 472.032C614.666 472.029 614.675 472.037 614.836 472.038C614.997 472.04 615.31 472.04 615.477 472.041C615.656 472.043 615.683 472.052 615.711 472.062C615.724 472.068 615.732 472.082 615.735 472.094C615.748 472.144 615.735 472.185 615.735 472.196C615.735 472.209 615.714 472.143 615.714 472.087C615.714 472.073 615.714 472.088 615.711 472.102C615.708 472.116 615.702 472.128 615.696 472.14" stroke="#A71B1B" stroke-width="0.5" stroke-linecap="round"/>
<path d="M348 44V99.5V472.5H616" stroke="black" stroke-width="0.5"/>
<path d="M450.401 68.6358C450.401 68.8377 450.401 69.0397 450.401 70.169C450.401 71.2984 450.401 73.3489 450.378 74.4674C450.355 75.5859 450.308 75.7102 450.237 75.9451C450.065 76.5192 449.931 77.1535 449.814 77.7326C449.688 78.3517 449.538 78.9269 449.398 79.6688C449.307 80.154 449.041 80.8301 448.641 81.6638C448.241 82.4975 447.682 83.4607 447.316 84.05C446.511 85.2043 446.212 85.6294 446.103 85.7311C446.04 85.7862 445.962 85.8483 445.882 85.9123" stroke="#ED1D21" stroke-width="2" stroke-linecap="round"/>
<path d="M451.013 57.3378C450.81 58.984 450.653 59.4853 450.371 60.175C450.186 60.6292 449.884 61.0077 449.681 61.3601C449.313 61.9974 448.99 62.3268 448.755 62.6871C448.546 63.0058 448.55 63.2838 448.355 64.0001C448.189 64.6112 447.835 65.7105 447.488 67.2341C447.141 68.7577 446.799 70.6685 446.483 72.1189C446.167 73.5692 445.888 74.5013 445.495 75.5874C445.103 76.6734 444.605 77.8851 444.264 78.8821C443.922 79.8792 443.751 80.6249 443.586 81.2265C443.42 81.8281 443.265 82.2631 443.084 83.0231C442.903 83.7831 442.701 84.855 442.519 86.0364C442.337 87.2177 442.182 88.476 442.102 89.3184C442.022 90.1608 442.022 90.5492 442.069 90.6949C442.115 90.8406 442.208 90.7319 442.583 90.1865C442.957 89.6411 443.609 88.6624 444.256 87.902C444.903 87.1415 445.524 86.6288 446.155 86.1628C446.786 85.6967 447.407 85.2928 448.147 84.8906C448.886 84.4883 449.725 84.0999 450.453 83.83C451.18 83.56 451.77 83.4202 452.253 83.286C452.736 83.1518 453.093 83.0276 453.487 82.9325C453.881 82.8374 454.3 82.7752 455.106 82.7432C455.913 82.7112 457.093 82.7112 459.985 82.9831C462.877 83.2549 467.444 83.7987 470.962 84.0788C474.48 84.3588 476.81 84.3588 478.485 84.4365C480.159 84.5142 481.106 84.6695 481.602 84.7729C482.098 84.8762 482.114 84.9228 481.858 84.9934C481.602 85.064 481.074 85.1572 474.502 85.1975C467.931 85.2377 455.332 85.2222 448.647 85.1909C441.963 85.1596 441.575 85.113 441.336 85.089C441.097 85.065 441.019 85.065 440.971 85.0417C440.887 85.0003 440.892 84.6286 441.009 83.9484C441.077 83.5518 441.358 83.0972 441.82 82.5698C442.282 82.0423 442.965 81.4675 444.195 80.8141C445.425 80.1607 447.18 79.4461 449.289 78.7906C451.397 78.1351 453.805 77.5603 456.894 77.1166C459.983 76.6729 463.68 76.3777 465.367 76.1946C467.055 76.0115 466.62 75.9494 461.984 75.9173C457.348 75.8853 448.524 75.8853 443.839 75.9164C439.153 75.9475 438.874 76.0096 439.102 76.1737C439.331 76.3377 440.077 76.6018 443.133 77.134C446.189 77.6662 451.533 78.4585 454.674 78.9909C457.816 79.5233 458.592 79.7719 458.884 80.0009C459.175 80.2299 458.958 80.4318 458.512 80.6213C458.066 80.8108 457.398 80.9817 454.925 81.0852C452.453 81.1888 448.196 81.2199 445.887 81.2514C443.578 81.283 443.345 81.314 443.248 81.3378C443.151 81.3616 443.198 81.3771 445.575 81.3851C447.953 81.3931 452.66 81.3931 452.739 81.0203C452.818 80.6475 448.127 79.9018 445.562 79.4477C442.998 78.9937 442.703 78.8539 442.527 78.6731C442.352 78.4924 442.305 78.2749 442.281 75.3433C442.257 72.4117 442.257 66.7725 442.218 63.6345C442.18 60.4965 442.102 60.0305 442.062 58.6408C442.022 57.2511 442.022 54.952 442.053 53.7132C442.087 52.3629 442.241 52.176 442.327 52.0272C442.533 51.6708 443.243 51.7829 443.737 51.845C444.133 51.895 444.405 52.4391 444.796 53.4454C445.071 54.153 445.28 55.3371 445.417 56.4344C445.553 57.5317 445.553 58.5259 445.257 60.0479C444.962 61.5698 444.372 63.5893 444.029 65.4841C443.686 67.3789 443.608 69.0877 443.584 70.0457C443.559 71.0037 443.59 71.159 443.731 71.5342C443.871 71.9094 444.12 72.4997 444.333 72.9281C444.68 73.6248 445.08 74.0475 445.502 74.3688C445.946 74.7064 446.601 74.6614 447.281 74.6925C447.667 74.7101 448.132 74.7857 449.009 74.8099C449.886 74.8342 451.16 74.8186 452.244 74.5854C453.327 74.3521 454.181 73.9016 454.668 73.5685C455.155 73.2355 455.248 73.0335 455.296 72.8208C455.391 72.3984 455.422 71.9179 455.609 71.3781C455.712 71.0842 455.859 70.7607 455.931 70.08C456.003 69.3993 456.003 68.374 455.98 67.7604C455.95 66.9734 455.707 66.629 455.386 66.2458C455.02 65.8083 454.609 65.2647 454.038 64.7403C453.431 64.1826 452.804 63.8977 452.273 63.78C451.979 63.7149 451.617 63.74 451.308 63.8643C451 63.9885 450.752 64.2371 450.554 64.6215C450.356 65.0058 450.216 65.5185 450.097 66.1399C449.979 66.7613 449.885 67.4758 449.837 68.3644C449.789 69.2529 449.789 70.2938 449.875 71.0707C449.96 71.8477 450.131 72.3293 450.343 72.8337C450.777 73.8629 451.216 74.5498 451.482 74.8553C451.67 75.071 451.766 75.2103 451.891 75.2418C452.075 75.2882 452.206 74.4957 452.214 73.3668C452.217 72.9214 452.175 72.7351 452.097 72.5691C451.717 71.7615 450.81 71.4608 450.615 71.3125C450.508 71.2316 450.465 71.0554 450.433 70.6026C450.401 70.1497 450.401 69.404 450.456 68.8568C450.544 67.9726 450.902 67.352 451.3 66.7572C451.51 66.4446 451.808 66.1625 452.045 65.9405C452.282 65.7185 452.469 65.5787 452.433 66.2291C452.397 66.8794 452.133 68.3241 452.004 69.884C451.876 71.4438 451.892 73.075 452.164 74.459C452.436 75.843 452.964 76.9304 453.469 77.7392C453.974 78.5479 454.44 79.045 454.991 79.4565C455.542 79.8679 456.163 80.1786 459.629 80.3697C463.095 80.5608 469.387 80.623 472.962 80.7715C476.537 80.92 477.205 81.153 477.666 81.2886C478.359 81.4553 478.755 81.4873 479.044 81.5106C479.179 81.5339 479.287 81.5805 479.494 81.6285" stroke="#ED1D21" stroke-width="5" stroke-linecap="round"/>
<path d="M442.871 49.8071C442.871 49.7118 442.998 49.5754 443.198 49.4033C443.283 49.3303 443.288 49.2392 443.296 48.9521C443.304 48.6651 443.304 48.1728 443.26 47.7524C443.217 47.3321 443.129 46.9986 443.076 46.7593C442.994 46.3877 442.991 46.1347 442.979 45.9187C442.968 45.7156 442.903 45.3344 442.867 44.8418C442.843 44.5138 442.783 44.2184 442.723 43.8624C442.66 43.4859 442.518 43.1754 442.462 42.8795C442.432 42.7167 442.359 42.536 442.298 42.303C442.238 42.07 442.182 41.792 442.15 41.5337C442.088 41.0473 442.077 40.7047 442.041 40.3934C442.017 40.1864 442.029 39.8757 442.009 39.617C441.974 39.1572 441.877 38.8757 441.821 38.7157C441.725 38.4414 441.716 38.2742 441.644 38.1215C441.561 37.9446 441.259 37.9128 441.143 37.8406C441.014 37.7606 440.955 37.5923 440.886 37.4877C440.804 37.362 440.666 37.2554 440.601 37.1509C440.529 37.0347 440.385 36.9027 440.273 36.7939C440.17 36.6951 440.04 36.6216 439.952 36.5493C439.806 36.4295 439.847 36.2366 439.771 36.1244C439.636 35.9244 439.535 35.8598 439.471 35.7393C439.406 35.6187 439.27 35.611 439.046 35.5825C438.958 35.5706 438.901 35.5545 438.849 35.5345C438.821 35.5225 438.789 35.5066 438.756 35.4902" stroke="#ED1D21" stroke-width="5" stroke-linecap="round"/>
<path d="M440.392 37.0746C440.417 37.0746 440.475 37.0538 440.534 37.0025C440.579 36.9634 440.628 36.9468 440.653 36.9228C440.66 36.9154 440.67 36.9071 440.68 36.8987C440.689 36.8903 440.697 36.882 440.706 36.8734" stroke="#ED1D21" stroke-width="5" stroke-linecap="round"/>
<path d="M440.247 36.7037C440.243 36.6995 440.257 36.6932 440.289 36.6723C440.314 36.6492 440.339 36.6284 440.349 36.6074C440.354 36.5989 440.36 36.5948 440.367 36.5905" stroke="#ED1D21" stroke-width="5" stroke-linecap="round"/>
<path d="M440.448 36.8797C440.461 36.8797 440.478 36.8755 440.5 36.863C440.536 36.819 440.541 36.7917 440.549 36.7792C440.553 36.7729 440.557 36.7667 440.562 36.7603" stroke="#ED1D21" stroke-width="5" stroke-linecap="round"/>
<path d="M439.933 36.6094C439.935 36.5864 439.956 36.5529 439.976 36.5277C439.992 36.5068 440.01 36.4796 440.038 36.4325C440.052 36.4188 440.061 36.4083 440.064 36.3926C440.065 36.3832 440.065 36.3707 440.077 36.3516" stroke="#ED1D21" stroke-width="5" stroke-linecap="round"/>
<path d="M441.894 38.5456C441.9 38.5331 441.93 38.5122 441.973 38.4818C442.032 38.44 442.066 38.4074 442.094 38.3812C442.122 38.3549 442.158 38.3196 442.185 38.29C442.215 38.2733 442.252 38.244 442.279 38.2C442.284 38.1915 442.29 38.1894 442.309 38.1873" stroke="#ED1D21" stroke-width="5" stroke-linecap="round"/>
<path d="M440.895 37.9421C440.901 37.915 440.926 37.8857 440.957 37.8448C440.988 37.8051 441.047 37.7809 441.082 37.7651C441.11 37.7524 441.138 37.7326 441.172 37.718C441.231 37.6928 441.257 37.6238 441.273 37.5985C441.288 37.5736 441.326 37.5608 441.353 37.5409C441.381 37.5231 441.41 37.5063 441.436 37.4895C441.444 37.4853 441.452 37.4812 441.46 37.4769" stroke="#ED1D21" stroke-width="5" stroke-linecap="round"/>
<path d="M441.467 37.9987C441.479 37.9966 441.517 37.9758 441.559 37.9475C441.59 37.9263 441.619 37.8962 441.65 37.8751C441.688 37.8486 441.703 37.8165 441.73 37.8028C441.743 37.7955 441.758 37.785 441.775 37.7735C441.783 37.7682 441.791 37.7641 441.806 37.7535" stroke="#ED1D21" stroke-width="5" stroke-linecap="round"/>
<path d="M441.781 38.1558C441.816 38.1393 441.858 38.0848 441.881 38.0616C441.905 38.0384 441.94 38.0155 441.975 37.9925C441.982 37.9862 441.988 37.98 441.997 37.9736C442.005 37.9673 442.015 37.9611 442.032 37.9547" stroke="#ED1D21" stroke-width="5" stroke-linecap="round"/>
<path d="M440.794 37.4203C440.79 37.4183 440.786 37.4162 440.785 37.411C440.777 37.3766 440.852 37.345 440.888 37.3271C440.912 37.3151 440.959 37.301 440.998 37.2894C441.038 37.2775 441.064 37.2653 441.08 37.2465C441.09 37.235 441.112 37.2276 441.122 37.2078C441.109 37.19 441.081 37.1814 441.055 37.1794C441.044 37.1773 441.035 37.1731 441.014 37.1626" stroke="#ED1D21" stroke-width="5" stroke-linecap="round"/>
<path d="M443.837 41.0477C443.862 41.0456 443.895 41.0165 443.953 40.9692C443.998 40.9321 444.071 40.8762 444.16 40.785C444.188 40.7569 444.189 40.7023 444.183 40.6364C444.174 40.5474 444.116 40.5197 444.032 40.4194C443.989 40.3673 443.934 40.273 443.906 40.1992C443.897 40.1754 443.9 40.0741 443.903 39.94C443.904 39.8707 443.954 39.8408 443.984 39.8073C444.022 39.766 444.055 39.7486 444.085 39.7317C444.094 39.7276 444.107 39.7213 444.116 39.7171C444.126 39.7128 444.132 39.7108 444.151 39.6961" stroke="#ED1D21" stroke-width="5" stroke-linecap="round"/>
<path d="M442.887 39.0737C442.887 39.0654 442.89 39.0507 442.896 39.034C442.905 39.0088 442.954 38.9962 442.993 38.9784C443.03 38.9617 443.061 38.9312 443.092 38.9145C443.101 38.9082 443.114 38.8999 443.125 38.8946C443.137 38.8893 443.147 38.8872 443.158 38.8851" stroke="#ED1D21" stroke-width="5" stroke-linecap="round"/>
<path d="M443.328 39.8281C443.346 39.7778 443.367 39.7362 443.39 39.6993C443.418 39.6556 443.464 39.625 443.494 39.5956C443.516 39.5744 443.529 39.539 443.549 39.5159C443.569 39.4918 443.61 39.4762 443.635 39.4552C443.665 39.4216 443.69 39.3923 443.7 39.3756C443.707 39.3671 443.715 39.3588 443.724 39.3503" stroke="#ED1D21" stroke-width="5" stroke-linecap="round"/>
<path d="M443.755 39.6646C443.759 39.6688 443.78 39.6709 443.811 39.6668C443.854 39.6611 443.866 39.6145 443.897 39.5778C443.906 39.5683 443.912 39.56 443.918 39.5526C443.925 39.5452 443.931 39.539 443.937 39.5326" stroke="#ED1D21" stroke-width="5" stroke-linecap="round"/>
<path d="M443.227 39.3063C443.227 39.2938 443.231 39.2687 443.247 39.2446C443.262 39.2204 443.296 39.2121 443.321 39.1932C443.333 39.1841 443.353 39.1806 443.373 39.1774C443.395 39.1555 443.407 39.1366 443.418 39.1272C443.424 39.124 443.432 39.124 443.447 39.1177" stroke="#ED1D21" stroke-width="5" stroke-linecap="round"/>
<path d="M442.517 38.6085C442.546 38.5981 442.583 38.5646 442.594 38.5269C442.6 38.506 442.611 38.4891 442.623 38.4735C442.63 38.464 442.636 38.4516 442.642 38.4388" stroke="#ED1D21" stroke-width="5" stroke-linecap="round"/>
<path d="M442.774 38.7531C442.804 38.7531 442.841 38.7489 442.874 38.7343C442.887 38.7259 442.902 38.7113 442.918 38.6945C442.925 38.6881 442.931 38.6861 442.95 38.6714" stroke="#ED1D21" stroke-width="5" stroke-linecap="round"/>
<path d="M444.637 43.6194C444.626 43.6876 444.626 43.8021 444.697 44.09C444.749 44.3021 444.887 44.6334 445.005 44.9081C445.123 45.1828 445.231 45.3872 445.349 45.7678C445.467 46.1484 445.592 46.6991 445.671 47.0225C445.769 47.4276 445.818 47.5641 445.835 47.6927C445.841 47.8496 445.864 47.9885 445.898 48.1822C445.91 48.3249 445.91 48.5577 445.91 48.7975" stroke="#ED1D21" stroke-width="5" stroke-linecap="round"/>
<path d="M447.321 48.2298C447.321 48.2752 447.321 48.3206 447.324 48.7329C447.326 49.1452 447.332 49.9229 447.355 50.3775C447.378 50.8321 447.417 50.9399 447.481 51.2056C447.544 51.4712 447.629 51.8913 447.846 52.6725C448.063 53.4538 448.409 54.5835 448.65 55.5316C448.891 56.4798 449.016 57.2121 449.111 57.7001C449.207 58.188 449.269 58.4094 449.304 58.6086C449.369 58.9748 449.39 59.2558 449.451 59.4504C449.471 59.6222 449.488 59.7552 449.514 59.8553C449.523 59.9044 449.523 59.9498 449.523 59.9966" stroke="#ED1D21" stroke-width="5" stroke-linecap="round"/>
<path d="M446.962 53.5483C447.027 53.6352 447.092 53.7221 447.821 54.9185C448.55 56.1149 449.941 58.4182 451.852 61.0062C453.764 63.5942 456.154 66.3972 457.7 68.2758C459.246 70.1543 459.877 71.0235 460.647 72.0036C461.417 72.9837 462.308 74.0484 463.114 75.1401C463.921 76.2318 464.616 77.3182 465.344 78.3125C466.071 79.3067 466.81 80.1759 467.451 80.8627C468.093 81.5494 468.614 82.0274 468.915 82.2737C469.217 82.52 469.282 82.52 468.979 82.1832C468.675 81.8464 468.002 81.1728 467.068 80.4238C466.135 79.6748 464.961 78.8708 462.977 77.6527C460.993 76.4346 458.233 74.8267 456.344 73.6507C454.456 72.4747 453.521 71.7794 452.768 71.117C452.015 70.4546 451.472 69.8462 451.084 69.3372C450.102 68.0504 450.124 67.6838 450.035 67.3661C449.976 67.1565 449.881 66.8944 449.761 66.5335C449.602 66.0546 449.442 65.5129 449.192 64.1071C448.991 62.9786 448.529 61.0282 448.305 59.9122C447.956 58.1738 447.95 57.4581 448.058 56.932C448.108 56.6901 448.384 56.5798 448.746 56.5126C449.108 56.4455 449.607 56.4455 450.213 56.6301C450.818 56.8148 451.513 57.1842 452.545 57.8308C453.577 58.4774 454.924 59.39 455.835 60.1426C456.746 60.8952 457.181 61.4602 457.448 61.8273C457.716 62.1944 457.803 62.3465 458.314 63.0549C458.826 63.7634 459.761 65.0237 460.85 66.7268C461.94 68.4299 463.157 70.5375 463.947 71.7754C464.971 73.38 465.55 73.8265 465.911 74.2314C466.333 74.7051 466.845 75.0993 467.576 75.711C468.086 76.1377 468.98 76.6703 469.678 77.0483C470.837 77.6763 471.564 77.8009 472.305 77.9859C473.852 78.3718 474.945 78.7885 475.359 78.941C476.118 79.2198 476.982 79.7091 477.815 80.0047C478.487 80.2434 479.221 80.5216 480.032 80.7405C481.101 81.0293 481.921 81.2018 482.658 81.2798C483.349 81.353 483.789 81.4217 485.123 81.7608C485.657 81.8967 486.345 82.1855 487.138 82.4284C487.93 82.6714 488.8 82.8887 489.41 83.0224C490.341 83.2262 491.096 83.2443 491.917 83.2986C492.731 83.3524 493.727 83.5735 494.769 83.6061C495.203 83.6197 495.441 83.7039 496.107 83.7374C496.773 83.771 497.86 83.771 498.626 83.8253C499.392 83.8797 499.805 83.9883 500.202 84.0443C500.6 84.1002 500.969 84.1002 498.106 84.1002C495.244 84.1002 489.138 84.1002 485.982 84.0351C482.825 83.9699 482.804 83.8395 483.597 83.479C484.389 83.1185 485.997 82.5318 487.021 82.1318C488.451 81.5732 488.948 81.313 489.156 81.2801C489.34 81.2509 489.606 81.2037 490.347 81.105C491.858 80.9037 493.051 81.0279 493.391 80.9621C493.793 80.8841 494.062 80.7435 494.74 80.5124C494.952 80.4403 495.137 80.4136 495.356 80.2931C495.464 80.2336 495.575 80.1943 495.501 80.0524C495.426 79.9105 495.165 79.6715 494.271 79.342C493.376 79.0124 491.855 78.5996 491.017 78.3434C490.054 78.0491 489.524 77.6284 488.713 77.1352C488.345 76.9112 488.033 76.7941 486.812 76.1294C485.59 75.4647 483.461 74.2696 482.201 73.6214C480.655 72.8258 479.953 72.7321 479.329 72.5458C478.781 72.3822 478.176 72.2278 477.54 71.8887C476.908 71.5512 476.419 71.1301 475.937 70.8457C475.435 70.5494 474.688 69.8172 473.68 68.875C473.211 68.4359 472.76 68.15 472.253 67.7543C471.747 67.3586 471.182 66.8805 470.674 66.3192C470.166 65.7579 469.731 65.1277 469.344 64.6184C468.957 64.1091 468.631 63.7397 468.181 63.1692C467.144 61.8552 466.453 60.9459 466.18 60.6944C466.031 60.5575 465.884 60.3777 465.393 59.9296C464.902 59.4816 464.076 58.7645 463.553 58.3517C462.866 57.8094 462.503 57.632 462.088 57.2823C461.408 56.7092 460.725 56.3368 460.06 55.9006C459.58 55.5865 458.851 55.0298 458.394 54.663C457.937 54.2963 457.785 54.1225 457.109 53.6527C456.434 53.1828 455.239 52.4223 454.569 51.9871C453.561 51.3326 453.197 50.9817 452.211 50.1823C451.698 49.7662 451.222 49.4238 450.662 48.9191C450.184 48.4882 449.642 48.3466 449.148 48.2481C449.028 48.2243 448.917 48.2583 448.851 48.3673C448.47 48.9887 448.476 50.2482 448.564 51.2082C448.592 51.5226 448.848 51.7692 449.469 52.3035C449.964 52.729 450.894 53.381 451.56 53.8041C452.225 54.2271 452.617 54.3792 453.057 54.5988C453.498 54.8184 453.976 55.1009 454.885 55.681C455.794 56.2611 457.119 57.1302 457.987 57.7627C459.273 58.7004 459.952 59.3624 460.554 59.7785C461.009 60.0921 461.314 60.4607 462.001 61.0167C462.507 61.4258 463.276 62.1595 463.852 62.6484C464.429 63.1373 464.777 63.3763 465.249 63.8145C465.722 64.2527 466.308 64.8828 467.306 65.718C468.303 66.5533 469.694 67.5745 470.584 68.1984C471.8 69.0504 472.398 69.4149 472.825 69.7655C473.198 70.0724 473.779 70.5105 474.686 71.2875C475.212 71.7378 476.006 72.1297 476.593 72.4296C477.181 72.7295 477.572 72.8816 478.012 73.0903C478.453 73.2991 478.931 73.5598 479.818 73.8897C480.705 74.2196 481.987 74.6107 482.876 74.9208C484.24 75.3969 484.952 75.759 485.477 75.9994C486.062 76.2668 486.641 77.0068 487.2 77.8822C487.729 78.7087 487.325 79.4463 487.15 79.6106C487.053 79.7025 486.889 79.7532 486.256 79.7542C485.624 79.7551 484.516 79.69 483.543 79.4717C482.57 79.2534 481.766 78.884 480.733 78.2374C479.699 77.5908 478.461 76.6782 477.66 76.0234C476.859 75.3686 476.533 74.9992 475.919 74.4286C475.306 73.8581 474.415 73.0976 473.695 72.5537C472.976 72.0098 472.454 71.7056 471.99 71.4729C471.152 71.0525 470.384 70.7357 469.716 70.3851C469.134 70.0793 468.54 69.8574 467.221 68.9099C466.16 68.1476 464.403 66.6804 463.409 65.8981C462.279 65.0086 461.954 64.7873 461.626 64.4808C461.274 64.152 460.792 63.9307 460.386 63.875C459.721 63.7839 460.37 65.6367 460.895 66.7307C461.193 67.3528 461.766 67.9986 462.241 68.5629C462.717 69.1271 463.129 69.5617 463.581 69.9268C464.033 70.2919 464.511 70.5744 465.05 70.9481C465.59 71.3218 466.177 71.7781 467.315 72.4694C468.454 73.1608 470.127 74.0734 471.033 74.587C472.042 75.1593 472.332 75.4291 473.302 75.9312C474.039 76.3128 475.337 76.8244 476.117 77.1368C477.126 77.5409 477.512 77.6033 477.775 77.6797C478.062 77.763 478.802 78.0847 479.931 78.348C480.76 78.5414 481.374 78.3724 481.802 78.0998C482.341 77.7556 482.276 76.5781 482.342 75.5803C482.378 75.029 482.518 74.4691 482.322 73.3873C482.198 72.7014 481.736 71.8057 481.382 71.2269C480.599 69.9456 480.236 69.7263 479.438 69.0139C478.425 68.1086 477.671 67.992 476.978 67.6404C476.411 67.3518 475.761 66.9595 475.047 66.5325C474.426 66.1611 473.982 65.8836 473.337 65.4688C472.44 64.8923 471.656 64.3705 471.283 64.0637C470.699 63.5823 470.098 63.1853 468.992 62.2767C468.333 61.7354 467.748 61.451 467.279 60.971C466.949 60.6334 466.483 60.0564 465.759 59.3525C465.035 58.6486 464.079 57.8229 463.489 57.3324C462.285 56.332 461.473 55.7449 461.054 55.3386C460.412 54.7155 459.212 53.9894 458.651 53.6154C458.425 53.4642 457.831 53.0031 456.998 52.4329C456.219 51.9004 455.458 51.2464 455.095 50.9701C454.651 50.633 454.142 50.3232 453.691 50.0269C452.93 49.5267 452.254 48.9629 451.552 48.5019C450.893 48.0699 450.411 47.8435 449.436 46.9902C448.532 46.1991 447.863 45.6917 447.677 45.484C447.179 44.9279 446.743 44.4854 446.273 44.0245C445.709 43.4717 444.99 43.1685 444.418 42.7514C444.264 42.6411 444.069 42.5325 443.881 42.4439C443.693 42.3553 443.519 42.2902 443.275 42.1572" stroke="#ED1D21" stroke-width="5" stroke-linecap="round"/>
<path d="M487.456 78.8327C487.5 78.8327 487.892 78.8327 488.69 78.8979C489.615 78.9734 490.329 79.3581 490.811 79.5882C491.699 80.0126 492.523 80.3234 493.084 80.5436C493.574 80.7358 494.321 81.0701 495.198 81.3545C495.935 81.5939 496.431 81.905 496.836 82.0034C497.187 82.0886 498.007 82.3863 499.092 82.6826C499.897 82.9022 500.338 83.156 501.28 83.6153C502.446 84.1845 503.258 84.5388 503.882 84.8558C504.669 85.2561 505.404 85.6555 506.706 86.2033C508.024 86.7577 508.964 86.7999 509.64 86.8651C510.976 86.9939 512.036 87.195 512.615 87.2384C514.209 87.358 514.932 87.6559 515.493 87.7652C516.026 87.7876 516.471 87.8527 516.679 87.9624C516.778 88.0068 516.865 88.0285 517.021 88.1168" stroke="#ED1D21" stroke-width="5" stroke-linecap="round"/>
<path d="M528.872 89.059C528.847 88.9533 528.823 88.7398 528.8 88.6577C528.778 88.5753 528.774 88.4935 528.719 88.4465C528.608 88.3522 528.54 88.309 528.497 88.2638C528.486 88.2519 528.462 88.2515 528.45 88.2433C528.428 88.2289 528.429 88.1861 528.437 88.141C528.451 88.0638 528.54 88.0508 528.609 88.028C528.669 88.0084 528.972 87.989 529.157 88.0073C529.203 88.012 529.216 88.0992 529.265 88.1833C529.38 88.3807 529.523 88.37 529.587 88.4193C529.644 88.4628 529.687 88.5176 529.745 88.5465C529.804 88.5761 529.917 88.6037 530.003 88.6367C530.107 88.6764 530.163 88.6817 530.214 88.6921C530.283 88.706 530.364 88.727 530.436 88.7576C530.462 88.7639 530.503 88.7639 530.532 88.7659C530.561 88.7679 530.577 88.772 530.619 88.7885" stroke="#ED1D21" stroke-width="5" stroke-linecap="round"/>
<path d="M519.432 90.0369C519.436 90.0369 519.44 90.0369 519.452 90.0308C519.465 90.0247 519.485 90.0125 519.506 90" stroke="#ED1D21" stroke-width="5" stroke-linecap="round"/>
<path d="M526.481 89.0861C526.469 89.0861 526.457 89.0861 526.449 89.08C526.44 89.0739 526.436 89.0617 526.434 89.0474C526.432 89.033 526.432 89.0167 526.432 89" stroke="#ED1D21" stroke-width="5" stroke-linecap="round"/>
<path d="M506.748 84.1913C506.543 84.0317 506.453 83.9579 506.312 83.8477C506.11 83.6891 505.986 83.5355 505.945 83.5048C505.885 83.4604 505.83 83.4083 505.758 83.3634C505.617 83.2747 505.429 83.216 505.25 83.136C505.204 83.1153 505.154 83.0728 504.561 82.8105C503.968 82.5482 502.835 82.0611 502.219 81.7879C501.604 81.5147 501.539 81.47 501.422 81.4024C501.142 81.24 500.951 81.1413 500.9 81.1086C500.816 81.0545 500.706 81.0183 500.579 80.9816C500.278 80.8942 500.205 80.8174 500.048 80.7275C500.008 80.7027 499.984 80.6824 499.961 80.6679C499.939 80.6534 499.918 80.6452 499.897 80.6369" stroke="#ED1D21" stroke-width="5" stroke-linecap="round"/>
<path d="M522.432 88.5914C522.456 88.5914 522.485 88.5792 522.512 88.5547C522.556 88.5138 522.587 88.3749 522.663 88.2944C522.725 88.2291 522.817 88.1897 522.885 88.159C522.941 88.1334 522.985 88.1159 523.065 88.0464C523.096 88.0217 523.121 88.0133 523.145 88.0093C523.158 88.0052 523.17 87.9971 523.195 88.001" stroke="#ED1D21" stroke-width="5" stroke-linecap="round"/>
<path d="M519.432 87.1599C519.44 87.1599 519.456 87.1599 519.483 87.1518C519.543 87.0985 519.575 87.0616 519.594 87.0371C519.604 87.0247 519.616 87.0125 519.629 87" stroke="#ED1D21" stroke-width="5" stroke-linecap="round"/>
<path d="M516.444 86.0738C516.452 86.0738 516.461 86.0738 516.467 86.0677C516.473 86.0616 516.477 86.0494 516.473 86.0371C516.469 86.0247 516.457 86.0125 516.432 86" stroke="#ED1D21" stroke-width="5" stroke-linecap="round"/>
<path d="M512.443 85.3075C512.439 85.3034 512.435 85.2994 512.433 85.2891C512.431 85.2789 512.431 85.2627 512.447 85.2442C512.525 85.155 512.591 85.1395 512.64 85.1292C512.734 85.0984 512.853 85.0862 512.859 85.0576C512.861 85.0412 512.861 85.0209 512.861 85" stroke="#ED1D21" stroke-width="5" stroke-linecap="round"/>
<path d="M510.444 84.1107C510.44 84.1066 510.436 84.1026 510.434 84.0842C510.432 84.0659 510.432 84.0335 510.432 84" stroke="#ED1D21" stroke-width="5" stroke-linecap="round"/>
<path d="M504.214 82.4571C504.239 82.3916 504.337 82.3265 504.423 82.2626C504.486 82.2159 504.546 82.1784 504.604 82.1478C504.656 82.1197 504.702 82.0801 504.768 82.0555C504.784 82.0513 504.8 82.0513 504.815 82.0452C504.829 82.0391 504.841 82.0269 504.854 82.0144" stroke="#ED1D21" stroke-width="5" stroke-linecap="round"/>
<path d="M505.801 82.8138C505.85 82.777 505.907 82.7361 505.981 82.689C505.998 82.6746 506.01 82.6584 506.022 82.65C506.034 82.6416 506.047 82.6416 506.084 82.617" stroke="#ED1D21" stroke-width="5" stroke-linecap="round"/>
<path d="M505.53 82.5186C505.526 82.5146 505.522 82.5105 505.52 82.4881C505.518 82.4657 505.518 82.4252 505.518 82.3833" stroke="#ED1D21" stroke-width="5" stroke-linecap="round"/>
<path d="M508.432 83.2337C508.44 83.2256 508.448 83.2051 508.455 83.1663C508.457 83.1154 508.465 83.0739 508.477 83.0474C508.481 83.033 508.481 83.0167 508.481 83" stroke="#ED1D21" stroke-width="5" stroke-linecap="round"/>
<path d="M499.432 80.0356C499.468 79.9423 499.588 79.8398 499.696 79.7549C499.823 79.6551 500.037 79.4908 500.185 79.4055C500.308 79.335 500.464 79.2521 500.716 79.2307C500.948 79.2111 501.245 79.1499 501.342 79.1369C501.437 79.1241 501.563 79.0389 501.681 79.0135C501.862 78.9744 502.152 79.0216 502.32 79.1364C502.445 79.2222 502.501 79.3195 502.642 79.5279C502.722 79.6463 502.872 79.7197 502.996 79.8181C503.064 79.8723 503.143 79.8823 503.266 79.9671C503.373 80.0408 503.468 80.0438 503.543 80.112C503.649 80.2085 503.786 80.2656 503.894 80.3207C503.989 80.3689 504.044 80.4613 504.158 80.5335C504.305 80.6264 504.392 80.7333 504.495 80.7851C504.627 80.8521 504.795 80.9551 504.873 81.0066C504.944 81.0532 505.017 81.1002 505.101 81.181C505.225 81.3 505.347 81.364 505.429 81.4239C505.503 81.4782 505.659 81.6865 505.786 81.8369C505.917 81.9916 506.02 82.0458 506.152 82.0883C506.243 82.1177 506.315 82.2333 506.399 82.2588C506.537 82.3006 506.621 82.3862 506.741 82.4461C506.845 82.4982 506.909 82.5906 506.996 82.6463C507.076 82.6974 507.149 82.7439 507.216 82.7954C507.251 82.8124 507.3 82.838 507.354 82.8804C507.378 82.906 507.396 82.9397 507.432 83" stroke="#ED1D21" stroke-width="5" stroke-linecap="round"/>
<path d="M494.474 78.3493C494.466 78.3411 494.461 78.2964 494.476 78.2065C494.493 78.0935 494.625 78.0012 494.76 77.9336C494.919 77.8541 495.059 77.8696 495.182 77.839C495.477 77.7655 495.6 77.8858 495.715 77.9023C495.892 77.9277 496.113 78.0292 496.185 78.0438C496.244 78.0558 496.375 78.0866 496.539 78.1604C496.666 78.2174 496.736 78.214 496.828 78.2547C497.093 78.3719 497.155 78.3859 497.206 78.4005C497.28 78.4216 497.388 78.4393 497.497 78.4537C497.684 78.4787 497.733 78.5008 497.81 78.5377C497.91 78.5849 497.966 78.5952 498.046 78.634C498.15 78.6842 498.216 78.7057 498.288 78.7509C498.351 78.7902 498.417 78.7918 498.491 78.8064C498.548 78.8177 498.63 78.8329 498.698 78.8637C498.785 78.9029 498.864 78.9352 498.928 78.9744C499.003 79.0206 499.11 79.0419 499.184 79.083C499.258 79.1239 499.417 79.1974 499.53 79.2592C499.625 79.311 499.7 79.3494 499.76 79.3639C499.824 79.3793 499.873 79.4313 499.942 79.4663C499.998 79.494 500.073 79.5216 500.172 79.585C500.324 79.6831 500.414 79.6776 500.498 79.7204C500.563 79.7535 500.647 79.7637 500.699 79.7943C500.74 79.8189 500.795 79.8128 500.852 79.8516C500.947 79.9153 501.012 79.9725 501.07 80.0013C501.14 80.0367 501.237 80.079 501.332 80.1222C501.361 80.1447 501.39 80.1613 501.42 80.1715C501.435 80.1776 501.447 80.1858 501.472 80.2187" stroke="#ED1D21" stroke-width="5" stroke-linecap="round"/>
<path d="M489.432 75.8336C489.481 75.6664 489.514 75.412 489.559 75.3071C489.601 75.2097 489.719 75.1453 489.866 75.104C489.932 75.0854 489.981 75.067 490.166 75.0608C490.331 75.0554 490.639 75.0588 490.821 75.0628C491.047 75.0679 491.113 75.0955 491.182 75.118C491.407 75.1911 491.587 75.1694 491.701 75.1531C491.757 75.1451 491.793 75.0836 491.855 75.069C491.915 75.0546 492.002 75.0385 492.196 75.0097C492.327 74.9902 492.531 75.0054 492.652 75.0095C492.867 75.0168 492.982 75.0624 493.127 75.1242C493.225 75.1655 493.298 75.1692 493.376 75.1858C493.432 75.1977 493.519 75.2307 493.603 75.2555C493.685 75.2796 493.761 75.2964 493.963 75.3517C494.057 75.3772 494.118 75.3989 494.179 75.4276C494.246 75.4586 494.302 75.485 494.376 75.5219C494.446 75.5567 494.523 75.5955 494.626 75.6673C494.687 75.71 494.782 75.7431 494.825 75.7904C494.866 75.8349 494.95 75.8252 495.013 75.8581C495.068 75.886 495.122 75.9236 495.18 75.936C495.258 75.9531 495.311 76.0097 495.401 76.0425C495.577 76.1066 495.651 76.1492 495.706 76.188C495.765 76.2289 495.823 76.268 495.921 76.3273C496.045 76.402 496.13 76.4522 496.198 76.4976C496.264 76.5415 496.332 76.5878 496.409 76.6226C496.47 76.6497 496.528 76.6862 496.58 76.719C496.637 76.7557 496.696 76.7764 496.752 76.8112C496.805 76.8444 496.86 76.8625 496.918 76.9014C496.996 76.9545 497.053 76.9813 497.119 77.0182C497.19 77.0582 497.229 77.1124 497.295 77.1413C497.359 77.1692 497.434 77.2477 497.528 77.2908C497.65 77.3464 497.717 77.3914 497.783 77.42C497.882 77.4632 498.012 77.5387 498.072 77.5738C498.156 77.6232 498.209 77.6701 498.313 77.7253C498.452 77.7987 498.512 77.8792 498.564 77.9242C498.634 77.9853 498.738 78.043 498.806 78.074C498.877 78.1063 498.992 78.1456 499.074 78.1806C499.144 78.2103 499.226 78.2442 499.289 78.2809C499.407 78.3485 499.566 78.4324 499.65 78.4798C499.719 78.5187 499.763 78.5679 499.928 78.6782C500.173 78.8414 500.279 78.8712 500.343 78.9103C500.416 78.9553 500.472 78.9903 500.526 79.0271C500.575 79.0615 500.644 79.113 500.698 79.1522C500.741 79.1842 500.804 79.2237 500.858 79.2445C500.882 79.2567 500.907 79.2772 500.931 79.2997C500.944 79.31 500.956 79.3181 500.981 79.3511" stroke="#ED1D21" stroke-width="5" stroke-linecap="round"/>
<path d="M479.973 70.9509C479.994 70.8548 480.054 70.6506 480.241 70.4121C480.368 70.25 480.685 70.0784 480.924 69.9239C481.164 69.7694 481.341 69.6735 481.439 69.6165C481.643 69.4976 481.823 69.3658 481.892 69.3099C481.944 69.267 482.003 69.203 482.083 69.1268C482.196 69.0211 482.365 68.9533 482.513 68.8896C482.721 68.7993 482.947 68.6881 483.092 68.6523C483.244 68.6148 483.455 68.5808 483.598 68.5555C483.875 68.5066 483.93 68.4383 483.988 68.4101C484.129 68.3413 484.421 68.4325 484.498 68.4737C484.554 68.5034 484.635 68.4991 484.691 68.5475C484.746 68.5951 484.827 68.6163 484.9 68.6621C484.992 68.7199 485.058 68.764 485.095 68.8354C485.129 68.9018 485.186 68.9273 485.285 69.0137C485.346 69.0677 485.421 69.131 485.505 69.2049C485.558 69.2523 485.614 69.2689 485.684 69.3145C485.745 69.3535 485.815 69.4062 485.87 69.4421C485.936 69.4844 485.994 69.5285 486.069 69.5593C486.212 69.6183 486.31 69.712 486.37 69.758C486.425 69.8001 486.494 69.8496 486.575 69.8905C486.668 69.9374 486.75 70.0227 486.834 70.0665C486.907 70.1045 486.956 70.1808 487.016 70.2219C487.091 70.2733 487.173 70.3389 487.263 70.4129C487.322 70.4611 487.353 70.5377 487.411 70.6142C487.475 70.6986 487.554 70.7772 487.639 70.836C487.728 70.8965 487.785 70.9961 487.847 71.0451C487.909 71.0937 487.96 71.1445 488.041 71.1927C488.168 71.2681 488.221 71.3481 488.291 71.384C488.363 71.4205 488.404 71.4809 488.5 71.5317C488.56 71.5633 488.626 71.6133 488.725 71.6693C488.798 71.7109 488.87 71.7711 489.032 71.8654C489.12 71.9165 489.182 71.9699 489.287 72.0211C489.382 72.0678 489.6 72.2494 489.727 72.3422C489.783 72.3827 489.878 72.4286 490.245 72.6854C490.362 72.7672 490.417 72.8161 490.466 72.8773C490.529 72.9554 490.609 73.0096 490.667 73.0507C490.756 73.1139 490.95 73.269 491.077 73.3412C491.176 73.3972 491.25 73.4534 491.319 73.4967C491.375 73.5318 491.43 73.5806 491.613 73.7256C491.708 73.8009 491.844 73.876 491.93 73.9324C492.015 73.9886 492.127 74.0497 492.295 74.1716C492.503 74.3221 492.656 74.4164 492.729 74.4727C492.806 74.5316 492.984 74.6757 493.127 74.7987C493.206 74.8678 493.276 74.9161 493.332 74.9544C493.404 75.0039 493.554 75.084 493.652 75.1328C493.746 75.2117 493.849 75.2932 493.911 75.3392C493.926 75.3494 493.943 75.3595 493.973 75.3852" stroke="#ED1D21" stroke-width="5" stroke-linecap="round"/>
<path d="M485.262 70.6624C485.262 70.6461 485.266 70.6256 485.278 70.6011C485.286 70.5887 485.298 70.5765 485.305 70.5236C485.311 70.4706 485.311 70.3773 485.311 70.2811" stroke="#ED1D21" stroke-width="5" stroke-linecap="round"/>
<path d="M488.496 73.1591C488.509 73.0414 488.492 72.7131 488.409 72.5651C488.362 72.4825 488.312 72.4256 488.289 72.3619C488.272 72.3126 488.255 72.2534 488.218 72.1897C488.209 72.1753 488.205 72.1631 488.193 72.1548C488.119 72.1043 487.988 72.1995 487.927 72.2162C487.89 72.2 487.857 72.1753 487.834 72.1447C487.824 72.1262 487.816 72.1019 487.795 72.0522" stroke="#ED1D21" stroke-width="5" stroke-linecap="round"/>
<path d="M488.494 71.0738C488.494 71.0657 488.494 71.0576 488.485 71.0473C488.477 71.037 488.461 71.0248 488.432 71" stroke="#ED1D21" stroke-width="5" stroke-linecap="round"/>
<path d="M472.164 64.5506C472.154 64.5415 472.173 64.4552 472.245 64.2702C472.337 64.0349 472.457 63.8547 472.505 63.7471C472.557 63.627 472.622 63.5748 472.704 63.4604C472.779 63.3557 472.866 63.3136 472.938 63.254C473.022 63.1851 473.075 63.0983 473.135 63.05C473.214 62.9863 473.359 62.9196 473.462 62.8393C473.541 62.777 473.629 62.7225 473.689 62.6811C473.751 62.638 473.828 62.6125 473.883 62.5848C473.911 62.5709 473.948 62.5665 474.042 62.5596C474.244 62.5448 474.461 62.6344 474.597 62.7535C474.686 62.8302 474.795 62.8591 474.87 62.9009C474.925 62.9317 474.989 62.9512 475.064 62.997C475.147 63.0478 475.224 63.0887 475.289 63.1207C475.354 63.1533 475.418 63.1987 475.48 63.2444C475.543 63.2899 475.602 63.3452 475.64 63.3933C475.685 63.4509 475.777 63.4552 475.834 63.5033C475.903 63.5606 475.986 63.5971 476.051 63.6295C476.107 63.6571 476.181 63.6752 476.26 63.7233C476.337 63.7693 476.395 63.8082 476.457 63.847C476.526 63.8894 476.574 63.9364 476.634 63.9639C476.704 63.9959 476.749 64.0601 476.824 64.1219C476.878 64.1664 476.933 64.1975 476.996 64.2274C477.081 64.2682 477.152 64.3075 477.22 64.3579C477.29 64.4106 477.342 64.4541 477.424 64.5114C477.506 64.5685 477.591 64.619 477.696 64.6718C477.785 64.7167 477.845 64.7612 477.893 64.8093C477.937 64.8542 478.099 64.9481 478.311 65.0703C478.433 65.1404 478.498 65.2101 478.556 65.2812C478.625 65.3671 478.727 65.4117 478.802 65.4623C478.888 65.5198 478.952 65.5907 479.032 65.6318C479.12 65.6774 479.176 65.7097 479.239 65.7738C479.303 65.8404 479.371 65.8881 479.43 65.9297C479.49 65.9712 479.55 65.9984 479.625 66.0465C479.695 66.092 479.764 66.1037 479.832 66.1314C479.893 66.1567 479.954 66.209 480.014 66.2436C480.072 66.2776 480.118 66.3193 480.181 66.3604C480.257 66.4106 480.342 66.4658 480.42 66.5162C480.524 66.5842 480.627 66.6445 480.706 66.6949C480.779 66.7408 480.871 66.8048 480.926 66.8439C480.978 66.881 481.045 66.9238 481.105 66.9744C481.168 67.0273 481.279 67.0885 481.397 67.1509C481.473 67.1916 481.593 67.2584 481.735 67.3226C481.877 67.3862 481.913 67.4647 481.997 67.5083C482.083 67.5525 482.177 67.6249 482.244 67.6755C482.319 67.732 482.386 67.7808 482.431 67.8314C482.49 67.8979 482.585 67.9139 482.648 67.9437C482.716 67.9765 482.79 68.0236 482.852 68.0719C482.909 68.1159 482.959 68.1704 483.022 68.2322C483.089 68.2989 483.154 68.3491 483.236 68.3767C483.301 68.3985 483.348 68.4454 483.45 68.5003C483.566 68.5624 483.647 68.6103 483.707 68.6653C483.752 68.7063 483.856 68.7294 483.968 68.7753C484.054 68.8103 484.096 68.8715 484.173 68.9219C484.265 68.9819 484.374 69.0365 484.445 69.0846C484.512 69.1305 484.589 69.1555 484.666 69.1946C484.754 69.2388 484.838 69.293 484.958 69.3526C485.115 69.4311 485.281 69.5627 485.419 69.6391C485.486 69.6762 485.561 69.7101 485.695 69.7902C485.771 69.8355 485.875 69.8932 485.96 69.9301C486.043 69.9661 486.129 70.0219 486.179 70.0629C486.246 70.118 486.314 70.1453 486.371 70.1753C486.44 70.2114 486.503 70.2234 486.551 70.2668C486.605 70.3168 486.697 70.3196 486.839 70.3767C486.947 70.4341 487.006 70.4799 487.099 70.5097C487.121 70.5212 487.141 70.5393 487.161 70.558" stroke="#ED1D21" stroke-width="5" stroke-linecap="round"/>
<path d="M472.704 63.3699C472.822 63.297 472.947 63.232 473.077 63.1995C473.175 63.1749 473.315 63.1107 473.43 63.0453C473.525 62.9909 473.622 62.9236 473.731 62.8626C473.902 62.7679 474.076 62.7852 474.171 62.7205C474.22 62.6866 474.288 62.6797 474.355 62.6475C474.554 62.5509 474.508 62.2335 474.586 62.1726C474.651 62.1223 474.728 62.1438 474.775 62.1196C474.829 62.0914 474.846 62.0223 474.861 61.9615C474.915 61.7523 475.316 61.8919 475.34 61.9122C475.367 61.9357 475.238 61.957 475.144 61.9489C475.077 61.9432 475.011 61.8841 474.936 61.8355C474.842 61.7741 474.838 61.6408 474.838 61.5677C474.838 61.5272 474.916 61.5348 474.975 61.5347C475.137 61.5344 475.221 61.8016 475.402 62.0575C475.587 62.3202 475.716 62.3867 475.814 62.4521C475.928 62.5283 476.052 62.7433 476.186 62.8459C476.296 62.9296 476.414 62.9879 476.496 63.0691C476.578 63.1496 476.728 63.1423 476.857 63.2395C477.017 63.3598 477.182 63.3616 477.292 63.4143C477.395 63.4635 477.543 63.4751 477.649 63.5361C477.675 63.5512 477.708 63.5565 477.724 63.5767C477.795 63.6671 477.857 63.7674 477.959 63.8487C478.073 63.9398 478.186 63.9867 478.284 64.0315C478.402 64.0851 478.508 64.1572 478.669 64.206C478.797 64.2451 478.908 64.3438 479.014 64.3969C479.126 64.4531 479.268 64.5143 479.367 64.6038C479.446 64.6759 479.551 64.7097 479.692 64.7702C479.856 64.8404 479.959 64.9123 480.034 64.9936C480.122 65.0887 480.233 65.1642 480.332 65.2372C480.44 65.3178 480.563 65.3913 480.68 65.4686C480.802 65.5484 480.892 65.6509 480.986 65.7285C481.07 65.7976 481.175 65.8624 481.269 65.9517C481.364 66.0417 481.449 66.0977 481.543 66.1548C481.713 66.2581 481.825 66.3496 481.912 66.4308C482.003 66.5162 482.116 66.5527 482.175 66.6297C482.258 66.7385 482.39 66.8285 482.547 66.9058C482.69 66.9762 482.829 67.1535 482.975 67.2832C483.09 67.3864 483.253 67.4945 483.437 67.6402C483.807 67.9328 484.036 67.9978 484.198 68.0953C484.226 68.1439 484.35 68.2813 484.542 68.4519C484.618 68.5098 484.649 68.5098 484.704 68.5342" stroke="#ED1D21" stroke-width="5" stroke-linecap="round"/>
<path d="M461.242 54.2837C461.355 54.2135 461.391 54.1666 461.407 54.0684C461.428 53.9407 461.478 53.848 461.593 53.6698C461.653 53.5784 461.709 53.5147 461.775 53.4465C461.849 53.3699 461.968 53.3314 462.064 53.2729C462.126 53.2347 462.186 53.1721 462.264 53.1391C462.345 53.1046 462.432 53.0781 462.529 53.0616C462.656 53.0402 462.755 53.0639 462.784 53.0802C462.861 53.1227 462.886 53.1949 462.911 53.2607C462.95 53.3625 463.027 53.4435 463.093 53.4954C463.146 53.537 463.191 53.5752 463.245 53.5846C463.318 53.5971 463.395 53.6408 463.463 53.6994C463.48 53.7137 463.5 53.716 463.502 53.7137C463.557 53.6651 463.341 53.6177 463.284 53.5988C463.206 53.5729 463.205 53.505 463.189 53.484C463.179 53.471 463.195 53.4398 463.207 53.4231C463.225 53.3958 463.272 53.397 463.322 53.4017C463.396 53.4085 463.422 53.4953 463.493 53.5189C463.587 53.5506 463.627 53.6267 463.677 53.6783C463.754 53.7574 463.813 53.8049 463.856 53.8613C463.897 53.9149 463.981 53.969 464.072 54.0325C464.14 54.08 464.186 54.1101 464.24 54.1335C464.306 54.1616 464.349 54.2179 464.402 54.2694C464.489 54.3554 464.567 54.3915 464.622 54.422C464.673 54.4506 464.726 54.4901 464.806 54.5462C464.922 54.6277 464.949 54.715 465.013 54.7645C465.066 54.8054 465.14 54.8512 465.199 54.9028C465.261 54.9563 465.34 55.0061 465.424 55.0764C465.478 55.1212 465.585 55.184 465.654 55.2547C465.729 55.3321 465.808 55.3579 465.887 55.4189C465.952 55.4683 465.999 55.522 466.051 55.5667C466.098 55.607 466.149 55.658 466.217 55.7214C466.34 55.8362 466.403 55.8739 466.474 55.9396C466.547 56.0081 466.662 56.0943 466.733 56.1555C466.798 56.2121 466.876 56.2728 466.946 56.3267C467.031 56.3914 467.098 56.4228 467.18 56.4979C467.235 56.5483 467.326 56.5732 467.389 56.6247C467.443 56.6676 467.526 56.7043 467.569 56.7561C467.607 56.8022 467.685 56.831 467.766 56.8734C467.83 56.9064 467.885 56.9436 467.969 56.986C468.052 57.028 468.152 57.1359 468.221 57.176C468.289 57.2161 468.33 57.2907 468.466 57.4313C468.54 57.5074 468.612 57.5443 468.691 57.6028C468.79 57.6754 468.889 57.7177 468.959 57.7507C469.038 57.7875 469.093 57.8306 469.159 57.8797C469.211 57.9184 469.289 57.9384 469.346 57.9875C469.42 58.0514 469.596 58.1769 469.739 58.2901C469.797 58.3364 469.829 58.4308 469.918 58.5106C470.027 58.609 470.097 58.656 470.2 58.7101C470.287 58.7562 470.329 58.8392 470.402 58.8814C470.436 58.901 470.466 58.9375 470.513 58.9869C470.575 59.0512 470.656 59.1064 470.722 59.1465C470.823 59.2078 470.942 59.2891 471.029 59.3342C471.168 59.4065 471.265 59.4864 471.354 59.5242C471.434 59.5582 471.488 59.6226 471.576 59.6765C471.678 59.7384 471.72 59.8101 471.777 59.8736C471.857 59.9639 471.956 60.059 472.006 60.1129C472.081 60.1939 472.147 60.2186 472.206 60.277C472.327 60.3964 472.556 60.4297 472.624 60.4742C472.768 60.5681 472.955 60.6219 473.169 60.6362C473.271 60.643 473.355 60.7391 473.412 60.7652C473.504 60.8071 473.628 60.922 473.728 61.0042C473.866 61.118 473.942 61.1286 474.021 61.1685C474.123 61.2194 474.255 61.3814 474.326 61.436C474.41 61.501 474.541 61.5976 474.635 61.6728C474.749 61.7649 474.868 61.8042 475.018 61.9026C475.141 61.9685 475.192 62.0107 475.205 62.0342C475.214 62.0437 475.228 62.0483 475.242 62.0531" stroke="#ED1D21" stroke-width="5" stroke-linecap="round"/>
<path d="M462.893 54.0464C462.883 54.0464 462.86 54.0374 462.833 54.0168C462.821 54.0079 462.823 53.9917 462.83 53.9734C462.846 53.9304 462.879 53.8908 462.909 53.8588C462.937 53.8285 463.031 53.8265 463.124 53.8265C463.173 53.8265 463.022 53.7352 462.951 53.6869C462.877 53.6369 462.842 53.5793 462.798 53.5356C462.74 53.4783 462.629 53.3871 462.557 53.3476C462.492 53.3118 462.411 53.2631 462.328 53.2286C462.247 53.1951 462.166 53.1484 462.078 53.0866C462.017 53.0438 461.953 53.0338 461.863 52.9698C461.755 52.8933 461.712 52.8413 461.654 52.7957C461.554 52.7164 461.536 52.6444 461.455 52.5939C461.394 52.5554 461.337 52.5023 461.282 52.445C461.23 52.3918 461.12 52.3373 461.055 52.2869C460.99 52.237 460.939 52.1952 460.86 52.1449C460.761 52.0815 460.717 52.003 460.65 51.9729C460.542 51.9247 460.476 51.8333 460.411 51.7783C460.333 51.7121 460.282 51.6637 460.228 51.6247C460.168 51.5804 460.119 51.5171 460.073 51.4872C460.003 51.4417 459.907 51.4025 459.844 51.3384C459.769 51.261 459.68 51.224 459.592 51.1483C459.464 51.0385 459.411 50.981 459.365 50.9304C459.319 50.8802 459.213 50.8253 459.145 50.7929C459.082 50.7624 459.041 50.706 458.886 50.6487C458.768 50.6047 458.625 50.4772 458.497 50.3898C458.417 50.3352 458.384 50.2751 458.247 50.1563C458.186 50.103 458.161 50.037 458.113 49.9842C458.024 49.8881 457.934 49.794 457.877 49.7344C457.814 49.6697 457.74 49.6062 457.636 49.5283C457.558 49.47 457.504 49.4228 457.395 49.3656C457.261 49.2951 457.166 49.1984 457.018 49.1159C456.911 49.0563 456.8 49.0104 456.731 48.9486C456.633 48.8615 456.463 48.8319 456.356 48.7857C456.289 48.7567 456.139 48.6625 455.99 48.5842C455.858 48.5147 455.759 48.456 455.631 48.3872C455.462 48.2955 455.407 48.2589 455.346 48.2107C455.253 48.136 455.17 48.0893 455.133 48.0548C455.303 48.0387 455.573 48.0477 455.628 48.066C455.642 48.0796 455.656 48.1069 455.67 48.1349" stroke="#ED1D21" stroke-width="5" stroke-linecap="round"/>
<path d="M452.153 47.6632C452.153 47.6551 452.153 47.6063 452.167 47.5326C452.178 47.4743 452.389 47.4788 452.627 47.4747C452.735 47.4728 452.889 47.4542 453.104 47.4602C453.286 47.4654 453.419 47.5484 453.495 47.5852C453.579 47.626 453.678 47.6099 453.757 47.6508C453.817 47.6812 453.919 47.7122 454.02 47.7349C454.13 47.7598 454.182 47.7656 454.241 47.776C454.324 47.7905 454.44 47.8025 454.542 47.8373C454.567 47.8476 454.583 47.8598 454.59 47.8721C454.596 47.8845 454.592 47.8967 454.588 47.9092" stroke="#ED1D21" stroke-width="5" stroke-linecap="round"/>
<path d="M438.505 36.2417C438.505 36.1393 438.45 35.8619 438.386 35.4722C438.319 35.0583 438.253 34.9353 438.218 34.7957C438.181 34.6475 438.218 34.5235 438.239 34.4796C438.297 34.3585 438.477 34.3325 438.683 34.2701C438.761 34.2466 438.874 34.2589 438.952 34.2807C439.184 34.3457 439.268 34.5669 439.387 34.6917C439.475 34.7838 439.513 34.8753 439.58 34.9599C439.665 35.0678 439.855 35.3658 439.972 35.5181C440.059 35.632 440.199 35.7786 440.402 35.9766C440.526 36.0983 440.591 36.1388 440.616 36.1499C440.715 36.1942 440.057 35.7742 439.881 35.5848C439.812 35.5106 440.142 35.5367 440.314 35.544C440.462 35.5503 440.521 35.676 440.626 35.7933C440.738 35.9183 440.885 36.0575 441.008 36.124C441.147 36.1996 441.27 36.2708 441.382 36.3406C441.46 36.3886 441.55 36.4325 441.62 36.5094C441.722 36.6205 441.844 36.6674 441.998 36.8176C442.092 36.9096 442.187 36.9683 442.285 37.0602C442.391 37.1592 442.46 37.2327 442.611 37.4013C442.731 37.5367 442.852 37.5852 442.947 37.666C443.126 37.8193 443.28 37.9522 443.391 38.048C443.48 38.1238 443.538 38.195 443.63 38.3012C443.757 38.4494 443.966 38.6427 444.06 38.7492C444.181 38.8858 444.336 38.9802 444.456 39.0834C444.529 39.1472 444.61 39.2521 444.718 39.3223C444.802 39.3766 444.904 39.4288 444.998 39.4801C445.134 39.5539 445.289 39.6271 445.429 39.7002C445.652 39.8172 445.709 39.9351 445.81 40.0235C445.888 40.0908 446.037 40.1774 446.136 40.2768C446.234 40.3758 446.346 40.4638 446.447 40.5595C446.547 40.6528 446.654 40.7136 446.742 40.7909C446.9 40.931 447.074 41.1027 447.162 41.1619C447.351 41.2896 447.585 41.5363 447.809 41.7231C447.953 41.8439 448.089 41.9474 448.284 42.1048C448.657 42.4048 448.698 42.4982 448.831 42.6193C448.94 42.7185 449.021 42.8357 449.094 42.9243C449.19 43.04 449.293 43.1662 449.43 43.2877C449.51 43.3587 449.608 43.4164 449.713 43.4714C449.823 43.5287 449.993 43.6363 450.133 43.6846C450.23 43.7176 450.329 43.7689 450.431 43.7837C450.546 43.8004 450.644 43.9157 450.746 43.9597C451.036 44.0857 451.17 44.3783 451.289 44.448C451.425 44.5279 451.499 44.6352 451.618 44.7234C451.719 44.7992 451.842 44.8921 451.957 44.9585C452.065 45.0204 452.115 45.1199 452.223 45.2154C452.396 45.3676 452.591 45.5165 452.703 45.5864C452.833 45.6679 452.976 45.7513 453.171 45.8872C453.328 45.9959 453.431 46.0822 453.546 46.181C453.745 46.3508 453.893 46.4343 454.186 46.5775C454.311 46.6386 454.459 46.7938 454.686 46.9478C454.893 47.0582 455.027 47.1322 455.094 47.1872C455.125 47.2131 455.153 47.2349 455.203 47.2574" stroke="#ED1D21" stroke-width="5" stroke-linecap="round"/>
<path d="M446.499 78.1252C446.499 78.4536 446.499 78.782 446.17 80.1826C445.842 81.5831 445.185 84.0459 444.847 85.5814C444.509 87.1169 444.509 87.6505 444.447 87.8228C444.221 88.4562 443.888 86.4602 443.783 86.1915C443.73 86.0548 443.966 85.8818 443.887 85.7972C443.601 85.4938 442.976 85.7537 442.83 85.7543C441.87 85.7584 444.673 84.9253 445.004 84.9247C445.175 84.9244 445.335 85.0882 445.44 85.2748C445.545 85.4614 445.586 85.7077 445.607 85.8961C445.628 86.0846 445.628 86.2077 445.464 86.2917C445.3 86.3756 444.971 86.4167 444.453 86.4378C443.935 86.459 443.237 86.459 450.472 86.4179C457.706 86.3769 472.893 86.2948 480.84 86.1909C488.787 86.087 489.033 85.9639 489.221 85.8799C489.41 85.796 489.533 85.7549 484.137 85.7338C478.742 85.7127 467.823 85.7127 461.685 85.6306C455.548 85.5485 454.522 85.3843 453.582 85.2792C451.827 85.0827 450.197 84.9265 448.276 84.6778C445.678 84.3413 443.602 85.1268 442.732 85.9558C442.408 86.2647 442.272 86.2923 442.291 86.3339C442.756 87.3733 445.745 86.3769 448.432 85.9017C449.667 85.6835 451.601 85.4689 456.166 85.342C460.731 85.2151 467.873 85.2151 473.81 84.8457C479.747 84.4763 484.262 83.7374 487.183 83.3568C490.104 82.9762 491.294 82.9762 492.174 82.9146C493.596 82.8151 495.944 82.6031 498.29 82.7878C498.86 82.8326 498.051 83.3419 494.673 83.5938C491.296 83.8457 485.344 83.9688 481.949 84.0938C478.555 84.2188 477.898 84.3419 477.56 84.4669C477.222 84.592 477.222 84.7151 477.755 84.9427C478.289 85.1703 479.356 85.4987 480.85 85.791C482.344 86.0833 484.232 86.3296 487.565 86.4565C490.898 86.5833 495.618 86.5833 496.777 86.6244C498.167 86.6736 492.154 86.9963 491.036 87.2451C490.539 87.3556 490.165 87.3296 490.385 87.1244C490.605 86.9192 491.426 86.5087 492.875 86.0305C494.324 85.5522 496.377 85.0186 497.537 84.7027C498.696 84.3867 498.902 84.3046 497.448 84.4881C495.994 84.6716 492.874 85.1231 491.185 85.3557C489.496 85.5883 489.332 85.5883 491.361 85.5883C493.39 85.5883 497.618 85.5883 500.206 85.7114C502.795 85.8345 503.616 86.0808 504.675 86.2077C505.734 86.3346 507.006 86.3346 508.442 86.459" stroke="#ED1D21" stroke-width="2" stroke-linecap="round"/>
<path d="M500.604 88.107C499.822 88.107 498.164 87.8607 497.538 87.4658C497.425 87.3945 497.413 87.2388 497.453 87.1138C497.67 86.443 498.9 86.2437 499.772 85.9104C500.274 85.718 500.974 85.786 502.067 85.6616C503.847 85.4591 505.122 85.4962 506.069 85.3096C509.818 84.5706 510.676 85.3705 511.277 85.4937C511.533 85.5463 511.59 85.8631 511.53 86.0721C511.126 87.4699 508.324 87.898 507.572 88.2096C507.015 88.4403 506.289 88.811 504.117 88.6891C502.051 88.5731 501.725 86.5335 501.621 86.1815C501.579 86.0397 501.803 85.9527 501.95 86.054C502.096 86.1554 502.219 86.4427 502.282 86.7139C502.346 86.985 502.346 87.2313 502.346 87.4851" stroke="#ED1D21" stroke-width="2" stroke-linecap="round"/>
<path d="M508.417 85.4081C508.46 85.3652 508.643 85.3646 509.042 85.4453C509.283 85.494 509.592 85.6012 510.224 85.7206C510.856 85.84 511.8 85.9794 512.715 86.0459C513.63 86.1123 514.488 86.1016 514.994 86.0854C515.808 86.0592 515.934 85.9499 516.321 85.9336C516.665 85.9192 517.308 85.9281 517.656 85.9227C518.004 85.9174 518.036 85.9066 518.074 85.885C518.158 85.837 517.609 85.7981 516.646 85.782C516.272 85.7758 516.133 85.7337 515.643 85.7172C515.153 85.7006 514.316 85.7006 513.853 85.722C513.39 85.7435 513.326 85.7864 513.303 85.8299C513.281 85.8735 513.302 85.9164 514.15 86.0564C514.997 86.1965 516.67 86.4324 517.559 86.5701C518.505 86.7166 518.642 86.773 518.81 86.7944C519.246 86.8503 519.746 87.0648 519.985 87.1087C520.096 87.129 520.299 87.163 520.591 87.1791C520.865 87.1942 521.187 87.3248 521.683 87.4223C522.381 87.5594 522.888 87.4876 523.04 87.5364C523.185 87.583 523.343 87.5637 523.452 87.596C523.508 87.6127 522.884 87.6829 521.975 87.6668C521.462 87.6578 521.212 87.4886 520.908 87.4177C520.652 87.3582 520.42 87.2501 520.009 87.1093C519.661 86.9901 519.154 86.7626 518.823 86.6758C518.466 86.5823 518.092 86.5462 517.772 86.4861C517.371 86.4105 516.976 86.3616 516.403 86.1617C516.079 86.0489 515.785 86.0581 515.406 85.9718C515.026 85.9281 514.819 85.9174 514.755 85.8957C514.722 85.8849 514.69 85.8741 514.559 85.8631" stroke="#ED1D21" stroke-width="2" stroke-linecap="round"/>
<path d="M420.973 55.0778H348V44H354.154H419.654C426.336 44 428.886 45.477 429.326 46.2156L451.745 63.0539L477.681 82.5509L500.54 98.0599C507.222 103.377 518.564 106.184 523.399 106.922H610V118H523.839C510.827 118 498.489 111.206 493.946 107.808L428.886 56.8503C427.479 55.4323 423.025 55.0778 420.973 55.0778Z" fill="#A71B1B"/>
<rect x="494" y="423" width="89" height="27" rx="4" fill="#062B2B"/>
<rect x="372" y="423" width="89" height="27" rx="4" fill="#062B2B"/>
<circle cx="557" cy="385" r="4" fill="#C5BD70"/>
<rect x="370" y="136" width="213" height="101" rx="7" fill="#032D29"/>
</svg>
