<svg width="43" height="30" viewBox="0 0 43 30" fill="none" xmlns="http://www.w3.org/2000/svg">
<mask id="path-1-inside-1_3_2" fill="white">
<path d="M42.0909 29.053L1.99974 29.0272C0.895166 29.0265 0.00038131 28.1305 0.00117811 27.0259L0.0201867 0.675147L42.1114 0.702254L42.0909 29.053Z"/>
</mask>
<path d="M42.0909 29.053L1.99974 29.0272C0.895166 29.0265 0.00038131 28.1305 0.00117811 27.0259L0.0201867 0.675147L42.1114 0.702254L42.0909 29.053Z" fill="#31A7F1"/>
<path d="M42.0909 29.053L-0.000264623 29.0259L42.0909 29.053ZM0.0201867 0.675147L42.1114 0.702254L0.0201867 0.675147ZM42.6114 0.702576L42.5909 29.0534L41.5909 29.0527L41.6114 0.701932L42.6114 0.702576ZM-0.000264623 29.0259L0.0201867 0.675147L-0.000264623 29.0259Z" fill="black" mask="url(#path-1-inside-1_3_2)"/>
</svg>
