<svg width="342" height="495" viewBox="0 0 342 495" fill="none" xmlns="http://www.w3.org/2000/svg">
<rect width="340" height="495" rx="15" fill="#ED1D21"/>
<path d="M65 17C81.5535 17 95 30.6402 95 47.5C95 64.3598 81.5535 78 65 78C48.4465 78 35 64.3598 35 47.5C35 30.6402 48.4465 17 65 17Z" fill="#D9D9D9" stroke="black" stroke-width="2"/>
<path d="M65 26C76.5769 26 86 35.6046 86 47.5C86 59.3954 76.5769 69 65 69C53.4231 69 44 59.3954 44 47.5C44 35.6046 53.4231 26 65 26Z" fill="#D9D9D9" stroke="black" stroke-width="2"/>
<ellipse cx="65" cy="47.5" rx="20" ry="20.5" fill="#2D449A"/>
<ellipse cx="61.4966" cy="43.5898" rx="18.5235" ry="14.7767" transform="rotate(-46.0077 61.4966 43.5898)" fill="#4E65AC"/>
<circle cx="58" cy="42" r="8" fill="#C9C9E1"/>
<mask id="path-7-inside-1_2_243" fill="white">
<path d="M14 92H314V482H14V92Z"/>
</mask>
<path d="M14 92H314V482H14V92Z" fill="#ED1D21"/>
<path d="M314 482V484H316V482H314ZM14 482H12V484H14V482ZM314 92H312V482H314H316V92H314ZM314 482V480H14V482V484H314V482ZM14 482H16V92H14H12V482H14Z" fill="black" mask="url(#path-7-inside-1_2_243)"/>
<path d="M210 41C210 30.5066 218.507 22 229 22H313V93H210V41Z" fill="#ED1D21"/>
<path d="M210 41C210 29.9543 218.954 21 230 21H314L312 23H229C218.507 23 210 31.0589 210 41ZM313 93H210H313ZM210 93V22V93ZM314 21V93H312V23L314 21Z" fill="black"/>
<path d="M111 93.03C133.344 94.0819 169.78 61.4925 221.055 23.9491" stroke="black" stroke-width="2"/>
<path d="M313 23C313.549 22 315.525 20 319.039 20C322.553 20 325.993 20 327.275 20H332.216C334.046 20 338.365 20.6 341 23" stroke="black" stroke-width="2"/>
<path d="M340.999 480C340.458 481.004 338.498 483.02 334.984 483.048C331.471 483.077 328.03 483.104 326.749 483.115L321.808 483.154C319.978 483.169 315.654 482.604 313 480.225" stroke="black" stroke-width="2"/>
<rect x="340" y="20" width="2" height="4" fill="#E2E2E2"/>
<rect x="340" y="479" width="2" height="4" fill="#E2E2E2"/>
<path d="M39.6311 299.809L39.7315 261.163L65.7037 280.553L39.6311 299.809Z" fill="#FDD403" stroke="black"/>
<path d="M91 424.5H242C244.485 424.5 246.5 426.515 246.5 429V430C246.5 432.485 244.485 434.5 242 434.5H91C88.5147 434.5 86.5 432.485 86.5 430V429C86.5 426.515 88.5147 424.5 91 424.5Z" fill="#EC1D21" stroke="black"/>
<line x1="15" y1="93" x2="112" y2="93" stroke="black" stroke-width="2"/>
</svg>
