<svg viewBox="0 0 629 496" fill="none" xmlns="http://www.w3.org/2000/svg">
<mask id="path-1-inside-1_1_256" fill="white">
<path d="M341 84H629V490H341V84Z"/>
</mask>

<path d="M341 84H629V490H341V84Z" fill="#ED1D21"/>
<path d="M341 490H341.5V84H341H340.5V490H341Z" fill="black" mask="url(#path-1-inside-1_1_256)"/>
<path d="M372 366.529C372 363.329 374.667 362.863 376 363.029C374.8 363.029 374.5 364.363 374.5 365.029V390.029C374.5 392.829 375.833 393.196 376.5 393.029H452C454.466 393.029 455.309 392.237 455.489 391.569C455.496 391.396 455.5 391.216 455.5 391.029C455.538 391.182 455.543 391.37 455.489 391.569C455.363 394.72 454.132 395.529 453.5 395.529H376.5C372.9 395.529 372 394.529 372 394.029V366.529Z" fill="#676A71"/>
<rect x="339" y="54" width="2" height="4" fill="#E2E2E2"/>
<rect x="339" y="478" width="2" height="4" fill="#E2E2E2"/>
<path d="M451.969 67.6358C451.969 67.8377 451.969 68.0397 451.969 69.169C451.969 70.2984 451.969 72.3489 451.946 73.4674C451.923 74.5859 451.876 74.7102 451.805 74.9451C451.633 75.5192 451.499 76.1535 451.382 76.7326C451.256 77.3517 451.106 77.9269 450.966 78.6688C450.875 79.154 450.609 79.8301 450.209 80.6638C449.809 81.4975 449.25 82.4607 448.884 83.05C448.079 84.2043 447.78 84.6294 447.671 84.7311C447.608 84.7862 447.53 84.8483 447.45 84.9123" stroke="#ED1D21" stroke-width="2" stroke-linecap="round"/>
<path d="M452.581 56.3378C452.378 57.984 452.221 58.4853 451.939 59.175C451.754 59.6292 451.452 60.0077 451.249 60.3601C450.881 60.9974 450.558 61.3268 450.323 61.6871C450.114 62.0058 450.118 62.2838 449.923 63.0001C449.757 63.6112 449.403 64.7105 449.056 66.2341C448.709 67.7577 448.367 69.6685 448.051 71.1189C447.735 72.5692 447.456 73.5013 447.063 74.5874C446.671 75.6734 446.173 76.8851 445.832 77.8821C445.49 78.8792 445.319 79.6249 445.154 80.2265C444.988 80.8281 444.833 81.2631 444.652 82.0231C444.471 82.7831 444.269 83.855 444.087 85.0364C443.905 86.2177 443.75 87.476 443.67 88.3184C443.59 89.1608 443.59 89.5492 443.637 89.6949C443.683 89.8406 443.776 89.7319 444.151 89.1865C444.525 88.6411 445.177 87.6624 445.824 86.902C446.471 86.1415 447.092 85.6288 447.723 85.1628C448.354 84.6967 448.975 84.2928 449.715 83.8906C450.454 83.4883 451.293 83.0999 452.021 82.83C452.748 82.56 453.338 82.4202 453.821 82.286C454.304 82.1518 454.661 82.0276 455.055 81.9325C455.449 81.8374 455.868 81.7752 456.674 81.7432C457.481 81.7112 458.661 81.7112 461.553 81.9831C464.445 82.2549 469.012 82.7987 472.53 83.0788C476.048 83.3588 478.378 83.3588 480.053 83.4365C481.727 83.5142 482.674 83.6695 483.17 83.7729C483.666 83.8762 483.682 83.9228 483.426 83.9934C483.17 84.064 482.641 84.1572 476.07 84.1975C469.499 84.2377 456.9 84.2222 450.215 84.1909C443.531 84.1596 443.143 84.113 442.904 84.089C442.665 84.065 442.587 84.065 442.539 84.0417C442.455 84.0003 442.46 83.6286 442.577 82.9484C442.645 82.5518 442.926 82.0972 443.388 81.5698C443.85 81.0423 444.533 80.4675 445.763 79.8141C446.993 79.1607 448.748 78.4461 450.857 77.7906C452.965 77.1351 455.373 76.5603 458.462 76.1166C461.551 75.6729 465.248 75.3777 466.935 75.1946C468.623 75.0115 468.188 74.9494 463.552 74.9173C458.916 74.8853 450.092 74.8853 445.407 74.9164C440.721 74.9475 440.442 75.0096 440.67 75.1737C440.899 75.3377 441.645 75.6018 444.701 76.134C447.757 76.6662 453.101 77.4585 456.242 77.9909C459.384 78.5233 460.16 78.7719 460.452 79.0009C460.743 79.2299 460.526 79.4318 460.08 79.6213C459.634 79.8108 458.966 79.9817 456.493 80.0852C454.021 80.1888 449.764 80.2199 447.455 80.2514C445.146 80.283 444.913 80.314 444.816 80.3378C444.719 80.3616 444.766 80.3771 447.143 80.3851C449.521 80.3931 454.228 80.3931 454.307 80.0203C454.386 79.6475 449.695 78.9018 447.13 78.4477C444.566 77.9937 444.271 77.8539 444.095 77.6731C443.92 77.4924 443.873 77.2749 443.849 74.3433C443.825 71.4117 443.825 65.7725 443.786 62.6345C443.748 59.4965 443.67 59.0305 443.63 57.6408C443.59 56.2511 443.59 53.952 443.621 52.7132C443.655 51.3629 443.809 51.176 443.895 51.0272C444.101 50.6708 444.811 50.7829 445.305 50.845C445.701 50.895 445.973 51.4391 446.364 52.4454C446.639 53.153 446.848 54.3371 446.984 55.4344C447.121 56.5317 447.121 57.5259 446.825 59.0479C446.53 60.5698 445.94 62.5893 445.597 64.4841C445.254 66.3789 445.176 68.0877 445.152 69.0457C445.127 70.0037 445.158 70.159 445.299 70.5342C445.439 70.9094 445.688 71.4997 445.901 71.9281C446.248 72.6248 446.648 73.0475 447.07 73.3688C447.514 73.7064 448.169 73.6614 448.849 73.6925C449.235 73.7101 449.7 73.7857 450.577 73.8099C451.454 73.8342 452.728 73.8186 453.812 73.5854C454.895 73.3521 455.749 72.9016 456.236 72.5685C456.723 72.2355 456.816 72.0335 456.864 71.8208C456.959 71.3984 456.99 70.9179 457.177 70.3781C457.28 70.0842 457.427 69.7607 457.499 69.08C457.571 68.3993 457.571 67.374 457.548 66.7604C457.518 65.9734 457.275 65.629 456.954 65.2458C456.588 64.8083 456.177 64.2647 455.606 63.7403C454.999 63.1826 454.372 62.8977 453.841 62.78C453.547 62.7149 453.185 62.74 452.876 62.8643C452.568 62.9885 452.32 63.2371 452.122 63.6215C451.924 64.0058 451.784 64.5185 451.665 65.1399C451.547 65.7613 451.453 66.4758 451.405 67.3644C451.357 68.2529 451.357 69.2938 451.443 70.0707C451.528 70.8477 451.699 71.3293 451.911 71.8337C452.345 72.8629 452.784 73.5498 453.05 73.8553C453.238 74.071 453.334 74.2103 453.459 74.2418C453.643 74.2882 453.774 73.4957 453.782 72.3668C453.785 71.9214 453.743 71.7351 453.665 71.5691C453.285 70.7615 452.378 70.4608 452.183 70.3125C452.076 70.2316 452.033 70.0554 452.001 69.6026C451.969 69.1497 451.969 68.404 452.024 67.8568C452.111 66.9726 452.47 66.352 452.868 65.7572C453.078 65.4446 453.376 65.1625 453.613 64.9405C453.85 64.7185 454.037 64.5787 454.001 65.2291C453.965 65.8794 453.701 67.3241 453.572 68.884C453.444 70.4438 453.46 72.075 453.732 73.459C454.004 74.843 454.532 75.9304 455.037 76.7392C455.542 77.5479 456.008 78.045 456.559 78.4565C457.11 78.8679 457.731 79.1786 461.197 79.3697C464.663 79.5608 470.955 79.623 474.53 79.7715C478.105 79.92 478.773 80.153 479.233 80.2886C479.927 80.4553 480.323 80.4873 480.612 80.5106C480.747 80.5339 480.855 80.5805 481.062 80.6285" stroke="#ED1D21" stroke-width="5" stroke-linecap="round"/>
<path d="M476.766 122.298C476.797 122.298 476.953 122.283 477.204 122.236C477.404 122.198 477.768 122.001 479.108 121.743C480.145 121.544 481.94 121.408 483.117 121.257C484.293 121.107 484.806 120.998 487.159 120.965C489.513 120.933 493.692 120.979 495.977 121.034C498.261 121.089 498.525 121.151 498.731 121.191C499.323 121.306 499.737 121.356 500.2 121.419C500.349 121.44 500.536 121.466 501.936 121.482C503.337 121.498 505.947 121.498 507.408 121.521C508.869 121.545 509.102 121.591 509.991 121.615C510.88 121.639 512.418 121.639 513.28 121.647C514.569 121.659 515.099 121.827 515.445 121.929C515.555 122.015 515.65 122.063 515.744 122.086C515.791 122.109 515.838 122.156 515.886 122.204" stroke="#ED1D21" stroke-width="5" stroke-linecap="round"/>
<path d="M444.439 48.8071C444.439 48.7118 444.566 48.5754 444.766 48.4033C444.851 48.3303 444.856 48.2392 444.864 47.9521C444.872 47.6651 444.872 47.1728 444.828 46.7524C444.785 46.3321 444.697 45.9986 444.644 45.7593C444.562 45.3877 444.559 45.1347 444.547 44.9187C444.536 44.7156 444.471 44.3344 444.435 43.8418C444.411 43.5138 444.351 43.2184 444.291 42.8624C444.228 42.4859 444.086 42.1754 444.03 41.8795C444 41.7167 443.927 41.536 443.866 41.303C443.806 41.07 443.75 40.792 443.718 40.5337C443.656 40.0473 443.645 39.7047 443.609 39.3934C443.585 39.1864 443.597 38.8757 443.577 38.617C443.542 38.1572 443.445 37.8757 443.389 37.7157C443.293 37.4414 443.284 37.2742 443.212 37.1215C443.129 36.9446 442.827 36.9128 442.711 36.8406C442.582 36.7606 442.523 36.5923 442.454 36.4877C442.372 36.362 442.234 36.2554 442.169 36.1509C442.098 36.0347 441.953 35.9027 441.841 35.7939C441.738 35.6951 441.608 35.6216 441.52 35.5493C441.374 35.4295 441.415 35.2366 441.339 35.1244C441.204 34.9244 441.103 34.8598 441.039 34.7393C440.975 34.6187 440.838 34.611 440.614 34.5825C440.526 34.5706 440.469 34.5545 440.417 34.5345C440.389 34.5225 440.357 34.5066 440.324 34.4902" stroke="#ED1D21" stroke-width="5" stroke-linecap="round"/>
<path d="M441.96 36.0746C441.985 36.0746 442.043 36.0538 442.102 36.0025C442.147 35.9634 442.196 35.9468 442.221 35.9228C442.228 35.9154 442.238 35.9071 442.248 35.8987C442.257 35.8903 442.265 35.882 442.274 35.8734" stroke="#ED1D21" stroke-width="5" stroke-linecap="round"/>
<path d="M441.815 35.7037C441.811 35.6995 441.825 35.6932 441.857 35.6723C441.882 35.6492 441.907 35.6284 441.917 35.6074C441.922 35.5989 441.928 35.5948 441.935 35.5905" stroke="#ED1D21" stroke-width="5" stroke-linecap="round"/>
<path d="M442.016 35.8797C442.029 35.8797 442.046 35.8755 442.067 35.863C442.104 35.819 442.108 35.7917 442.117 35.7792C442.121 35.7729 442.125 35.7667 442.129 35.7603" stroke="#ED1D21" stroke-width="5" stroke-linecap="round"/>
<path d="M441.501 35.6094C441.503 35.5864 441.524 35.5529 441.544 35.5277C441.56 35.5068 441.578 35.4796 441.607 35.4325C441.62 35.4188 441.629 35.4083 441.632 35.3926C441.633 35.3832 441.633 35.3707 441.645 35.3516" stroke="#ED1D21" stroke-width="5" stroke-linecap="round"/>
<path d="M443.462 37.5456C443.468 37.5331 443.498 37.5122 443.541 37.4818C443.6 37.44 443.634 37.4074 443.662 37.3812C443.691 37.3549 443.726 37.3196 443.753 37.29C443.783 37.2733 443.82 37.244 443.847 37.2C443.852 37.1915 443.858 37.1894 443.877 37.1873" stroke="#ED1D21" stroke-width="5" stroke-linecap="round"/>
<path d="M442.463 36.9421C442.469 36.915 442.494 36.8857 442.525 36.8448C442.556 36.8051 442.615 36.7809 442.65 36.7651C442.678 36.7524 442.706 36.7326 442.74 36.718C442.799 36.6928 442.825 36.6238 442.841 36.5985C442.856 36.5736 442.894 36.5608 442.921 36.5409C442.949 36.5231 442.978 36.5063 443.004 36.4895C443.012 36.4853 443.02 36.4812 443.028 36.4769" stroke="#ED1D21" stroke-width="5" stroke-linecap="round"/>
<path d="M443.035 36.9987C443.047 36.9966 443.085 36.9758 443.127 36.9475C443.158 36.9263 443.187 36.8962 443.218 36.8751C443.256 36.8486 443.271 36.8165 443.298 36.8028C443.311 36.7955 443.326 36.785 443.343 36.7735C443.351 36.7682 443.359 36.7641 443.374 36.7535" stroke="#ED1D21" stroke-width="5" stroke-linecap="round"/>
<path d="M443.349 37.1558C443.384 37.1393 443.426 37.0848 443.45 37.0616C443.473 37.0384 443.508 37.0155 443.543 36.9925C443.55 36.9862 443.556 36.98 443.565 36.9736C443.573 36.9673 443.584 36.9611 443.6 36.9547" stroke="#ED1D21" stroke-width="5" stroke-linecap="round"/>
<path d="M442.362 36.4203C442.358 36.4183 442.354 36.4162 442.353 36.411C442.345 36.3766 442.42 36.345 442.456 36.3271C442.48 36.3151 442.527 36.301 442.566 36.2894C442.606 36.2775 442.632 36.2653 442.648 36.2465C442.658 36.235 442.68 36.2276 442.69 36.2078C442.677 36.19 442.649 36.1814 442.623 36.1794C442.612 36.1773 442.603 36.1731 442.582 36.1626" stroke="#ED1D21" stroke-width="5" stroke-linecap="round"/>
<path d="M445.405 40.0477C445.43 40.0456 445.463 40.0165 445.521 39.9692C445.566 39.9321 445.639 39.8762 445.728 39.785C445.756 39.7569 445.757 39.7023 445.751 39.6364C445.742 39.5474 445.683 39.5197 445.6 39.4194C445.557 39.3673 445.502 39.273 445.474 39.1992C445.465 39.1754 445.468 39.0741 445.471 38.94C445.472 38.8707 445.522 38.8408 445.552 38.8073C445.59 38.766 445.622 38.7486 445.653 38.7317C445.662 38.7276 445.675 38.7213 445.684 38.7171C445.694 38.7128 445.7 38.7108 445.719 38.6961" stroke="#ED1D21" stroke-width="5" stroke-linecap="round"/>
<path d="M444.455 38.0737C444.455 38.0654 444.458 38.0507 444.464 38.034C444.473 38.0088 444.522 37.9962 444.561 37.9784C444.598 37.9617 444.629 37.9312 444.66 37.9145C444.669 37.9082 444.682 37.8999 444.693 37.8946C444.705 37.8893 444.715 37.8872 444.726 37.8851" stroke="#ED1D21" stroke-width="5" stroke-linecap="round"/>
<path d="M444.896 38.8281C444.914 38.7778 444.935 38.7362 444.958 38.6993C444.986 38.6556 445.032 38.625 445.062 38.5956C445.084 38.5744 445.097 38.539 445.117 38.5159C445.137 38.4918 445.178 38.4762 445.203 38.4552C445.233 38.4216 445.258 38.3923 445.268 38.3756C445.275 38.3671 445.283 38.3588 445.292 38.3503" stroke="#ED1D21" stroke-width="5" stroke-linecap="round"/>
<path d="M445.323 38.6646C445.327 38.6688 445.348 38.6709 445.379 38.6668C445.422 38.6611 445.434 38.6145 445.465 38.5778C445.474 38.5683 445.48 38.56 445.486 38.5526C445.493 38.5452 445.499 38.539 445.505 38.5326" stroke="#ED1D21" stroke-width="5" stroke-linecap="round"/>
<path d="M444.795 38.3063C444.795 38.2938 444.799 38.2687 444.815 38.2446C444.83 38.2204 444.864 38.2121 444.889 38.1932C444.901 38.1841 444.921 38.1806 444.941 38.1774C444.963 38.1555 444.975 38.1366 444.986 38.1272C444.992 38.124 445 38.124 445.015 38.1177" stroke="#ED1D21" stroke-width="5" stroke-linecap="round"/>
<path d="M444.085 37.6085C444.114 37.5981 444.151 37.5646 444.162 37.5269C444.168 37.506 444.179 37.4891 444.191 37.4735C444.198 37.464 444.204 37.4516 444.21 37.4388" stroke="#ED1D21" stroke-width="5" stroke-linecap="round"/>
<path d="M444.342 37.7531C444.372 37.7531 444.409 37.7489 444.442 37.7343C444.455 37.7259 444.47 37.7113 444.486 37.6945C444.493 37.6881 444.499 37.6861 444.518 37.6714" stroke="#ED1D21" stroke-width="5" stroke-linecap="round"/>
<path d="M446.205 42.6194C446.194 42.6876 446.194 42.8021 446.265 43.09C446.317 43.3021 446.455 43.6334 446.573 43.9081C446.691 44.1828 446.799 44.3872 446.917 44.7678C447.035 45.1484 447.16 45.6991 447.239 46.0225C447.337 46.4276 447.386 46.5641 447.403 46.6927C447.409 46.8496 447.432 46.9885 447.466 47.1822C447.478 47.3249 447.478 47.5577 447.478 47.7975" stroke="#ED1D21" stroke-width="5" stroke-linecap="round"/>
<path d="M448.889 47.2298C448.889 47.2752 448.889 47.3206 448.892 47.7329C448.894 48.1452 448.9 48.9229 448.923 49.3775C448.946 49.8321 448.985 49.9399 449.049 50.2056C449.112 50.4712 449.197 50.8913 449.414 51.6725C449.631 52.4538 449.977 53.5835 450.218 54.5316C450.459 55.4798 450.584 56.2121 450.679 56.7001C450.775 57.188 450.837 57.4094 450.872 57.6086C450.937 57.9748 450.958 58.2558 451.019 58.4504C451.039 58.6222 451.056 58.7552 451.082 58.8553C451.091 58.9044 451.091 58.9498 451.091 58.9966" stroke="#ED1D21" stroke-width="5" stroke-linecap="round"/>
<path d="M448.53 52.5483C448.595 52.6352 448.66 52.7221 449.389 53.9185C450.118 55.1149 451.509 57.4182 453.42 60.0062C455.332 62.5942 457.722 65.3972 459.268 67.2758C460.815 69.1543 461.445 70.0235 462.215 71.0036C462.985 71.9837 463.876 73.0484 464.682 74.1401C465.489 75.2318 466.184 76.3182 466.912 77.3125C467.639 78.3067 468.378 79.1759 469.019 79.8627C469.661 80.5494 470.182 81.0274 470.484 81.2737C470.785 81.52 470.85 81.52 470.547 81.1832C470.244 80.8464 469.57 80.1728 468.636 79.4238C467.703 78.6748 466.529 77.8708 464.545 76.6527C462.561 75.4346 459.801 73.8267 457.912 72.6507C456.024 71.4747 455.089 70.7794 454.336 70.117C453.583 69.4546 453.04 68.8462 452.652 68.3372C451.67 67.0504 451.692 66.6838 451.603 66.3661C451.544 66.1565 451.449 65.8944 451.329 65.5335C451.17 65.0546 451.01 64.5129 450.76 63.1071C450.559 61.9786 450.097 60.0282 449.873 58.9122C449.524 57.1738 449.518 56.4581 449.626 55.932C449.676 55.6901 449.952 55.5798 450.314 55.5126C450.676 55.4455 451.176 55.4455 451.781 55.6301C452.386 55.8148 453.081 56.1842 454.113 56.8308C455.145 57.4774 456.492 58.39 457.403 59.1426C458.314 59.8952 458.749 60.4602 459.016 60.8273C459.284 61.1944 459.371 61.3465 459.883 62.0549C460.394 62.7634 461.329 64.0237 462.419 65.7268C463.508 67.4299 464.725 69.5375 465.515 70.7754C466.539 72.38 467.119 72.8265 467.479 73.2314C467.901 73.7051 468.413 74.0993 469.144 74.711C469.654 75.1377 470.548 75.6703 471.246 76.0483C472.405 76.6763 473.132 76.8009 473.874 76.9859C475.42 77.3718 476.513 77.7885 476.927 77.941C477.686 78.2198 478.55 78.7091 479.383 79.0047C480.055 79.2434 480.789 79.5216 481.6 79.7405C482.669 80.0293 483.489 80.2018 484.226 80.2798C484.917 80.353 485.357 80.4217 486.691 80.7608C487.226 80.8967 487.913 81.1855 488.706 81.4284C489.498 81.6714 490.368 81.8887 490.978 82.0224C491.91 82.2262 492.664 82.2443 493.485 82.2986C494.299 82.3524 495.295 82.5735 496.337 82.6061C496.771 82.6197 497.009 82.7039 497.675 82.7374C498.341 82.771 499.428 82.771 500.194 82.8253C500.96 82.8797 501.373 82.9883 501.77 83.0443C502.168 83.1002 502.537 83.1002 499.674 83.1002C496.812 83.1002 490.706 83.1002 487.55 83.0351C484.394 82.9699 484.372 82.8395 485.165 82.479C485.957 82.1185 487.565 81.5318 488.589 81.1318C490.019 80.5732 490.516 80.313 490.724 80.2801C490.908 80.2509 491.174 80.2037 491.915 80.105C493.426 79.9037 494.619 80.0279 494.959 79.9621C495.361 79.8841 495.63 79.7435 496.308 79.5124C496.52 79.4403 496.705 79.4136 496.924 79.2931C497.032 79.2336 497.143 79.1943 497.069 79.0524C496.994 78.9105 496.733 78.6715 495.839 78.342C494.944 78.0124 493.423 77.5996 492.585 77.3434C491.622 77.0491 491.092 76.6284 490.281 76.1352C489.913 75.9112 489.601 75.7941 488.38 75.1294C487.158 74.4647 485.029 73.2696 483.769 72.6214C482.223 71.8258 481.521 71.7321 480.897 71.5458C480.349 71.3822 479.744 71.2278 479.109 70.8887C478.476 70.5512 477.987 70.1301 477.505 69.8457C477.003 69.5494 476.256 68.8172 475.248 67.875C474.779 67.4359 474.328 67.15 473.822 66.7543C473.315 66.3586 472.75 65.8805 472.242 65.3192C471.734 64.7579 471.299 64.1277 470.912 63.6184C470.525 63.1091 470.199 62.7397 469.749 62.1692C468.712 60.8552 468.021 59.9459 467.748 59.6944C467.599 59.5575 467.452 59.3777 466.961 58.9296C466.47 58.4816 465.644 57.7645 465.121 57.3517C464.434 56.8094 464.071 56.632 463.656 56.2823C462.976 55.7092 462.293 55.3368 461.628 54.9006C461.148 54.5865 460.419 54.0298 459.962 53.663C459.506 53.2963 459.353 53.1225 458.678 52.6527C458.002 52.1828 456.807 51.4223 456.137 50.9871C455.129 50.3326 454.765 49.9817 453.779 49.1823C453.266 48.7662 452.79 48.4238 452.23 47.9191C451.753 47.4882 451.21 47.3466 450.716 47.2481C450.596 47.2243 450.485 47.2583 450.419 47.3673C450.038 47.9887 450.044 49.2482 450.132 50.2082C450.16 50.5226 450.416 50.7692 451.037 51.3035C451.532 51.729 452.462 52.381 453.128 52.8041C453.794 53.2271 454.185 53.3792 454.625 53.5988C455.066 53.8184 455.544 54.1009 456.453 54.681C457.362 55.2611 458.687 56.1302 459.555 56.7627C460.841 57.7004 461.52 58.3624 462.123 58.7785C462.577 59.0921 462.882 59.4607 463.569 60.0167C464.075 60.4258 464.844 61.1595 465.42 61.6484C465.997 62.1373 466.345 62.3763 466.817 62.8145C467.29 63.2527 467.876 63.8828 468.874 64.718C469.871 65.5533 471.262 66.5745 472.152 67.1984C473.368 68.0504 473.966 68.4149 474.393 68.7655C474.766 69.0724 475.347 69.5105 476.254 70.2875C476.78 70.7378 477.574 71.1297 478.161 71.4296C478.749 71.7295 479.14 71.8816 479.58 72.0903C480.021 72.2991 480.499 72.5598 481.386 72.8897C482.273 73.2196 483.555 73.6107 484.444 73.9208C485.808 74.3969 486.52 74.759 487.045 74.9994C487.63 75.2668 488.209 76.0068 488.768 76.8822C489.297 77.7087 488.893 78.4463 488.719 78.6106C488.621 78.7025 488.457 78.7532 487.824 78.7542C487.192 78.7551 486.084 78.69 485.111 78.4717C484.138 78.2534 483.334 77.884 482.301 77.2374C481.267 76.5908 480.029 75.6782 479.228 75.0234C478.427 74.3686 478.101 73.9992 477.487 73.4286C476.874 72.8581 475.983 72.0976 475.264 71.5537C474.544 71.0098 474.022 70.7056 473.558 70.4729C472.72 70.0525 471.952 69.7357 471.284 69.3851C470.702 69.0793 470.108 68.8574 468.789 67.9099C467.728 67.1476 465.971 65.6804 464.977 64.8981C463.847 64.0086 463.522 63.7873 463.194 63.4808C462.842 63.152 462.36 62.9307 461.954 62.875C461.289 62.7839 461.939 64.6367 462.463 65.7307C462.761 66.3528 463.334 66.9986 463.809 67.5629C464.285 68.1271 464.697 68.5617 465.149 68.9268C465.601 69.2919 466.079 69.5744 466.618 69.9481C467.158 70.3218 467.745 70.7781 468.883 71.4694C470.022 72.1608 471.695 73.0734 472.601 73.587C473.61 74.1593 473.9 74.4291 474.87 74.9312C475.607 75.3128 476.905 75.8244 477.685 76.1368C478.694 76.5409 479.081 76.6033 479.343 76.6797C479.63 76.763 480.37 77.0847 481.499 77.348C482.328 77.5414 482.942 77.3724 483.37 77.0998C483.909 76.7556 483.844 75.5781 483.91 74.5803C483.946 74.029 484.086 73.4691 483.89 72.3873C483.767 71.7014 483.304 70.8057 482.95 70.2269C482.167 68.9456 481.804 68.7263 481.006 68.0139C479.993 67.1086 479.239 66.992 478.547 66.6404C477.979 66.3518 477.329 65.9595 476.615 65.5325C475.994 65.1611 475.55 64.8836 474.905 64.4688C474.008 63.8923 473.224 63.3705 472.851 63.0637C472.267 62.5823 471.666 62.1853 470.56 61.2767C469.901 60.7354 469.316 60.451 468.847 59.971C468.517 59.6334 468.052 59.0564 467.327 58.3525C466.603 57.6486 465.647 56.8229 465.057 56.3324C463.853 55.332 463.041 54.7449 462.622 54.3386C461.98 53.7155 460.78 52.9894 460.219 52.6154C459.993 52.4642 459.4 52.0031 458.566 51.4329C457.787 50.9004 457.026 50.2464 456.663 49.9701C456.219 49.633 455.71 49.3232 455.259 49.0269C454.498 48.5267 453.822 47.9629 453.12 47.5019C452.461 47.0699 451.979 46.8435 451.004 45.9902C450.1 45.1991 449.431 44.6917 449.245 44.484C448.747 43.9279 448.311 43.4854 447.841 43.0245C447.277 42.4717 446.559 42.1685 445.986 41.7514C445.832 41.6411 445.637 41.5325 445.449 41.4439C445.261 41.3553 445.088 41.2902 444.843 41.1572" stroke="#ED1D21" stroke-width="5" stroke-linecap="round"/>
<path d="M489.024 77.8327C489.068 77.8327 489.46 77.8327 490.258 77.8979C491.183 77.9734 491.897 78.3581 492.379 78.5882C493.267 79.0126 494.09 79.3234 494.652 79.5436C495.142 79.7358 495.889 80.0701 496.766 80.3545C497.503 80.5939 497.999 80.905 498.404 81.0034C498.755 81.0886 499.575 81.3863 500.66 81.6826C501.465 81.9022 501.906 82.156 502.847 82.6153C504.014 83.1845 504.826 83.5388 505.45 83.8558C506.237 84.2561 506.972 84.6555 508.274 85.2033C509.592 85.7577 510.532 85.7999 511.208 85.8651C512.544 85.9939 513.604 86.195 514.183 86.2384C515.777 86.358 516.5 86.6559 517.061 86.7652C517.594 86.7876 518.039 86.8527 518.247 86.9624C518.346 87.0068 518.433 87.0285 518.589 87.1168" stroke="#ED1D21" stroke-width="5" stroke-linecap="round"/>
<path d="M525.703 124.342C525.711 124.334 525.622 124.281 525.233 124.165C524.942 124.078 524.442 124.012 524.106 123.964C523.77 123.916 523.607 123.908 523.493 123.897C523.242 123.875 523.154 123.83 522.945 123.795C522.79 123.769 522.625 123.748 522.445 123.711C522.203 123.662 522.051 123.543 521.979 123.514C521.831 123.455 521.666 123.35 521.52 123.272C521.417 123.217 521.349 123.169 521.298 123.143C521.191 123.087 521.006 122.969 520.813 122.863C520.743 122.824 520.726 122.821 520.617 122.819C520.304 122.813 520.078 122.805 520.044 122.784C520.009 122.764 519.923 122.768 519.79 122.751C519.475 122.713 519.332 122.604 519.236 122.579C519.137 122.554 518.936 122.489 518.775 122.44C518.743 122.43 518.709 122.423 518.614 122.395C518.414 122.335 518.234 122.309 518.164 122.264C518.136 122.246 518.119 122.243 518.007 122.202C517.895 122.162 517.688 122.085 517.555 122.039C517.371 121.975 517.27 121.948 517.187 121.907C516.984 121.808 516.721 121.702 516.637 121.636C516.556 121.574 516.447 121.53 516.266 121.452C516.182 121.416 516.021 121.341 515.816 121.258C515.654 121.191 515.545 121.149 515.315 121.022C515.262 120.992 515.225 120.976 515.198 120.966C515.156 120.95 515.325 120.984 515.671 121.062C515.961 121.127 516.105 121.197 516.159 121.204C516.318 121.222 516.474 121.283 516.691 121.331C516.962 121.39 517.028 121.451 517.096 121.48C517.194 121.522 517.351 121.566 517.544 121.638C517.69 121.692 517.811 121.714 517.878 121.747C517.962 121.787 518.109 121.837 518.277 121.906C518.351 121.937 518.405 121.952 518.517 121.996C518.629 122.041 518.8 122.114 519.001 122.195C519.203 122.275 519.43 122.36 519.574 122.41C519.768 122.478 519.869 122.525 520.011 122.617C520.105 122.677 520.26 122.73 520.372 122.769C520.55 122.832 520.676 122.862 520.833 122.911C520.937 122.943 521.092 122.976 521.393 123.06C521.693 123.144 522.136 123.273 522.388 123.34C522.64 123.407 522.689 123.407 522.763 123.417C522.935 123.441 523.119 123.469 523.265 123.471C523.411 123.473 523.509 123.505 523.837 123.636C524.063 123.705 524.477 123.819 524.871 123.89C525.265 123.96 525.626 123.985 525.998 124.01" stroke="#ED1D21" stroke-width="5" stroke-linecap="round"/>
<path d="M515.064 121.685C514.967 121.653 514.815 121.624 514.645 121.606C514.421 121.581 514.192 121.538 514.085 121.499C513.952 121.451 513.888 121.415 513.606 121.27C513.482 121.206 513.348 121.075 513.165 120.948C513.035 120.858 512.933 120.702 512.831 120.543C512.756 120.426 512.736 120.333 512.585 120.234C512.507 120.184 512.429 120.136 512.394 120.087C512.362 120.043 512.363 119.988 512.385 119.88C512.4 119.808 512.481 119.775 512.514 119.734C512.588 119.718 512.637 119.705 512.656 119.687C512.666 119.681 512.678 119.681 512.691 119.681" stroke="#ED1D21" stroke-width="5" stroke-linecap="round"/>
<path d="M514.117 120.874C514.142 120.857 514.167 120.759 514.179 120.665C514.191 120.558 514.199 120.443 514.244 120.39C514.261 120.374 514.281 120.353 514.302 120.332" stroke="#ED1D21" stroke-width="5" stroke-linecap="round"/>
<path d="M513.318 120.234C513.33 120.185 513.346 120.128 513.377 120.07C513.383 120.054 513.388 120.034 513.394 120.017C513.4 120.001 513.408 119.988 513.416 119.964" stroke="#ED1D21" stroke-width="5" stroke-linecap="round"/>
<path d="M515.458 120.849V121.095" stroke="#ED1D21" stroke-width="5" stroke-linecap="round"/>
<path d="M514.868 120.738C514.859 120.73 514.855 120.714 514.857 120.689C514.863 120.665 514.88 120.644 514.904 120.628C514.917 120.62 514.929 120.611 514.941 120.603" stroke="#ED1D21" stroke-width="5" stroke-linecap="round"/>
<path d="M516.036 121.12C516.04 121.12 516.044 121.12 516.05 121.109C516.056 121.099 516.065 121.079 516.085 121.058" stroke="#ED1D21" stroke-width="5" stroke-linecap="round"/>
<path d="M516.503 121.218L516.54 121.206" stroke="#ED1D21" stroke-width="5" stroke-linecap="round"/>
<path d="M515.335 121.009C515.327 121.001 515.323 120.964 515.327 120.909C515.339 120.874 515.359 120.853 515.384 120.833C515.396 120.82 515.408 120.804 515.421 120.788" stroke="#ED1D21" stroke-width="5" stroke-linecap="round"/>
<path d="M530.44 88.059C530.415 87.9533 530.391 87.7398 530.368 87.6577C530.346 87.5753 530.342 87.4935 530.287 87.4465C530.176 87.3522 530.108 87.309 530.065 87.2638C530.054 87.2519 530.03 87.2515 530.018 87.2433C529.996 87.2289 529.997 87.1861 530.005 87.141C530.019 87.0638 530.108 87.0508 530.177 87.028C530.237 87.0084 530.54 86.989 530.725 87.0073C530.771 87.012 530.784 87.0992 530.833 87.1833C530.948 87.3807 531.091 87.37 531.155 87.4193C531.212 87.4628 531.255 87.5176 531.313 87.5465C531.372 87.5761 531.485 87.6037 531.571 87.6367C531.675 87.6764 531.731 87.6817 531.782 87.6921C531.851 87.706 531.932 87.727 532.004 87.7576C532.03 87.7639 532.071 87.7639 532.1 87.7659C532.129 87.7679 532.145 87.772 532.186 87.7885" stroke="#ED1D21" stroke-width="5" stroke-linecap="round"/>
<path d="M521 89.0369C521.004 89.0369 521.008 89.0369 521.02 89.0308C521.033 89.0247 521.053 89.0125 521.074 89" stroke="#ED1D21" stroke-width="5" stroke-linecap="round"/>
<path d="M528.049 88.0861C528.037 88.0861 528.025 88.0861 528.017 88.08C528.008 88.0739 528.004 88.0617 528.002 88.0474C528 88.033 528 88.0167 528 88" stroke="#ED1D21" stroke-width="5" stroke-linecap="round"/>
<path d="M508.316 83.1913C508.111 83.0317 508.021 82.9579 507.88 82.8477C507.678 82.6891 507.554 82.5355 507.513 82.5048C507.453 82.4604 507.398 82.4083 507.326 82.3634C507.185 82.2747 506.997 82.216 506.818 82.136C506.772 82.1153 506.722 82.0728 506.129 81.8105C505.536 81.5482 504.403 81.0611 503.787 80.7879C503.172 80.5147 503.107 80.47 502.99 80.4024C502.71 80.24 502.519 80.1413 502.468 80.1086C502.384 80.0545 502.274 80.0183 502.147 79.9816C501.846 79.8942 501.773 79.8174 501.616 79.7275C501.576 79.7027 501.552 79.6824 501.529 79.6679C501.507 79.6534 501.486 79.6452 501.465 79.6369" stroke="#ED1D21" stroke-width="5" stroke-linecap="round"/>
<path d="M524 87.5914C524.024 87.5914 524.053 87.5792 524.08 87.5547C524.124 87.5138 524.155 87.3749 524.231 87.2944C524.293 87.2291 524.385 87.1897 524.453 87.159C524.509 87.1334 524.553 87.1159 524.633 87.0464C524.664 87.0217 524.689 87.0133 524.713 87.0093C524.726 87.0052 524.738 86.9971 524.763 87.001" stroke="#ED1D21" stroke-width="5" stroke-linecap="round"/>
<path d="M521 86.1599C521.008 86.1599 521.024 86.1599 521.051 86.1518C521.111 86.0985 521.143 86.0616 521.162 86.0371C521.172 86.0247 521.184 86.0125 521.197 86" stroke="#ED1D21" stroke-width="5" stroke-linecap="round"/>
<path d="M518.012 85.0738C518.02 85.0738 518.029 85.0738 518.035 85.0677C518.041 85.0616 518.045 85.0494 518.041 85.0371C518.037 85.0247 518.025 85.0125 518 85" stroke="#ED1D21" stroke-width="5" stroke-linecap="round"/>
<path d="M514.011 84.3075C514.007 84.3034 514.003 84.2994 514.001 84.2891C513.999 84.2789 513.999 84.2627 514.015 84.2442C514.093 84.155 514.159 84.1395 514.208 84.1292C514.302 84.0984 514.421 84.0862 514.427 84.0576C514.429 84.0412 514.429 84.0209 514.429 84" stroke="#ED1D21" stroke-width="5" stroke-linecap="round"/>
<path d="M512.012 83.1107C512.008 83.1066 512.004 83.1026 512.002 83.0842C512 83.0659 512 83.0335 512 83" stroke="#ED1D21" stroke-width="5" stroke-linecap="round"/>
<path d="M505.782 81.4571C505.807 81.3916 505.905 81.3265 505.991 81.2626C506.054 81.2159 506.114 81.1784 506.172 81.1478C506.224 81.1197 506.27 81.0801 506.336 81.0555C506.352 81.0513 506.368 81.0513 506.383 81.0452C506.397 81.0391 506.409 81.0269 506.422 81.0144" stroke="#ED1D21" stroke-width="5" stroke-linecap="round"/>
<path d="M507.369 81.8138C507.418 81.777 507.475 81.7361 507.549 81.689C507.566 81.6746 507.578 81.6584 507.59 81.65C507.603 81.6416 507.615 81.6416 507.652 81.617" stroke="#ED1D21" stroke-width="5" stroke-linecap="round"/>
<path d="M507.098 81.5186C507.094 81.5146 507.09 81.5105 507.088 81.4881C507.086 81.4657 507.086 81.4252 507.086 81.3833" stroke="#ED1D21" stroke-width="5" stroke-linecap="round"/>
<path d="M510 82.2337C510.008 82.2256 510.016 82.2051 510.023 82.1663C510.025 82.1154 510.033 82.0739 510.045 82.0474C510.049 82.033 510.049 82.0167 510.049 82" stroke="#ED1D21" stroke-width="5" stroke-linecap="round"/>
<path d="M501 79.0356C501.036 78.9423 501.156 78.8398 501.264 78.7549C501.391 78.6551 501.605 78.4908 501.753 78.4055C501.876 78.335 502.032 78.2521 502.284 78.2307C502.516 78.2111 502.813 78.1499 502.91 78.1369C503.005 78.1241 503.131 78.0389 503.249 78.0135C503.43 77.9744 503.72 78.0216 503.888 78.1364C504.013 78.2222 504.069 78.3195 504.21 78.5279C504.29 78.6463 504.44 78.7197 504.564 78.8181C504.632 78.8723 504.711 78.8823 504.834 78.9671C504.941 79.0408 505.036 79.0438 505.111 79.112C505.217 79.2085 505.354 79.2656 505.462 79.3207C505.557 79.3689 505.612 79.4613 505.726 79.5335C505.873 79.6264 505.96 79.7333 506.063 79.7851C506.195 79.8521 506.363 79.9551 506.441 80.0066C506.512 80.0532 506.585 80.1002 506.669 80.181C506.793 80.3 506.915 80.364 506.997 80.4239C507.071 80.4782 507.227 80.6865 507.354 80.8369C507.485 80.9916 507.588 81.0458 507.72 81.0883C507.811 81.1177 507.883 81.2333 507.967 81.2588C508.105 81.3006 508.189 81.3862 508.309 81.4461C508.413 81.4982 508.477 81.5906 508.564 81.6463C508.644 81.6974 508.717 81.7439 508.784 81.7954C508.819 81.8124 508.868 81.838 508.922 81.8804C508.946 81.906 508.964 81.9397 509 82" stroke="#ED1D21" stroke-width="5" stroke-linecap="round"/>
<path d="M496.042 77.3493C496.033 77.3411 496.029 77.2964 496.043 77.2065C496.061 77.0935 496.192 77.0012 496.328 76.9336C496.486 76.8541 496.627 76.8696 496.75 76.839C497.045 76.7655 497.168 76.8858 497.283 76.9023C497.46 76.9277 497.681 77.0292 497.753 77.0438C497.812 77.0558 497.943 77.0866 498.107 77.1604C498.234 77.2174 498.304 77.214 498.396 77.2547C498.661 77.3719 498.723 77.3859 498.774 77.4005C498.848 77.4216 498.956 77.4393 499.065 77.4537C499.252 77.4787 499.301 77.5008 499.378 77.5377C499.478 77.5849 499.534 77.5952 499.614 77.634C499.718 77.6842 499.784 77.7057 499.856 77.7509C499.919 77.7902 499.985 77.7918 500.059 77.8064C500.116 77.8177 500.198 77.8329 500.266 77.8637C500.353 77.9029 500.432 77.9352 500.496 77.9744C500.571 78.0206 500.678 78.0419 500.752 78.083C500.826 78.1239 500.985 78.1974 501.098 78.2592C501.193 78.311 501.268 78.3494 501.328 78.3639C501.392 78.3793 501.441 78.4313 501.51 78.4663C501.565 78.494 501.641 78.5216 501.74 78.585C501.892 78.6831 501.982 78.6776 502.066 78.7204C502.131 78.7535 502.215 78.7637 502.267 78.7943C502.308 78.8189 502.363 78.8128 502.42 78.8516C502.515 78.9153 502.58 78.9725 502.638 79.0013C502.708 79.0367 502.805 79.079 502.9 79.1222C502.929 79.1447 502.958 79.1613 502.988 79.1715C503.003 79.1776 503.015 79.1858 503.04 79.2187" stroke="#ED1D21" stroke-width="5" stroke-linecap="round"/>
<path d="M491 74.8336C491.049 74.6664 491.082 74.412 491.127 74.3071C491.169 74.2097 491.287 74.1453 491.434 74.104C491.5 74.0854 491.549 74.067 491.734 74.0608C491.899 74.0554 492.207 74.0588 492.388 74.0628C492.615 74.0679 492.681 74.0955 492.75 74.118C492.975 74.1911 493.155 74.1694 493.269 74.1531C493.325 74.1451 493.361 74.0836 493.423 74.069C493.483 74.0546 493.57 74.0385 493.764 74.0097C493.895 73.9902 494.099 74.0054 494.22 74.0095C494.435 74.0168 494.55 74.0624 494.695 74.1242C494.793 74.1655 494.866 74.1692 494.944 74.1858C495 74.1977 495.087 74.2307 495.171 74.2555C495.253 74.2796 495.329 74.2964 495.531 74.3517C495.625 74.3772 495.686 74.3989 495.747 74.4276C495.814 74.4586 495.87 74.485 495.944 74.5219C496.014 74.5567 496.091 74.5955 496.194 74.6673C496.255 74.71 496.35 74.7431 496.393 74.7904C496.434 74.8349 496.518 74.8252 496.581 74.8581C496.636 74.886 496.69 74.9236 496.748 74.936C496.826 74.9531 496.879 75.0097 496.969 75.0425C497.145 75.1066 497.219 75.1492 497.274 75.188C497.333 75.2289 497.391 75.268 497.489 75.3273C497.613 75.402 497.698 75.4522 497.766 75.4976C497.832 75.5415 497.899 75.5878 497.977 75.6226C498.038 75.6497 498.096 75.6862 498.148 75.719C498.205 75.7557 498.264 75.7764 498.32 75.8112C498.373 75.8444 498.428 75.8625 498.486 75.9014C498.564 75.9545 498.621 75.9813 498.687 76.0182C498.758 76.0582 498.797 76.1124 498.863 76.1413C498.927 76.1692 499.002 76.2477 499.096 76.2908C499.218 76.3464 499.285 76.3914 499.351 76.42C499.45 76.4632 499.58 76.5387 499.64 76.5738C499.724 76.6232 499.777 76.6701 499.881 76.7253C500.02 76.7987 500.08 76.8792 500.132 76.9242C500.202 76.9853 500.306 77.043 500.374 77.074C500.445 77.1063 500.56 77.1456 500.642 77.1806C500.712 77.2103 500.794 77.2442 500.857 77.2809C500.975 77.3485 501.134 77.4324 501.218 77.4798C501.287 77.5187 501.331 77.5679 501.496 77.6782C501.741 77.8414 501.847 77.8712 501.911 77.9103C501.984 77.9553 502.04 77.9903 502.094 78.0271C502.143 78.0615 502.212 78.113 502.266 78.1522C502.309 78.1842 502.372 78.2237 502.426 78.2445C502.45 78.2567 502.475 78.2772 502.499 78.2997C502.512 78.31 502.524 78.3181 502.549 78.3511" stroke="#ED1D21" stroke-width="5" stroke-linecap="round"/>
<path d="M481.541 69.9509C481.562 69.8548 481.622 69.6506 481.809 69.4121C481.936 69.25 482.253 69.0784 482.492 68.9239C482.732 68.7694 482.909 68.6735 483.007 68.6165C483.211 68.4976 483.391 68.3658 483.46 68.3099C483.512 68.267 483.571 68.203 483.651 68.1268C483.764 68.0211 483.933 67.9533 484.081 67.8896C484.289 67.7993 484.515 67.6881 484.66 67.6523C484.812 67.6148 485.023 67.5808 485.166 67.5555C485.443 67.5066 485.498 67.4383 485.556 67.4101C485.697 67.3413 485.989 67.4325 486.066 67.4737C486.122 67.5034 486.203 67.4991 486.259 67.5475C486.314 67.5951 486.395 67.6163 486.468 67.6621C486.56 67.7199 486.626 67.764 486.663 67.8354C486.697 67.9018 486.754 67.9273 486.853 68.0137C486.914 68.0677 486.989 68.131 487.073 68.2049C487.126 68.2523 487.182 68.2689 487.252 68.3145C487.313 68.3535 487.383 68.4062 487.438 68.4421C487.504 68.4844 487.562 68.5285 487.637 68.5593C487.78 68.6183 487.878 68.712 487.938 68.758C487.993 68.8001 488.062 68.8496 488.143 68.8905C488.236 68.9374 488.318 69.0227 488.402 69.0665C488.475 69.1045 488.524 69.1808 488.584 69.2219C488.659 69.2733 488.741 69.3389 488.831 69.4129C488.89 69.4611 488.921 69.5377 488.979 69.6142C489.043 69.6986 489.122 69.7772 489.207 69.836C489.296 69.8965 489.353 69.9961 489.415 70.0451C489.477 70.0937 489.528 70.1445 489.609 70.1927C489.736 70.2681 489.789 70.3481 489.859 70.384C489.931 70.4205 489.972 70.4809 490.068 70.5317C490.128 70.5633 490.194 70.6133 490.293 70.6693C490.366 70.7109 490.438 70.7711 490.6 70.8654C490.688 70.9165 490.75 70.9699 490.855 71.0211C490.95 71.0678 491.168 71.2494 491.295 71.3422C491.351 71.3827 491.446 71.4286 491.813 71.6854C491.93 71.7672 491.985 71.8161 492.034 71.8773C492.097 71.9554 492.177 72.0096 492.235 72.0507C492.324 72.1139 492.518 72.269 492.645 72.3412C492.744 72.3972 492.818 72.4534 492.887 72.4967C492.943 72.5318 492.998 72.5806 493.181 72.7256C493.276 72.8009 493.412 72.876 493.498 72.9324C493.583 72.9886 493.695 73.0497 493.863 73.1716C494.071 73.3221 494.224 73.4164 494.297 73.4727C494.374 73.5316 494.552 73.6757 494.695 73.7987C494.774 73.8678 494.844 73.9161 494.9 73.9544C494.972 74.0039 495.122 74.084 495.22 74.1328C495.314 74.2117 495.417 74.2932 495.479 74.3392C495.494 74.3494 495.511 74.3595 495.541 74.3852" stroke="#ED1D21" stroke-width="5" stroke-linecap="round"/>
<path d="M486.83 69.6624C486.83 69.6461 486.834 69.6256 486.846 69.6011C486.854 69.5887 486.866 69.5765 486.873 69.5236C486.879 69.4706 486.879 69.3773 486.879 69.2811" stroke="#ED1D21" stroke-width="5" stroke-linecap="round"/>
<path d="M490.064 72.1591C490.077 72.0414 490.06 71.7131 489.976 71.5651C489.93 71.4825 489.88 71.4256 489.857 71.3619C489.84 71.3126 489.822 71.2534 489.786 71.1897C489.777 71.1753 489.773 71.1631 489.761 71.1548C489.686 71.1043 489.556 71.1995 489.495 71.2162C489.458 71.2 489.425 71.1753 489.402 71.1447C489.392 71.1262 489.384 71.1019 489.363 71.0522" stroke="#ED1D21" stroke-width="5" stroke-linecap="round"/>
<path d="M490.061 70.0738C490.061 70.0657 490.061 70.0576 490.053 70.0473C490.045 70.037 490.029 70.0248 490 70" stroke="#ED1D21" stroke-width="5" stroke-linecap="round"/>
<path d="M473.732 63.5506C473.722 63.5415 473.741 63.4552 473.813 63.2702C473.905 63.0349 474.025 62.8547 474.073 62.7471C474.125 62.627 474.19 62.5748 474.272 62.4604C474.347 62.3557 474.434 62.3136 474.506 62.254C474.59 62.1851 474.643 62.0983 474.703 62.05C474.782 61.9863 474.927 61.9196 475.03 61.8393C475.109 61.777 475.197 61.7225 475.257 61.6811C475.319 61.638 475.396 61.6125 475.451 61.5848C475.478 61.5709 475.516 61.5665 475.61 61.5596C475.812 61.5448 476.028 61.6344 476.165 61.7535C476.254 61.8302 476.363 61.8591 476.438 61.9009C476.493 61.9317 476.557 61.9512 476.632 61.997C476.715 62.0478 476.792 62.0887 476.857 62.1207C476.922 62.1533 476.986 62.1987 477.048 62.2444C477.111 62.2899 477.17 62.3452 477.208 62.3933C477.253 62.4509 477.345 62.4552 477.402 62.5033C477.471 62.5606 477.554 62.5971 477.619 62.6295C477.675 62.6571 477.749 62.6752 477.828 62.7233C477.905 62.7693 477.963 62.8082 478.025 62.847C478.094 62.8894 478.142 62.9364 478.202 62.9639C478.272 62.9959 478.317 63.0601 478.392 63.1219C478.446 63.1664 478.501 63.1975 478.564 63.2274C478.649 63.2682 478.72 63.3075 478.788 63.3579C478.858 63.4106 478.91 63.4541 478.992 63.5114C479.074 63.5685 479.159 63.619 479.264 63.6718C479.353 63.7167 479.413 63.7612 479.461 63.8093C479.505 63.8542 479.667 63.9481 479.879 64.0703C480.001 64.1404 480.066 64.2101 480.124 64.2812C480.193 64.3671 480.295 64.4117 480.37 64.4623C480.456 64.5198 480.52 64.5907 480.6 64.6318C480.688 64.6774 480.744 64.7097 480.806 64.7738C480.871 64.8404 480.939 64.8881 480.998 64.9297C481.058 64.9712 481.118 64.9984 481.193 65.0465C481.263 65.092 481.332 65.1037 481.4 65.1314C481.461 65.1567 481.522 65.209 481.582 65.2436C481.64 65.2776 481.686 65.3193 481.749 65.3604C481.825 65.4106 481.91 65.4658 481.988 65.5162C482.092 65.5842 482.195 65.6445 482.274 65.6949C482.347 65.7408 482.439 65.8048 482.494 65.8439C482.546 65.881 482.613 65.9238 482.673 65.9744C482.736 66.0273 482.847 66.0885 482.965 66.1509C483.041 66.1916 483.161 66.2584 483.303 66.3226C483.445 66.3862 483.48 66.4647 483.565 66.5083C483.651 66.5525 483.745 66.6249 483.812 66.6755C483.887 66.732 483.954 66.7808 483.999 66.8314C484.058 66.8979 484.153 66.9139 484.216 66.9437C484.284 66.9765 484.358 67.0236 484.42 67.0719C484.477 67.1159 484.527 67.1704 484.59 67.2322C484.657 67.2989 484.722 67.3491 484.804 67.3767C484.869 67.3985 484.916 67.4454 485.018 67.5003C485.133 67.5624 485.215 67.6103 485.275 67.6653C485.32 67.7063 485.424 67.7294 485.536 67.7753C485.622 67.8103 485.664 67.8715 485.741 67.9219C485.833 67.9819 485.942 68.0365 486.013 68.0846C486.08 68.1305 486.157 68.1555 486.234 68.1946C486.322 68.2388 486.406 68.293 486.526 68.3526C486.683 68.4311 486.849 68.5627 486.987 68.6391C487.054 68.6762 487.129 68.7101 487.263 68.7902C487.339 68.8355 487.443 68.8932 487.528 68.9301C487.611 68.9661 487.697 69.0219 487.747 69.0629C487.814 69.118 487.882 69.1453 487.939 69.1753C488.008 69.2114 488.071 69.2234 488.118 69.2668C488.173 69.3168 488.265 69.3196 488.407 69.3767C488.515 69.4341 488.574 69.4799 488.667 69.5097C488.689 69.5212 488.709 69.5393 488.729 69.558" stroke="#ED1D21" stroke-width="5" stroke-linecap="round"/>
<path d="M474.272 62.3699C474.39 62.297 474.515 62.232 474.645 62.1995C474.743 62.1749 474.883 62.1107 474.998 62.0453C475.093 61.9909 475.19 61.9236 475.299 61.8626C475.47 61.7679 475.644 61.7852 475.739 61.7205C475.788 61.6866 475.856 61.6797 475.923 61.6475C476.122 61.5509 476.076 61.2335 476.154 61.1726C476.219 61.1223 476.296 61.1438 476.343 61.1196C476.397 61.0914 476.414 61.0223 476.429 60.9615C476.483 60.7523 476.884 60.8919 476.908 60.9122C476.935 60.9357 476.806 60.957 476.712 60.9489C476.645 60.9432 476.579 60.8841 476.504 60.8355C476.41 60.7741 476.406 60.6408 476.406 60.5677C476.406 60.5272 476.484 60.5348 476.543 60.5347C476.705 60.5344 476.789 60.8016 476.97 61.0575C477.155 61.3202 477.284 61.3867 477.382 61.4521C477.496 61.5283 477.62 61.7433 477.754 61.8459C477.864 61.9296 477.982 61.9879 478.064 62.0691C478.146 62.1496 478.296 62.1423 478.425 62.2395C478.585 62.3598 478.75 62.3616 478.86 62.4143C478.963 62.4635 479.111 62.4751 479.217 62.5361C479.243 62.5512 479.276 62.5565 479.292 62.5767C479.363 62.6671 479.425 62.7674 479.527 62.8487C479.641 62.9398 479.754 62.9867 479.852 63.0315C479.97 63.0851 480.076 63.1572 480.237 63.206C480.365 63.2451 480.476 63.3438 480.582 63.3969C480.694 63.4531 480.836 63.5143 480.935 63.6038C481.014 63.6759 481.119 63.7097 481.26 63.7702C481.424 63.8404 481.527 63.9123 481.602 63.9936C481.69 64.0887 481.801 64.1642 481.9 64.2372C482.008 64.3178 482.131 64.3913 482.248 64.4686C482.37 64.5484 482.46 64.6509 482.554 64.7285C482.638 64.7976 482.743 64.8624 482.837 64.9517C482.932 65.0417 483.017 65.0977 483.111 65.1548C483.281 65.2581 483.393 65.3496 483.48 65.4308C483.571 65.5162 483.684 65.5527 483.743 65.6297C483.826 65.7385 483.958 65.8285 484.115 65.9058C484.258 65.9762 484.397 66.1535 484.543 66.2832C484.658 66.3864 484.821 66.4945 485.005 66.6402C485.375 66.9328 485.604 66.9978 485.766 67.0953C485.794 67.1439 485.918 67.2813 486.11 67.4519C486.186 67.5098 486.217 67.5098 486.272 67.5342" stroke="#ED1D21" stroke-width="5" stroke-linecap="round"/>
<path d="M462.81 53.2837C462.923 53.2135 462.959 53.1666 462.975 53.0684C462.996 52.9407 463.046 52.848 463.161 52.6698C463.221 52.5784 463.277 52.5147 463.343 52.4465C463.417 52.3699 463.536 52.3314 463.632 52.2729C463.694 52.2347 463.754 52.1721 463.832 52.1391C463.913 52.1046 464 52.0781 464.097 52.0616C464.224 52.0402 464.323 52.0639 464.352 52.0802C464.429 52.1227 464.454 52.1949 464.479 52.2607C464.518 52.3625 464.595 52.4435 464.661 52.4954C464.714 52.537 464.759 52.5752 464.813 52.5846C464.886 52.5971 464.963 52.6408 465.031 52.6994C465.048 52.7137 465.068 52.716 465.07 52.7137C465.125 52.6651 464.909 52.6177 464.852 52.5988C464.774 52.5729 464.773 52.505 464.757 52.484C464.747 52.471 464.763 52.4398 464.775 52.4231C464.793 52.3958 464.841 52.397 464.89 52.4017C464.964 52.4085 464.99 52.4953 465.061 52.5189C465.155 52.5506 465.195 52.6267 465.245 52.6783C465.322 52.7574 465.381 52.8049 465.425 52.8613C465.465 52.9149 465.549 52.969 465.64 53.0325C465.708 53.08 465.754 53.1101 465.808 53.1335C465.874 53.1616 465.917 53.2179 465.97 53.2694C466.057 53.3554 466.136 53.3915 466.19 53.422C466.241 53.4506 466.294 53.4901 466.374 53.5462C466.49 53.6277 466.517 53.715 466.581 53.7645C466.634 53.8054 466.708 53.8512 466.767 53.9028C466.829 53.9563 466.908 54.0061 466.992 54.0764C467.046 54.1212 467.153 54.184 467.222 54.2547C467.297 54.3321 467.376 54.3579 467.456 54.4189C467.52 54.4683 467.567 54.522 467.619 54.5667C467.666 54.607 467.717 54.658 467.785 54.7214C467.908 54.8362 467.971 54.8739 468.042 54.9396C468.115 55.0081 468.23 55.0943 468.301 55.1555C468.366 55.2121 468.444 55.2728 468.514 55.3267C468.599 55.3914 468.666 55.4228 468.748 55.4979C468.803 55.5483 468.894 55.5732 468.957 55.6247C469.011 55.6676 469.094 55.7043 469.137 55.7561C469.176 55.8022 469.253 55.831 469.334 55.8734C469.398 55.9064 469.453 55.9436 469.537 55.986C469.62 56.028 469.72 56.1359 469.789 56.176C469.858 56.2161 469.898 56.2907 470.034 56.4313C470.108 56.5074 470.18 56.5443 470.259 56.6028C470.358 56.6754 470.457 56.7177 470.527 56.7507C470.606 56.7875 470.661 56.8306 470.727 56.8797C470.779 56.9184 470.857 56.9384 470.914 56.9875C470.988 57.0514 471.164 57.1769 471.307 57.2901C471.365 57.3364 471.397 57.4308 471.486 57.5106C471.595 57.609 471.665 57.656 471.768 57.7101C471.855 57.7562 471.897 57.8392 471.97 57.8814C472.004 57.901 472.034 57.9375 472.081 57.9869C472.143 58.0512 472.224 58.1064 472.29 58.1465C472.391 58.2078 472.51 58.2891 472.597 58.3342C472.736 58.4065 472.833 58.4864 472.922 58.5242C473.002 58.5582 473.056 58.6226 473.145 58.6765C473.246 58.7384 473.288 58.8101 473.345 58.8736C473.425 58.9639 473.524 59.059 473.574 59.1129C473.649 59.1939 473.715 59.2186 473.774 59.277C473.895 59.3964 474.124 59.4297 474.192 59.4742C474.336 59.5681 474.523 59.6219 474.737 59.6362C474.839 59.643 474.924 59.7391 474.98 59.7652C475.072 59.8071 475.196 59.922 475.296 60.0042C475.434 60.118 475.51 60.1286 475.589 60.1685C475.691 60.2194 475.823 60.3814 475.894 60.436C475.978 60.501 476.109 60.5976 476.203 60.6728C476.317 60.7649 476.436 60.8042 476.586 60.9026C476.709 60.9685 476.76 61.0107 476.773 61.0342C476.782 61.0437 476.796 61.0483 476.81 61.0531" stroke="#ED1D21" stroke-width="5" stroke-linecap="round"/>
<path d="M464.461 53.0464C464.451 53.0464 464.428 53.0374 464.401 53.0168C464.389 53.0079 464.391 52.9917 464.398 52.9734C464.414 52.9304 464.447 52.8908 464.477 52.8588C464.505 52.8285 464.599 52.8265 464.692 52.8265C464.741 52.8265 464.59 52.7352 464.519 52.6869C464.445 52.6369 464.41 52.5793 464.366 52.5356C464.308 52.4783 464.197 52.3871 464.125 52.3476C464.06 52.3118 463.979 52.2631 463.896 52.2286C463.815 52.1951 463.734 52.1484 463.646 52.0866C463.585 52.0438 463.521 52.0338 463.431 51.9698C463.323 51.8933 463.28 51.8413 463.222 51.7957C463.122 51.7164 463.104 51.6444 463.023 51.5939C462.962 51.5554 462.905 51.5023 462.85 51.445C462.798 51.3918 462.688 51.3373 462.623 51.2869C462.558 51.237 462.507 51.1952 462.428 51.1449C462.329 51.0815 462.285 51.003 462.218 50.9729C462.11 50.9247 462.044 50.8333 461.979 50.7783C461.901 50.7121 461.85 50.6637 461.796 50.6247C461.736 50.5804 461.687 50.5171 461.641 50.4872C461.571 50.4417 461.475 50.4025 461.412 50.3384C461.337 50.261 461.248 50.224 461.16 50.1483C461.032 50.0385 460.979 49.981 460.933 49.9304C460.887 49.8802 460.781 49.8253 460.713 49.7929C460.65 49.7624 460.609 49.706 460.454 49.6487C460.336 49.6047 460.193 49.4772 460.065 49.3898C459.985 49.3352 459.952 49.2751 459.815 49.1563C459.754 49.103 459.729 49.037 459.681 48.9842C459.592 48.8881 459.502 48.794 459.445 48.7344C459.382 48.6697 459.308 48.6062 459.204 48.5283C459.126 48.47 459.072 48.4228 458.963 48.3656C458.829 48.2951 458.734 48.1984 458.586 48.1159C458.479 48.0563 458.368 48.0104 458.299 47.9486C458.201 47.8615 458.031 47.8319 457.924 47.7857C457.857 47.7567 457.707 47.6625 457.558 47.5842C457.426 47.5147 457.327 47.456 457.199 47.3872C457.03 47.2955 456.975 47.2589 456.914 47.2107C456.821 47.136 456.738 47.0893 456.701 47.0548C456.871 47.0387 457.141 47.0477 457.196 47.066C457.21 47.0796 457.224 47.1069 457.238 47.1349" stroke="#ED1D21" stroke-width="5" stroke-linecap="round"/>
<path d="M453.721 46.6632C453.721 46.6551 453.721 46.6063 453.735 46.5326C453.746 46.4743 453.957 46.4788 454.195 46.4747C454.303 46.4728 454.457 46.4542 454.672 46.4602C454.854 46.4654 454.987 46.5484 455.063 46.5852C455.147 46.626 455.246 46.6099 455.325 46.6508C455.385 46.6812 455.487 46.7122 455.588 46.7349C455.698 46.7598 455.75 46.7656 455.809 46.776C455.892 46.7905 456.008 46.8025 456.11 46.8373C456.135 46.8476 456.151 46.8598 456.158 46.8721C456.164 46.8845 456.16 46.8967 456.156 46.9092" stroke="#ED1D21" stroke-width="5" stroke-linecap="round"/>
<path d="M440.073 35.2417C440.073 35.1393 440.018 34.8619 439.954 34.4722C439.887 34.0583 439.821 33.9353 439.786 33.7957C439.749 33.6475 439.786 33.5235 439.807 33.4796C439.865 33.3585 440.045 33.3325 440.251 33.2701C440.329 33.2466 440.442 33.2589 440.52 33.2807C440.752 33.3457 440.836 33.5669 440.955 33.6917C441.043 33.7838 441.081 33.8753 441.148 33.9599C441.233 34.0678 441.423 34.3658 441.54 34.5181C441.627 34.632 441.767 34.7786 441.97 34.9766C442.094 35.0983 442.159 35.1388 442.184 35.1499C442.283 35.1942 441.624 34.7742 441.449 34.5848C441.38 34.5106 441.71 34.5367 441.882 34.544C442.03 34.5503 442.089 34.676 442.194 34.7933C442.306 34.9183 442.453 35.0575 442.576 35.124C442.715 35.1996 442.838 35.2708 442.95 35.3406C443.028 35.3886 443.118 35.4325 443.188 35.5094C443.29 35.6205 443.412 35.6674 443.566 35.8176C443.66 35.9096 443.755 35.9683 443.853 36.0602C443.959 36.1592 444.028 36.2327 444.179 36.4013C444.299 36.5367 444.42 36.5852 444.515 36.666C444.694 36.8193 444.848 36.9522 444.959 37.048C445.048 37.1238 445.106 37.195 445.198 37.3012C445.325 37.4494 445.533 37.6427 445.628 37.7492C445.749 37.8858 445.904 37.9802 446.024 38.0834C446.097 38.1472 446.177 38.2521 446.286 38.3223C446.37 38.3766 446.471 38.4288 446.566 38.4801C446.702 38.5539 446.857 38.6271 446.996 38.7002C447.22 38.8172 447.277 38.9351 447.378 39.0235C447.456 39.0908 447.605 39.1774 447.704 39.2768C447.802 39.3758 447.914 39.4638 448.015 39.5595C448.115 39.6528 448.222 39.7136 448.309 39.7909C448.468 39.931 448.642 40.1027 448.729 40.1619C448.919 40.2896 449.153 40.5363 449.377 40.7231C449.521 40.8439 449.657 40.9474 449.852 41.1048C450.225 41.4048 450.266 41.4982 450.399 41.6193C450.508 41.7185 450.588 41.8357 450.662 41.9243C450.758 42.04 450.861 42.1662 450.998 42.2877C451.078 42.3587 451.176 42.4164 451.281 42.4714C451.391 42.5287 451.561 42.6363 451.701 42.6846C451.797 42.7176 451.897 42.7689 451.999 42.7837C452.114 42.8004 452.212 42.9157 452.314 42.9597C452.604 43.0857 452.737 43.3783 452.856 43.448C452.993 43.5279 453.067 43.6352 453.185 43.7234C453.287 43.7992 453.41 43.8921 453.525 43.9585C453.633 44.0204 453.683 44.1199 453.791 44.2154C453.964 44.3676 454.159 44.5165 454.271 44.5864C454.401 44.6679 454.544 44.7513 454.739 44.8872C454.896 44.9959 454.999 45.0822 455.114 45.181C455.313 45.3508 455.461 45.4343 455.754 45.5775C455.879 45.6386 456.027 45.7938 456.254 45.9478C456.46 46.0582 456.595 46.1322 456.661 46.1872C456.693 46.2131 456.721 46.2349 456.77 46.2574" stroke="#ED1D21" stroke-width="5" stroke-linecap="round"/>
<rect x="1" width="340" height="495" rx="15" fill="#ED1D21"/>
<path d="M66 17C82.5535 17 96 30.6402 96 47.5C96 64.3598 82.5535 78 66 78C49.4465 78 36 64.3598 36 47.5C36 30.6402 49.4465 17 66 17Z" fill="#D9D9D9" stroke="black" stroke-width="2"/>
<path d="M66 26C77.5769 26 87 35.6046 87 47.5C87 59.3954 77.5769 69 66 69C54.4231 69 45 59.3954 45 47.5C45 35.6046 54.4231 26 66 26Z" fill="#D9D9D9" stroke="black" stroke-width="2"/>
<ellipse cx="66" cy="47.5" rx="20" ry="20.5" fill="#2D449A"/>
<ellipse cx="62.4966" cy="43.5898" rx="18.5235" ry="14.7767" transform="rotate(-46.0077 62.4966 43.5898)" fill="#4E65AC"/>
<circle cx="59" cy="42" r="8" fill="#C9C9E1"/>
<path d="M130.5 16.5C134.947 16.5 138.5 19.886 138.5 24C138.5 28.114 134.947 31.5 130.5 31.5C126.053 31.5 122.5 28.114 122.5 24C122.5 19.886 126.053 16.5 130.5 16.5Z" fill="#EC1E20" stroke="black"/>
<path d="M184.5 16.5C188.947 16.5 192.5 19.886 192.5 24C192.5 28.114 188.947 31.5 184.5 31.5C180.053 31.5 176.5 28.114 176.5 24C176.5 19.886 180.053 16.5 184.5 16.5Z" fill="#1B9648" stroke="black"/>
<path d="M157.5 16.5C161.947 16.5 165.5 19.886 165.5 24C165.5 28.114 161.947 31.5 157.5 31.5C153.053 31.5 149.5 28.114 149.5 24C149.5 19.886 153.053 16.5 157.5 16.5Z" fill="#F5EC30" stroke="black"/>
<mask id="path-74-inside-2_1_256" fill="white">
<path d="M15 92H315V482H15V92Z"/>
</mask>
<path d="M15 92H315V482H15V92Z" fill="#ED1D21"/>
<path d="M315 92H314.5V482H315H315.5V92H315Z" fill="black" mask="url(#path-74-inside-2_1_256)"/>
<path d="M314 23C314.549 22 316.525 20 320.039 20C323.553 20 326.993 20 328.275 20H333.216C335.046 20 339.365 20.6 342 23" stroke="black" stroke-width="0.5"/>
<path d="M230.443 34.4251H314V22H306.953H231.953C224.302 22 221.383 23.6567 220.879 24.485L195.208 43.3713L165.51 65.2395L139.336 82.6347C131.685 88.5988 118.698 91.7465 113.161 92.5749H14V105H112.658C127.557 105 141.685 97.3792 146.886 93.5689L221.383 36.4132C222.993 34.8228 228.094 34.4251 230.443 34.4251Z" fill="#A71B1B"/>
<path d="M23.0515 495C15.8514 495 14.7181 486.333 15.0514 482H305.053H314.053C312.853 484 312.887 486.5 313.053 487.5C315.453 492.7 322.684 494.667 326 495H23.0515Z" fill="#A71B1B"/>
<path d="M314 47C314.549 46 316.525 44 320.039 44C323.553 44 326.993 44 328.275 44H333.216C335.046 44 339.365 44.6 342 47" stroke="black" stroke-width="0.5"/>
<path d="M314 56C314.549 55 316.525 53 320.039 53C323.553 53 326.993 53 328.275 53H333.216C335.046 53 339.365 53.6 342 56" stroke="black" stroke-width="0.5"/>
<path d="M310.046 48.0189C310.501 47.867 310.915 47.7405 311.215 47.6535C311.504 47.5696 311.621 47.4756 311.92 47.246C312.108 47.1015 312.296 46.9607 312.468 46.8167C312.517 46.7755 312.597 46.7781 312.797 46.7677C313.232 46.745 313.538 46.7227 313.569 46.6324C313.604 46.5335 313.587 46.4506 313.597 46.4055C313.601 46.6148 313.587 47.2447 313.524 47.3666C313.51 47.3982 313.503 47.4258 313.496 47.4961" stroke="#ED1D21" stroke-linecap="round"/>
<path d="M313.287 54.7737C313.412 54.8638 313.455 55.0447 313.489 55.1706C313.518 55.2736 313.552 55.4002 313.569 55.7136C313.58 55.7773 313.601 55.798 313.611 55.8225C313.622 55.8469 313.622 55.8745 313.622 55.903" stroke="#ED1D21" stroke-linecap="round"/>
<path d="M313.413 45.363C313.413 45.6275 313.523 45.9736 313.583 46.265C313.587 46.3038 313.594 46.3245 313.597 46.3904C313.601 46.4563 313.601 46.5667 313.601 46.6805" stroke="#ED1D21" stroke-linecap="round"/>
<path d="M314.5 92.5V23" stroke="black" stroke-width="0.5"/>
<path d="M336.5 44.5V53.5" stroke="black" stroke-width="0.5"/>
<path d="M332.5 44V53" stroke="black" stroke-width="0.5"/>
<path d="M315 449C315.51 448 317.345 446 320.608 446C323.871 446 327.065 446 328.255 446H332.843C334.542 446 338.553 446.6 341 449" stroke="black" stroke-width="0.5"/>
<path d="M315 458C315.51 457 317.345 455 320.608 455C323.871 455 327.065 455 328.255 455H332.843C334.542 455 338.553 455.6 341 458" stroke="black" stroke-width="0.5"/>
<path d="M332 446V455" stroke="black" stroke-width="0.5"/>
<path d="M337 447V456" stroke="black" stroke-width="0.5"/>
<path d="M173.46 123H46.8257C41.7034 123 39.4743 125.734 39 127.101V236.259L78.1286 262H279.463C284.585 262 287.289 258.724 288 257.086V128.148C288 125.153 283.731 123.468 281.597 123H173.46Z" fill="#DEDEDE"/>
<path d="M264.222 141H67.7778C63.7333 141 62.2407 143.681 62 145.021V232.476L68.5 237H264.222C268.267 237 269.759 235.325 270 234.487V145.524C270 143.111 266.148 141.503 264.222 141Z" fill="#F1F2D3"/>
<path d="M35 123H46C41.2 123 39.3333 125.667 39 127V197.5V236L54.5 246.5L78 262H280C284 262 287 258.667 288 257V262C288 266 285.667 267 284.5 267H256H183.5H124H78L32 237V236V234V127C32 124.6 34 123.333 35 123Z" fill="#696A72"/>
<circle cx="56" cy="299" r="21" fill="#050305"/>
<ellipse cx="58.5" cy="297" rx="17.5" ry="18" fill="#222222"/>
<path d="M163 295C163 292.239 165.239 290 168 290H206C208.761 290 211 292.239 211 295V295C211 297.761 208.761 300 206 300H168C165.239 300 163 297.761 163 295V295Z" fill="#075375"/>
<path d="M99 295C99 292.239 101.239 290 104 290H142C144.761 290 147 292.239 147 295V295C147 297.761 144.761 300 142 300H104C101.239 300 99 297.761 99 295V295Z" fill="#C70D0F"/>
<rect x="54" y="387" width="122" height="62" rx="7" fill="#55AB62"/>
<path d="M237 338C237 336.4 242.333 333.333 245 332H261.5C263.9 332 264.5 335 264.5 336.5L263.5 357.5C263.1 360.7 265.333 360.833 266.5 360.5L286 359.5C290.4 358.7 291.833 360.833 292 362V378.5L288 385L265.5 385.5L264.5 406L259.5 412.5H238.5L236 410V393C236 389 234.333 387.667 233.5 387.5H214.5C212.5 387.5 211.333 385.5 211 384.5V365C211 361.8 213.667 360 215 359.5L237 359V338Z" fill="#070E0F"/>
<ellipse cx="15.5" cy="8.5" rx="15.5" ry="8.5" transform="matrix(1 0 0 -1 312 495)" fill="#721212"/>
<path d="M444 41C444 30.5066 435.493 22 425 22H341V86H444V41Z" fill="#ED1D21"/>
<path d="M448.067 77.1252C448.067 77.4536 448.067 77.782 447.738 79.1826C447.41 80.5831 446.753 83.0459 446.415 84.5814C446.077 86.1169 446.077 86.6505 446.015 86.8228C445.789 87.4562 445.456 85.4602 445.351 85.1915C445.298 85.0548 445.534 84.8818 445.455 84.7972C445.169 84.4938 444.544 84.7537 444.398 84.7543C443.438 84.7584 446.241 83.9253 446.572 83.9247C446.743 83.9244 446.903 84.0882 447.008 84.2748C447.113 84.4614 447.154 84.7077 447.175 84.8961C447.196 85.0846 447.196 85.2077 447.032 85.2917C446.868 85.3756 446.539 85.4167 446.021 85.4378C445.503 85.459 444.805 85.459 452.04 85.4179C459.274 85.3769 474.461 85.2948 482.408 85.1909C490.355 85.087 490.601 84.9639 490.789 84.8799C490.978 84.796 491.101 84.7549 485.705 84.7338C480.31 84.7127 469.391 84.7127 463.253 84.6306C457.116 84.5485 456.09 84.3843 455.15 84.2792C453.395 84.0827 451.765 83.9265 449.844 83.6778C447.246 83.3413 445.17 84.1268 444.3 84.9558C443.976 85.2647 443.84 85.2923 443.859 85.3339C444.324 86.3733 447.313 85.3769 450 84.9017C451.235 84.6835 453.169 84.4689 457.734 84.342C462.299 84.2151 469.441 84.2151 475.378 83.8457C481.315 83.4763 485.83 82.7374 488.751 82.3568C491.672 81.9762 492.862 81.9762 493.742 81.9146C495.164 81.8151 497.512 81.6031 499.858 81.7878C500.428 81.8326 499.619 82.3419 496.241 82.5938C492.864 82.8457 486.912 82.9688 483.517 83.0938C480.123 83.2188 479.466 83.3419 479.128 83.4669C478.79 83.592 478.79 83.7151 479.323 83.9427C479.857 84.1703 480.924 84.4987 482.418 84.791C483.912 85.0833 485.8 85.3296 489.133 85.4565C492.466 85.5833 497.186 85.5833 498.345 85.6244C499.735 85.6736 493.722 85.9963 492.604 86.2451C492.107 86.3556 491.733 86.3296 491.953 86.1244C492.173 85.9192 492.994 85.5087 494.443 85.0305C495.892 84.5522 497.945 84.0186 499.105 83.7027C500.264 83.3867 500.47 83.3046 499.016 83.4881C497.562 83.6716 494.442 84.1231 492.753 84.3557C491.064 84.5883 490.9 84.5883 492.929 84.5883C494.958 84.5883 499.186 84.5883 501.774 84.7114C504.363 84.8345 505.184 85.0808 506.243 85.2077C507.302 85.3346 508.574 85.3346 510.01 85.459" stroke="#ED1D21" stroke-width="2" stroke-linecap="round"/>
<path d="M502.172 87.107C501.39 87.107 499.732 86.8607 499.106 86.4658C498.993 86.3945 498.981 86.2388 499.021 86.1138C499.238 85.443 500.468 85.2437 501.34 84.9104C501.842 84.718 502.542 84.786 503.635 84.6616C505.415 84.4591 506.69 84.4962 507.637 84.3096C511.386 83.5706 512.244 84.3705 512.845 84.4937C513.101 84.5463 513.158 84.8631 513.098 85.0721C512.694 86.4699 509.892 86.898 509.14 87.2096C508.583 87.4403 507.857 87.811 505.685 87.6891C503.619 87.5731 503.293 85.5335 503.189 85.1815C503.147 85.0397 503.371 84.9527 503.518 85.054C503.664 85.1554 503.787 85.4427 503.85 85.7139C503.914 85.985 503.914 86.2313 503.914 86.4851" stroke="#ED1D21" stroke-width="2" stroke-linecap="round"/>
<path d="M509.985 84.4081C510.028 84.3652 510.211 84.3646 510.61 84.4453C510.851 84.494 511.16 84.6012 511.792 84.7206C512.424 84.84 513.367 84.9794 514.283 85.0459C515.198 85.1123 516.056 85.1016 516.562 85.0854C517.376 85.0592 517.502 84.9499 517.889 84.9336C518.233 84.9192 518.876 84.9281 519.224 84.9227C519.571 84.9174 519.604 84.9066 519.642 84.885C519.726 84.837 519.177 84.7981 518.214 84.782C517.84 84.7758 517.701 84.7337 517.211 84.7172C516.721 84.7006 515.884 84.7006 515.421 84.722C514.958 84.7435 514.894 84.7864 514.871 84.8299C514.849 84.8735 514.87 84.9164 515.718 85.0564C516.565 85.1965 518.238 85.4324 519.127 85.5701C520.073 85.7166 520.21 85.773 520.378 85.7944C520.814 85.8503 521.314 86.0648 521.553 86.1087C521.664 86.129 521.867 86.163 522.159 86.1791C522.433 86.1942 522.755 86.3248 523.251 86.4223C523.949 86.5594 524.456 86.4876 524.608 86.5364C524.753 86.583 524.911 86.5637 525.02 86.596C525.076 86.6127 524.452 86.6829 523.543 86.6668C523.03 86.6578 522.78 86.4886 522.476 86.4177C522.22 86.3582 521.988 86.2501 521.577 86.1093C521.229 85.9901 520.722 85.7626 520.391 85.6758C520.034 85.5823 519.66 85.5462 519.34 85.4861C518.939 85.4105 518.544 85.3616 517.971 85.1617C517.647 85.0489 517.353 85.0581 516.974 84.9718C516.594 84.9281 516.387 84.9174 516.323 84.8957C516.29 84.8849 516.258 84.8741 516.127 84.8631" stroke="#ED1D21" stroke-width="2" stroke-linecap="round"/>
<path d="M15.1042 16.5C15.1042 7.3 21.7014 1.66667 25 0H14.0625C4.0625 0 0.520834 9.33333 0 14L0.520834 145V322.5V482C0.520834 490.8 9.89584 494.333 14.5833 495H23.9583C16.4583 495 14.9306 486 15.1042 481.5V460V338V238V92.5V16.5Z" fill="#A71B1B"/>
<path d="M422.973 57.0778H350V46H356.154H421.654C428.336 46 430.886 47.477 431.326 48.2156L453.745 65.0539L479.681 84.5509L502.54 100.06C509.222 105.377 520.564 108.184 525.399 108.922H612V120H525.839C512.827 120 500.489 113.206 495.946 109.808L430.886 58.8503C429.479 57.4323 425.025 57.0778 422.973 57.0778Z" fill="#A71B1B"/>
<path d="M341.5 86.5V22" stroke="black" stroke-width="0.5"/>
<rect x="607" y="109" width="11" height="365" fill="#A71B1B"/>
<path d="M607.945 474.145C607.947 474.146 607.948 474.147 607.947 474.149C607.938 474.163 607.912 474.17 607.852 474.174C607.816 474.177 607.787 474.156 607.759 474.153C607.687 474.144 607.66 474.165 607.608 474.173C607.589 474.178 607.564 474.189 607.547 474.194C607.53 474.199 607.521 474.199 607.512 474.199" stroke="#A71B1B" stroke-linecap="round"/>
<path d="M607.496 474.117V474.113" stroke="#A71B1B" stroke-linecap="round"/>
<path d="M608.32 474.176C608.387 474.171 608.454 474.165 608.556 474.154C608.657 474.142 608.792 474.124 608.884 474.115C608.977 474.105 609.025 474.105 609.087 474.096C609.149 474.087 609.224 474.069 609.385 474.06C609.547 474.051 609.793 474.051 609.938 474.048C610.083 474.044 610.119 474.038 610.151 474.034C610.183 474.03 610.21 474.029 610.238 474.027" stroke="#A71B1B" stroke-linecap="round"/>
<path d="M610.359 474.055C610.472 474.064 610.584 474.073 611.156 474.092C611.729 474.112 612.759 474.141 613.3 474.153C613.841 474.165 613.862 474.159 613.901 474.143C613.94 474.127 613.996 474.101 614.034 474.086C614.087 474.064 614.124 474.056 614.161 474.041C614.246 474.008 614.297 473.987 614.333 473.966C614.363 473.947 614.389 473.926 614.409 473.917C614.414 473.914 614.418 473.91 614.422 473.907C614.426 473.904 614.43 473.901 614.441 473.895" stroke="#A71B1B" stroke-linecap="round"/>
<path d="M614.711 474.047C614.711 474.049 614.735 474.059 614.855 474.082C614.95 474.1 615.115 474.121 615.452 474.133C615.789 474.145 616.293 474.145 616.557 474.143C616.822 474.142 616.831 474.139 616.842 474.138C616.901 474.131 616.953 474.121 616.988 474.111C617.01 474.105 617.085 474.105 617.133 474.109C617.171 474.111 617.245 474.117 617.298 474.124C617.315 474.125 617.328 474.128 617.362 474.131C617.393 474.133 617.449 474.133 617.508 474.133" stroke="#A71B1B" stroke-linecap="round"/>
<path d="M350 46V101.5V474.5H618" stroke="black" stroke-width="0.5"/>
<rect x="372" y="139" width="213" height="101" rx="7" fill="#032D29"/>
<mask id="path-116-inside-3_1_256" fill="white">
<path d="M376 269C376 267.895 376.895 267 378 267H418V295H376V269Z"/>
</mask>
<path d="M376 269C376 267.895 376.895 267 378 267H418V295H376V269Z" fill="#31A7F1"/>
<path d="M376 267H418H376ZM418.5 295.5H376V294.5H417.5L418.5 295.5ZM376 295V267V295ZM418.5 267V295.5L417.5 294.5V267H418.5Z" fill="black" mask="url(#path-116-inside-3_1_256)"/>
<mask id="path-118-inside-4_1_256" fill="white">
<path d="M418 267H460V295H418V267Z"/>
</mask>
<path d="M418 267H460V295H418V267Z" fill="#31A7F1"/>
<path d="M460 295V295.5H460.5V295H460ZM460 267H459.5V295H460H460.5V267H460ZM460 295V294.5H418V295V295.5H460V295Z" fill="black" mask="url(#path-118-inside-4_1_256)"/>
<mask id="path-120-inside-5_1_256" fill="white">
<path d="M502 267H545V295H502V267Z"/>
</mask>
<path d="M502 267H545V295H502V267Z" fill="#31A7F1"/>
<path d="M545 295V295.5H545.5V295H545ZM545 267H544.5V295H545H545.5V267H545ZM545 295V294.5H502V295V295.5H545V295Z" fill="black" mask="url(#path-120-inside-5_1_256)"/>
<mask id="path-122-inside-6_1_256" fill="white">
<path d="M584.981 320.881C584.98 321.985 584.084 322.88 582.98 322.88L544.479 322.855L544.499 294.497L585 294.523L584.981 320.881Z"/>
</mask>
<path d="M584.981 320.881C584.98 321.985 584.084 322.88 582.98 322.88L544.479 322.855L544.499 294.497L585 294.523L584.981 320.881Z" fill="#31A7F1"/>
<path d="M584.98 322.881L544.479 322.855L584.98 322.881ZM544 293.996L585 294.023L585 295.023L544.999 294.997L544 293.996ZM585 294.523L584.98 322.881L585 294.523ZM543.979 322.854L544 293.996L544.999 294.997L544.979 322.855L543.979 322.854Z" fill="black" mask="url(#path-122-inside-6_1_256)"/>
<mask id="path-124-inside-7_1_256" fill="white">
<path d="M544.449 322.825L501.425 322.797L501.445 294.999L544.469 295.027L544.449 322.825Z"/>
</mask>
<path d="M544.449 322.825L501.425 322.797L501.445 294.999L544.469 295.027L544.449 322.825Z" fill="#31A7F1"/>
<path d="M501.425 322.797L501.925 322.797L501.945 295L501.445 294.999L500.945 294.999L500.925 322.797L501.425 322.797Z" fill="black" mask="url(#path-124-inside-7_1_256)"/>
<mask id="path-126-inside-8_1_256" fill="white">
<path d="M501.425 322.791L459.539 322.764L459.559 295L501.445 295.027L501.425 322.791Z"/>
</mask>
<path d="M501.425 322.791L459.539 322.764L459.559 295L501.445 295.027L501.425 322.791Z" fill="#31A7F1"/>
<path d="M459.539 322.764L460.039 322.764L460.059 295.001L459.559 295L459.059 295L459.039 322.764L459.539 322.764Z" fill="black" mask="url(#path-126-inside-8_1_256)"/>
<mask id="path-128-inside-9_1_256" fill="white">
<path d="M459.51 322.716L417.511 322.689L417.531 295L459.53 295.027L459.51 322.716Z"/>
</mask>
<path d="M459.51 322.716L417.511 322.689L417.531 295L459.53 295.027L459.51 322.716Z" fill="#31A7F1"/>
<path d="M417.511 322.689L418.011 322.69L418.031 295L417.531 295L417.031 295L417.011 322.689L417.511 322.689Z" fill="black" mask="url(#path-128-inside-9_1_256)"/>
<path d="M417.51 322.696L378.431 322.671C377.326 322.67 376.432 321.774 376.432 320.67L376.451 295.001L417.53 295.027L417.51 322.696Z" fill="#31A7F1"/>
<mask id="path-131-inside-10_1_256" fill="white">
<path d="M545 267H583C584.105 267 585 267.895 585 269V295H545V267Z"/>
</mask>
<path d="M545 267H583C584.105 267 585 267.895 585 269V295H545V267Z" fill="#31A7F1"/>
<path d="M545 267H585H545ZM585 295.5H545V294.5H585V295.5ZM545 295V267V295ZM585 267V295V267Z" fill="black" mask="url(#path-131-inside-10_1_256)"/>
<mask id="path-133-inside-11_1_256" fill="white">
<path d="M460 267H502V295H460V267Z"/>
</mask>
<path d="M460 267H502V295H460V267Z" fill="#31A7F1"/>
<path d="M502 295V295.5H502.5V295H502ZM502 267H501.5V295H502H502.5V267H502ZM502 295V294.5H460V295V295.5H502V295Z" fill="black" mask="url(#path-133-inside-11_1_256)"/>
<path d="M374.643 267H378.871C377.18 267 376.757 268.467 376.757 269.201V317.642C376.757 321.575 378.762 322.231 379.765 322.067H581.829C583.943 322.067 584.824 320.756 585 320.1C585 324.82 582.886 326 581.829 326H378.342C374.114 326 372.352 323.378 372 322.067V272.408C372 268.475 373.762 267.164 374.643 267Z" fill="#1B67E9"/>
<path d="M545 339C545 337.895 545.895 337 547 337H581C582.105 337 583 337.895 583 339V342C583 343.105 582.105 344 581 344H547C545.895 344 545 343.105 545 342V339Z" fill="#323130"/>
<path d="M502 339C502 337.895 502.895 337 504 337H538C539.105 337 540 337.895 540 339V342C540 343.105 539.105 344 538 344H504C502.895 344 502 343.105 502 342V339Z" fill="#323130"/>
<mask id="path-138-inside-12_1_256" fill="white">
<path d="M414 363H454C455.105 363 456 363.895 456 365V391C456 392.105 455.105 393 454 393H414V363Z"/>
</mask>
<path d="M414 363H454C455.105 363 456 363.895 456 365V391C456 392.105 455.105 393 454 393H414V363Z" fill="#D9D9D9"/>
<path d="M414 363H456H414ZM456 393H414H456ZM413.5 393V363H414.5V393H413.5ZM456 363V393V363Z" fill="black" mask="url(#path-138-inside-12_1_256)"/>
<path d="M414 363H376C374.895 363 374 363.895 374 365V391C374 392.105 374.895 393 376 393H414V363Z" fill="#D9D9D9"/>
<rect x="372" y="423" width="89" height="27" rx="4" fill="#062B2B"/>
<rect x="499" y="423" width="89" height="27" rx="4" fill="#062B2B"/>
<circle cx="558.5" cy="391.5" r="8.5" fill="#908337"/>
<circle cx="555" cy="389" r="4" fill="#C5BD70"/>
<path d="M246 332H262C263.167 332.166 265.4 333.396 265 336.987L264 357.432C263.833 358.429 264.2 360.424 267 360.424L242.377 361.789C241.537 362.047 240.657 362.039 240 361.92L242.377 361.789C243.88 361.325 245.257 360.005 245 356.933L243 335.989C243 334.66 243.6 332 246 332Z" fill="#262626"/>
<path d="M266.5 360.5L288 359.5C289.5 359.5 292.5 360.2 292.5 363V378C292.5 379.167 291.6 381.5 288 381.5L268 380C266.797 380 264.508 380.489 264.072 382.348L264 383C264 382.766 264.025 382.549 264.072 382.348L266.5 360.5Z" fill="#262626"/>
<path d="M265 403C265.5 404.667 265.2 408 260 408H247.5C245.833 408 242.6 407 243 403L245 382.5C244.865 381.557 244.099 379.918 242.122 379.535L240.5 379.5C241.114 379.423 241.652 379.443 242.122 379.535L264 380L265 403Z" fill="#262626"/>
<path d="M220 381L243.5 379.5L240 362L222 360C217.6 359.6 216.167 362.5 216 364V376.5C216 380.1 218.667 381 220 381Z" fill="#262626"/>
<path d="M252.925 361.85C252.925 362.073 253.221 362.889 253.559 364.085C253.651 364.412 253.634 364.685 253.69 365.186C253.791 366.088 253.894 367.292 254.155 370.165C254.359 372.402 254.195 376.253 254.084 378.472C253.947 381.185 253.597 381.889 253.486 382.243C253.435 382.408 253.154 382.413 252.966 382.284C252.057 381.662 252.404 380.402 252.384 379.246C252.375 378.684 252.81 377.829 253.72 376.453C254.952 374.592 256.059 373.459 256.282 372.975C256.388 372.746 256.506 372.565 256.563 370.844C256.62 369.123 256.62 365.872 256.565 364.123C256.504 362.22 256.284 361.963 256.45 361.758C257.183 360.855 258.409 361.588 258.876 361.682C259.742 361.855 260.76 362.036 261.58 362.129C261.769 362.185 261.88 362.296 262.029 362.353C262.179 362.41 262.364 362.41 262.554 362.41" stroke="#262626" stroke-width="5" stroke-linecap="round"/>
<path d="M262.43 362.804C262.508 362.833 262.664 362.814 262.795 362.751C262.89 362.705 262.986 362.707 263.054 362.687C263.14 362.663 263.702 362.658 264.492 362.668C264.891 362.672 265.062 362.746 265.16 362.818C265.287 362.913 265.491 362.882 265.686 362.916C266.138 362.996 266.262 362.989 266.432 363.096C266.582 363.19 266.613 363.291 266.657 363.374C266.841 363.719 266.273 364.1 265.929 364.473C265.708 364.712 265.439 365.088 265.227 365.427C265.016 365.765 264.88 366.064 264.782 366.363C264.683 366.662 264.625 366.952 264.567 367.183C264.508 367.414 264.45 367.579 264.377 367.9C264.303 368.221 264.216 368.694 264.167 369.029C264.09 369.545 264.059 369.872 263.996 370.313C263.952 370.617 263.961 371.092 263.937 371.442C263.913 371.792 263.874 372.004 263.854 372.34C263.834 372.677 263.834 373.13 263.854 373.427C263.873 373.723 263.912 373.849 263.932 374.15C263.951 374.451 263.951 374.924 263.947 375.201C263.938 375.694 263.864 375.985 263.83 376.259C263.799 376.502 263.747 376.659 263.713 376.912C263.682 377.136 263.63 377.351 263.596 377.604C263.564 377.837 263.533 378.131 263.508 378.326C263.488 378.483 263.445 378.599 263.376 378.794C263.324 378.944 263.289 379.086 263.177 379.248C263.148 379.289 263.075 379.272 262.997 379.239C262.812 379.159 262.655 378.952 262.505 378.714C262.193 378.221 261.818 378.035 261.502 377.918C261.335 377.856 261.137 377.84 259.885 377.825C258.632 377.81 256.325 377.81 255.068 377.795C253.812 377.781 253.677 377.752 253.574 377.713C253.47 377.674 253.403 377.626 253.358 377.572C253.277 377.473 253.275 377.13 253.294 376.547C253.304 376.233 253.352 375.886 253.507 375.413C253.662 374.94 253.932 374.351 254.197 373.869C254.462 373.387 254.713 373.03 254.977 372.691C255.242 372.353 255.512 372.044 255.81 371.759C256.109 371.475 256.427 371.224 256.717 371.037C257.007 370.849 257.258 370.734 257.479 370.587C257.909 370.302 258.255 370.001 258.63 369.835C258.819 369.752 259.014 369.689 259.321 369.534C259.628 369.378 260.043 369.137 260.358 368.926C260.673 368.715 260.876 368.541 261.038 368.36C261.201 368.178 261.316 367.995 261.429 367.746C261.542 367.497 261.648 367.188 261.698 366.609C261.748 366.03 261.738 365.19 261.69 364.642C261.62 363.853 261.388 363.517 261.247 363.443C261.183 363.41 261.135 363.649 261.061 366.205C260.988 368.761 260.892 373.693 260.818 376.321C260.744 378.949 260.696 379.123 260.661 379.28C260.627 379.437 260.607 379.572 260.583 379.675C260.559 379.779 260.53 379.846 260.51 378.959C260.49 378.072 260.48 376.229 260.437 375.144C260.393 374.059 260.316 373.788 260.243 373.591C260.123 373.27 260.012 373.111 259.94 373.038C259.898 372.996 259.8 373.013 259.673 373.042C259.546 373.071 259.382 373.129 259.08 373.458C258.778 373.787 258.344 374.385 258.038 374.843C257.732 375.301 257.568 375.6 257.402 376.073C257.235 376.546 257.071 377.183 256.986 377.622C256.86 378.277 256.921 378.541 256.97 378.594C257.1 378.738 257.379 378.755 257.637 378.892C257.825 378.991 257.944 379.406 258.062 379.793C258.158 380.108 258.179 380.412 258.33 380.758C258.491 380.92 258.627 380.998 258.885 381.052C258.997 381.057 259.161 381.057 259.33 381.057" stroke="#262626" stroke-width="5" stroke-linecap="round"/>
<path d="M238.708 367.426C238.727 367.174 238.824 366.764 238.878 366.525C238.946 366.224 238.942 365.907 238.966 365.696C238.983 365.551 239.078 365.418 239.098 365.291C239.121 365.14 239.224 364.96 239.297 364.828C239.331 364.767 239.4 364.735 239.448 364.681C239.592 364.523 239.926 364.598 240.058 364.574C240.141 364.559 240.663 364.501 241.428 364.496C241.838 364.493 242.013 364.433 242.197 364.389C242.532 364.309 242.772 364.296 242.949 364.272C243.075 364.254 243.212 364.199 243.353 364.155C243.472 364.118 243.631 364.091 243.913 364.009C244.217 363.92 244.527 363.857 244.772 363.809C244.896 363.784 245.064 363.77 245.263 363.726C245.468 363.681 245.717 363.692 246.404 363.662C246.956 363.639 247.922 363.652 248.477 363.638C249.149 363.62 249.354 363.555 249.529 363.54C249.862 363.513 250.192 363.409 250.505 363.38C250.671 363.364 250.914 363.331 251.056 363.418C251.131 363.463 250.86 363.678 250.578 363.898C250.295 364.118 249.919 364.378 249.507 364.619C249.096 364.859 248.662 365.072 247.816 365.379C246.969 365.686 245.724 366.082 244.764 366.436C243.804 366.789 243.167 367.088 242.814 367.247C242.418 367.426 242.21 367.513 241.913 367.693C241.632 367.863 241.487 368.03 241.443 368.171C241.375 368.388 241.457 368.595 241.578 368.731C241.779 368.957 242.158 369.083 242.643 369.262C242.95 369.376 243.398 369.49 243.666 369.56C244.008 369.649 244.119 369.678 244.168 369.736C244.21 369.786 244.207 370.046 244.183 370.455C244.163 370.794 243.906 371.168 243.537 371.668C243.094 372.269 242.735 372.632 242.672 372.787C242.583 373.006 242.501 373.284 242.467 373.519C242.394 374.014 242.413 374.679 242.432 374.826C242.455 374.997 242.52 375.147 242.608 375.347C242.696 375.547 242.734 375.674 242.754 375.796C242.784 375.98 242.842 376.191 242.871 376.342C242.897 376.475 242.988 376.581 243.09 376.776C243.171 376.929 243.242 377.02 243.285 377.156C243.342 377.333 243.592 377.342 243.917 377.39C244.457 377.471 244.86 377.381 245.203 377.352C245.507 377.326 246.077 377.342 246.414 377.356C246.84 377.375 247.014 377.43 247.189 377.439C247.366 377.449 247.531 377.517 248.034 377.561C248.459 377.598 249.232 377.576 249.674 377.547C250.115 377.518 250.202 377.46 250.266 377.411C250.532 377.207 250.681 376.758 250.788 376.153C250.868 375.694 250.952 374.92 251.002 373.335C251.052 371.75 251.052 369.375 251.032 368.137C251.013 366.9 250.974 366.871 250.945 366.841C250.891 366.788 250.558 366.753 249.925 366.821C249.606 366.855 249.312 367.023 249.038 367.214C248.763 367.404 248.522 367.645 248.334 367.861C248.147 368.077 248.022 368.261 247.846 368.688C247.671 369.116 247.449 369.782 247.329 370.173C247.182 370.656 247.104 371.021 246.967 371.455C246.89 371.7 246.869 371.861 246.825 372.123C246.747 372.591 246.888 372.983 247.072 373.216C247.336 373.549 247.56 373.87 247.798 374.059C248.063 374.27 248.485 374.339 248.889 374.334C249.053 374.332 249.129 374.281 249.208 374.121C249.286 373.961 249.363 373.681 249.403 373.402C249.481 372.857 249.366 372.381 249.229 372.059C249.174 371.929 249.132 371.873 249.092 371.824C249.019 371.732 248.589 371.725 247.864 371.818C247.23 371.898 246.821 372.173 246.597 372.344C246.378 372.51 246.343 372.768 246.303 372.929C246.266 373.084 246.274 373.217 246.347 373.46C246.441 373.773 246.605 373.996 246.674 374.289C246.8 374.679 246.927 374.904 247.005 374.977C247.053 375.002 247.121 375.002 247.191 375.002" stroke="#262626" stroke-width="5" stroke-linecap="round"/>
<path d="M254 365.25C257.746 365.25 260.75 368.065 260.75 371.5C260.75 374.935 257.746 377.75 254 377.75C250.254 377.75 247.25 374.935 247.25 371.5C247.25 368.065 250.254 365.25 254 365.25Z" fill="#232323" stroke="#070E0F" stroke-width="0.5"/>
</svg>
